<svg width="294" height="127" viewBox="0 0 294 127" fill="none" xmlns="http://www.w3.org/2000/svg">
<path d="M64.5039 12.6719C64.5039 15.2448 64.0091 17.3958 63.0195 19.125C62.0404 20.8438 60.6185 22.1406 58.7539 23.0156C56.8893 23.8802 54.6445 24.3125 52.0195 24.3125H45.5508V1.46875H52.7227C55.1185 1.46875 57.1966 1.89583 58.957 2.75C60.7174 3.59375 62.082 4.84896 63.0508 6.51562C64.0195 8.17188 64.5039 10.224 64.5039 12.6719ZM59.4727 12.7969C59.4727 11.1094 59.2227 9.72396 58.7227 8.64062C58.2331 7.54688 57.5039 6.73958 56.5352 6.21875C55.5768 5.69792 54.3893 5.4375 52.9727 5.4375H50.3945V20.3125H52.4727C54.8372 20.3125 56.5924 19.6823 57.7383 18.4219C58.8945 17.1615 59.4727 15.2865 59.4727 12.7969ZM76.0195 6.48438C78.3633 6.48438 80.1602 6.99479 81.4102 8.01562C82.6602 9.03646 83.2852 10.5885 83.2852 12.6719V24.3125H79.957L79.0352 21.9375H78.9102C78.4102 22.5625 77.8997 23.0729 77.3789 23.4688C76.8581 23.8646 76.2591 24.1562 75.582 24.3438C74.9049 24.5312 74.082 24.625 73.1133 24.625C72.082 24.625 71.1549 24.4271 70.332 24.0312C69.5195 23.6354 68.8789 23.0312 68.4102 22.2188C67.9414 21.3958 67.707 20.3542 67.707 19.0938C67.707 17.2396 68.3581 15.875 69.6602 15C70.9622 14.1146 72.9154 13.625 75.5195 13.5312L78.5508 13.4375V12.6719C78.5508 11.7552 78.3112 11.0833 77.832 10.6562C77.3529 10.2292 76.6862 10.0156 75.832 10.0156C74.9883 10.0156 74.1602 10.1354 73.3477 10.375C72.5352 10.6146 71.7227 10.9167 70.9102 11.2812L69.332 8.0625C70.2591 7.57292 71.2956 7.1875 72.4414 6.90625C73.5977 6.625 74.7904 6.48438 76.0195 6.48438ZM78.5508 16.2188L76.707 16.2812C75.1654 16.3229 74.0924 16.599 73.4883 17.1094C72.8945 17.6198 72.5977 18.2917 72.5977 19.125C72.5977 19.8542 72.8112 20.375 73.2383 20.6875C73.6654 20.9896 74.2227 21.1406 74.9102 21.1406C75.931 21.1406 76.7904 20.8385 77.4883 20.2344C78.1966 19.6302 78.5508 18.7708 78.5508 17.6562V16.2188ZM106.504 1.46875L98.7383 24.3125H93.457L85.707 1.46875H90.5977L94.8945 15.0625C94.9674 15.2917 95.0872 15.724 95.2539 16.3594C95.4206 16.9844 95.5872 17.651 95.7539 18.3594C95.931 19.0573 96.0508 19.6354 96.1133 20.0938C96.1758 19.6354 96.2852 19.0573 96.4414 18.3594C96.6081 17.6615 96.7695 17 96.9258 16.375C97.0924 15.7396 97.2122 15.3021 97.2852 15.0625L101.613 1.46875H106.504ZM113.785 6.84375V24.3125H109.02V6.84375H113.785ZM111.41 0C112.118 0 112.728 0.166667 113.238 0.5C113.749 0.822917 114.004 1.43229 114.004 2.32812C114.004 3.21354 113.749 3.82812 113.238 4.17188C112.728 4.50521 112.118 4.67188 111.41 4.67188C110.691 4.67188 110.077 4.50521 109.566 4.17188C109.066 3.82812 108.816 3.21354 108.816 2.32812C108.816 1.43229 109.066 0.822917 109.566 0.5C110.077 0.166667 110.691 0 111.41 0ZM128.723 6.51562C130.587 6.51562 132.087 7.02604 133.223 8.04688C134.358 9.05729 134.926 10.6823 134.926 12.9219V24.3125H130.16V14.1094C130.16 12.8594 129.931 11.9167 129.473 11.2812C129.025 10.6458 128.316 10.3281 127.348 10.3281C125.889 10.3281 124.895 10.8229 124.363 11.8125C123.832 12.8021 123.566 14.2292 123.566 16.0938V24.3125H118.801V6.84375H122.441L123.082 9.07812H123.348C123.723 8.47396 124.186 7.98438 124.738 7.60938C125.301 7.23438 125.921 6.95833 126.598 6.78125C127.285 6.60417 127.993 6.51562 128.723 6.51562ZM146.926 24.625C145.197 24.625 143.723 24.3125 142.504 23.6875C141.285 23.0521 140.358 22.0729 139.723 20.75C139.087 19.4271 138.77 17.7344 138.77 15.6719C138.77 13.5365 139.129 11.7969 139.848 10.4531C140.577 9.09896 141.582 8.10417 142.863 7.46875C144.155 6.83333 145.65 6.51562 147.348 6.51562C148.556 6.51562 149.598 6.63542 150.473 6.875C151.358 7.10417 152.129 7.38021 152.785 7.70312L151.379 11.3906C150.629 11.0885 149.931 10.8438 149.285 10.6562C148.639 10.4583 147.993 10.3594 147.348 10.3594C146.514 10.3594 145.822 10.5573 145.27 10.9531C144.717 11.3385 144.306 11.9219 144.035 12.7031C143.764 13.4844 143.629 14.4635 143.629 15.6406C143.629 16.7969 143.775 17.7552 144.066 18.5156C144.358 19.276 144.78 19.8438 145.332 20.2188C145.884 20.5833 146.556 20.7656 147.348 20.7656C148.337 20.7656 149.217 20.6354 149.988 20.375C150.759 20.1042 151.509 19.7292 152.238 19.25V23.3281C151.509 23.7865 150.743 24.1146 149.941 24.3125C149.15 24.5208 148.145 24.625 146.926 24.625ZM161.066 6.84375V24.3125H156.301V6.84375H161.066ZM158.691 0C159.4 0 160.009 0.166667 160.52 0.5C161.03 0.822917 161.285 1.43229 161.285 2.32812C161.285 3.21354 161.03 3.82812 160.52 4.17188C160.009 4.50521 159.4 4.67188 158.691 4.67188C157.973 4.67188 157.358 4.50521 156.848 4.17188C156.348 3.82812 156.098 3.21354 156.098 2.32812C156.098 1.43229 156.348 0.822917 156.848 0.5C157.358 0.166667 157.973 0 158.691 0ZM181.426 1.46875C183.499 1.46875 185.207 1.71875 186.551 2.21875C187.905 2.71875 188.91 3.47396 189.566 4.48438C190.223 5.49479 190.551 6.77083 190.551 8.3125C190.551 9.35417 190.353 10.2656 189.957 11.0469C189.561 11.8281 189.04 12.4896 188.395 13.0312C187.749 13.5729 187.051 14.0156 186.301 14.3594L193.02 24.3125H187.645L182.191 15.5469H179.613V24.3125H174.77V1.46875H181.426ZM181.082 5.4375H179.613V11.6094H181.176C182.78 11.6094 183.926 11.3438 184.613 10.8125C185.311 10.2708 185.66 9.47917 185.66 8.4375C185.66 7.35417 185.285 6.58333 184.535 6.125C183.796 5.66667 182.645 5.4375 181.082 5.4375ZM202.723 6.51562C204.337 6.51562 205.728 6.82812 206.895 7.45312C208.061 8.06771 208.962 8.96354 209.598 10.1406C210.233 11.3177 210.551 12.7552 210.551 14.4531V16.7656H199.285C199.337 18.1094 199.738 19.1667 200.488 19.9375C201.249 20.6979 202.301 21.0781 203.645 21.0781C204.759 21.0781 205.78 20.9635 206.707 20.7344C207.634 20.5052 208.587 20.1615 209.566 19.7031V23.3906C208.702 23.8177 207.796 24.1302 206.848 24.3281C205.91 24.526 204.77 24.625 203.426 24.625C201.676 24.625 200.124 24.3021 198.77 23.6562C197.426 23.0104 196.368 22.026 195.598 20.7031C194.837 19.3802 194.457 17.7135 194.457 15.7031C194.457 13.6615 194.801 11.9635 195.488 10.6094C196.186 9.24479 197.155 8.22396 198.395 7.54688C199.634 6.85938 201.077 6.51562 202.723 6.51562ZM202.754 9.90625C201.827 9.90625 201.056 10.2031 200.441 10.7969C199.837 11.3906 199.488 12.3229 199.395 13.5938H206.082C206.072 12.8854 205.941 12.2552 205.691 11.7031C205.452 11.151 205.087 10.7135 204.598 10.3906C204.118 10.0677 203.504 9.90625 202.754 9.90625ZM226.613 19.125C226.613 20.3125 226.332 21.3177 225.77 22.1406C225.217 22.9531 224.389 23.5729 223.285 24C222.181 24.4167 220.806 24.625 219.16 24.625C217.941 24.625 216.895 24.5469 216.02 24.3906C215.155 24.2344 214.28 23.974 213.395 23.6094V19.6719C214.342 20.099 215.358 20.4531 216.441 20.7344C217.535 21.0052 218.493 21.1406 219.316 21.1406C220.243 21.1406 220.905 21.0052 221.301 20.7344C221.707 20.4531 221.91 20.0885 221.91 19.6406C221.91 19.349 221.827 19.0885 221.66 18.8594C221.504 18.6198 221.16 18.3542 220.629 18.0625C220.098 17.7604 219.264 17.3698 218.129 16.8906C217.035 16.4323 216.134 15.9688 215.426 15.5C214.728 15.0312 214.207 14.4792 213.863 13.8438C213.53 13.1979 213.363 12.3802 213.363 11.3906C213.363 9.77604 213.988 8.5625 215.238 7.75C216.499 6.92708 218.181 6.51562 220.285 6.51562C221.368 6.51562 222.4 6.625 223.379 6.84375C224.368 7.0625 225.384 7.41146 226.426 7.89062L224.988 11.3281C224.124 10.9531 223.306 10.6458 222.535 10.4062C221.775 10.1667 220.999 10.0469 220.207 10.0469C219.509 10.0469 218.983 10.1406 218.629 10.3281C218.275 10.5156 218.098 10.8021 218.098 11.1875C218.098 11.4688 218.186 11.7188 218.363 11.9375C218.551 12.1562 218.905 12.401 219.426 12.6719C219.957 12.9323 220.733 13.2708 221.754 13.6875C222.743 14.0938 223.603 14.5208 224.332 14.9688C225.061 15.4062 225.624 15.9531 226.02 16.6094C226.415 17.2552 226.613 18.0938 226.613 19.125ZM246.207 15.5469C246.207 17.0052 246.009 18.2969 245.613 19.4219C245.228 20.5469 244.66 21.5 243.91 22.2812C243.171 23.0521 242.275 23.6354 241.223 24.0312C240.181 24.4271 239.004 24.625 237.691 24.625C236.462 24.625 235.332 24.4271 234.301 24.0312C233.28 23.6354 232.389 23.0521 231.629 22.2812C230.879 21.5 230.296 20.5469 229.879 19.4219C229.473 18.2969 229.27 17.0052 229.27 15.5469C229.27 13.6094 229.613 11.9688 230.301 10.625C230.988 9.28125 231.967 8.26042 233.238 7.5625C234.509 6.86458 236.025 6.51562 237.785 6.51562C239.421 6.51562 240.868 6.86458 242.129 7.5625C243.4 8.26042 244.395 9.28125 245.113 10.625C245.842 11.9688 246.207 13.6094 246.207 15.5469ZM234.129 15.5469C234.129 16.6927 234.254 17.6562 234.504 18.4375C234.754 19.2188 235.145 19.8073 235.676 20.2031C236.207 20.599 236.9 20.7969 237.754 20.7969C238.598 20.7969 239.28 20.599 239.801 20.2031C240.332 19.8073 240.717 19.2188 240.957 18.4375C241.207 17.6562 241.332 16.6927 241.332 15.5469C241.332 14.3906 241.207 13.4323 240.957 12.6719C240.717 11.901 240.332 11.3229 239.801 10.9375C239.27 10.5521 238.577 10.3594 237.723 10.3594C236.462 10.3594 235.546 10.7917 234.973 11.6562C234.41 12.5208 234.129 13.8177 234.129 15.5469ZM254.91 24.3125H250.145V0H254.91V24.3125ZM264.082 24.3125L257.426 6.84375H262.41L265.785 16.7969C265.973 17.3802 266.118 17.9948 266.223 18.6406C266.337 19.2865 266.415 19.8646 266.457 20.375H266.582C266.613 19.8229 266.686 19.2344 266.801 18.6094C266.926 17.9844 267.087 17.3802 267.285 16.7969L270.645 6.84375H275.629L268.973 24.3125H264.082ZM285.348 6.51562C286.962 6.51562 288.353 6.82812 289.52 7.45312C290.686 8.06771 291.587 8.96354 292.223 10.1406C292.858 11.3177 293.176 12.7552 293.176 14.4531V16.7656H281.91C281.962 18.1094 282.363 19.1667 283.113 19.9375C283.874 20.6979 284.926 21.0781 286.27 21.0781C287.384 21.0781 288.405 20.9635 289.332 20.7344C290.259 20.5052 291.212 20.1615 292.191 19.7031V23.3906C291.327 23.8177 290.421 24.1302 289.473 24.3281C288.535 24.526 287.395 24.625 286.051 24.625C284.301 24.625 282.749 24.3021 281.395 23.6562C280.051 23.0104 278.993 22.026 278.223 20.7031C277.462 19.3802 277.082 17.7135 277.082 15.7031C277.082 13.6615 277.426 11.9635 278.113 10.6094C278.811 9.24479 279.78 8.22396 281.02 7.54688C282.259 6.85938 283.702 6.51562 285.348 6.51562ZM285.379 9.90625C284.452 9.90625 283.681 10.2031 283.066 10.7969C282.462 11.3906 282.113 12.3229 282.02 13.5938H288.707C288.697 12.8854 288.566 12.2552 288.316 11.7031C288.077 11.151 287.712 10.7135 287.223 10.3906C286.743 10.0677 286.129 9.90625 285.379 9.90625ZM243.756 40.4062C243.264 40.4062 242.84 40.3066 242.484 40.1074C242.129 39.9043 241.855 39.6191 241.664 39.252C241.477 38.8809 241.383 38.4434 241.383 37.9395C241.383 37.5332 241.428 37.1328 241.518 36.7383C241.607 36.3398 241.74 35.9648 241.916 35.6133C242.092 35.2578 242.309 34.9453 242.566 34.6758C242.828 34.4023 243.129 34.1895 243.469 34.0371C243.809 33.8809 244.188 33.8027 244.605 33.8027C245.105 33.8027 245.531 33.9043 245.883 34.1074C246.238 34.3066 246.51 34.5918 246.697 34.9629C246.889 35.334 246.984 35.7734 246.984 36.2812C246.984 36.6797 246.939 37.0762 246.85 37.4707C246.764 37.8652 246.633 38.2402 246.457 38.5957C246.285 38.9473 246.068 39.2598 245.807 39.5332C245.549 39.8027 245.248 40.0156 244.904 40.1719C244.564 40.3281 244.182 40.4062 243.756 40.4062ZM243.814 39.5977C244.057 39.5977 244.287 39.5469 244.506 39.4453C244.725 39.3438 244.924 39.1973 245.104 39.0059C245.283 38.8105 245.438 38.5742 245.566 38.2969C245.699 38.0156 245.801 37.6973 245.871 37.3418C245.945 36.9863 245.982 36.5957 245.982 36.1699C245.982 35.916 245.938 35.6699 245.848 35.4316C245.758 35.1934 245.613 34.998 245.414 34.8457C245.215 34.6895 244.949 34.6113 244.617 34.6113C244.344 34.6113 244.09 34.668 243.855 34.7812C243.625 34.8945 243.418 35.0547 243.234 35.2617C243.051 35.4688 242.895 35.7129 242.766 35.9941C242.641 36.2754 242.543 36.584 242.473 36.9199C242.406 37.2559 242.373 37.6094 242.373 37.9805C242.373 38.4922 242.498 38.8906 242.748 39.1758C242.998 39.457 243.354 39.5977 243.814 39.5977ZM251.016 40.3125L252.381 33.8906H253.178L253.025 35.1328H253.084C253.225 34.9297 253.395 34.7246 253.594 34.5176C253.793 34.3066 254.023 34.1309 254.285 33.9902C254.551 33.8457 254.852 33.7734 255.188 33.7734C255.641 33.7734 255.984 33.9043 256.219 34.166C256.453 34.4277 256.59 34.7852 256.629 35.2383H256.67C256.826 35 257.014 34.7695 257.232 34.5469C257.451 34.3203 257.699 34.1348 257.977 33.9902C258.258 33.8457 258.566 33.7734 258.902 33.7734C259.398 33.7734 259.781 33.9082 260.051 34.1777C260.32 34.4473 260.455 34.8379 260.455 35.3496C260.455 35.5332 260.443 35.707 260.42 35.8711C260.4 36.0352 260.369 36.2031 260.326 36.375L259.494 40.3125H258.51L259.377 36.2695C259.412 36.0938 259.438 35.9414 259.453 35.8125C259.473 35.6836 259.482 35.5605 259.482 35.4434C259.482 35.1816 259.412 34.9746 259.271 34.8223C259.131 34.6699 258.914 34.5938 258.621 34.5938C258.414 34.5938 258.199 34.6504 257.977 34.7637C257.754 34.877 257.537 35.0488 257.326 35.2793C257.119 35.5059 256.932 35.793 256.764 36.1406C256.596 36.4883 256.461 36.8965 256.359 37.3652L255.732 40.3125H254.76L255.615 36.2871C255.65 36.1074 255.676 35.9531 255.691 35.8242C255.711 35.6914 255.721 35.5781 255.721 35.4844C255.721 35.207 255.656 34.9902 255.527 34.834C255.398 34.6738 255.188 34.5938 254.895 34.5938C254.688 34.5938 254.471 34.6484 254.244 34.7578C254.021 34.8672 253.805 35.0391 253.594 35.2734C253.383 35.5078 253.189 35.8066 253.014 36.1699C252.838 36.5332 252.697 36.9707 252.592 37.4824L251.994 40.3125H251.016ZM263.461 40.4297C263.113 40.4297 262.809 40.3457 262.547 40.1777C262.285 40.0098 262.082 39.7617 261.938 39.4336C261.793 39.1055 261.721 38.7051 261.721 38.2324C261.721 37.7598 261.77 37.3047 261.867 36.8672C261.969 36.4297 262.111 36.0234 262.295 35.6484C262.479 35.2734 262.699 34.9453 262.957 34.6641C263.219 34.3828 263.512 34.1641 263.836 34.0078C264.16 33.8516 264.51 33.7734 264.885 33.7734C265.174 33.7734 265.424 33.8281 265.635 33.9375C265.85 34.0469 266.027 34.1914 266.168 34.3711C266.312 34.5469 266.426 34.7344 266.508 34.9336H266.566L266.941 33.8906H267.686L266.326 40.3125H265.547L265.723 39.0703H265.676C265.5 39.3047 265.299 39.5254 265.072 39.7324C264.846 39.9395 264.598 40.1074 264.328 40.2363C264.059 40.3652 263.77 40.4297 263.461 40.4297ZM263.777 39.6211C264.078 39.6211 264.375 39.5117 264.668 39.293C264.965 39.0703 265.23 38.7715 265.465 38.3965C265.703 38.0176 265.885 37.5918 266.01 37.1191C266.072 36.8887 266.113 36.6777 266.133 36.4863C266.156 36.291 266.168 36.1094 266.168 35.9414C266.168 35.5391 266.061 35.2148 265.846 34.9688C265.635 34.7188 265.346 34.5938 264.979 34.5938C264.717 34.5938 264.471 34.6602 264.24 34.793C264.01 34.9219 263.801 35.1035 263.613 35.3379C263.43 35.5684 263.271 35.8379 263.139 36.1465C263.006 36.4512 262.902 36.7832 262.828 37.1426C262.758 37.502 262.723 37.8711 262.723 38.25C262.723 38.6992 262.814 39.041 262.998 39.2754C263.182 39.5059 263.441 39.6211 263.777 39.6211ZM270.838 40.4297C270.357 40.4297 269.943 40.334 269.596 40.1426C269.248 39.9473 268.98 39.6699 268.793 39.3105C268.609 38.9473 268.518 38.5137 268.518 38.0098C268.518 37.4902 268.592 36.9805 268.74 36.4805C268.893 35.9766 269.109 35.5215 269.391 35.1152C269.672 34.7051 270.01 34.3789 270.404 34.1367C270.803 33.8945 271.248 33.7734 271.74 33.7734C272.33 33.7734 272.777 33.9062 273.082 34.1719C273.387 34.4336 273.539 34.7949 273.539 35.2559C273.539 35.5801 273.463 35.8789 273.311 36.1523C273.162 36.4258 272.932 36.6641 272.619 36.8672C272.311 37.0664 271.918 37.2227 271.441 37.3359C270.969 37.4453 270.408 37.5 269.76 37.5H269.537C269.529 37.5703 269.521 37.6484 269.514 37.7344C269.51 37.8203 269.508 37.9004 269.508 37.9746C269.508 38.4902 269.633 38.8945 269.883 39.1875C270.133 39.4766 270.508 39.6211 271.008 39.6211C271.316 39.6211 271.607 39.5781 271.881 39.4922C272.158 39.4023 272.447 39.2852 272.748 39.1406V39.9785C272.459 40.1113 272.168 40.2207 271.875 40.3066C271.582 40.3887 271.236 40.4297 270.838 40.4297ZM269.678 36.7031H269.818C270.318 36.7031 270.777 36.6602 271.195 36.5742C271.613 36.4844 271.949 36.3398 272.203 36.1406C272.457 35.9375 272.584 35.668 272.584 35.332C272.584 35.1133 272.51 34.9336 272.361 34.793C272.213 34.6523 271.986 34.582 271.682 34.582C271.412 34.582 271.146 34.666 270.885 34.834C270.623 34.998 270.385 35.2383 270.17 35.5547C269.959 35.8711 269.795 36.2539 269.678 36.7031ZM275.771 40.4297C275.381 40.4297 275.037 40.3906 274.74 40.3125C274.447 40.2344 274.191 40.1367 273.973 40.0195V39.1172C274.18 39.2422 274.441 39.3594 274.758 39.4688C275.078 39.5781 275.406 39.6328 275.742 39.6328C276.074 39.6328 276.35 39.5879 276.568 39.498C276.791 39.4082 276.957 39.2852 277.066 39.1289C277.18 38.9688 277.236 38.7832 277.236 38.5723C277.236 38.4043 277.199 38.2598 277.125 38.1387C277.055 38.0137 276.938 37.8926 276.773 37.7754C276.613 37.6582 276.398 37.5234 276.129 37.3711C275.828 37.2031 275.574 37.0332 275.367 36.8613C275.16 36.6895 275.002 36.502 274.893 36.2988C274.787 36.0918 274.734 35.8516 274.734 35.5781C274.734 35.2109 274.824 34.8926 275.004 34.623C275.184 34.3535 275.436 34.1445 275.76 33.9961C276.088 33.8477 276.471 33.7734 276.908 33.7734C277.295 33.7734 277.652 33.8184 277.98 33.9082C278.309 33.9941 278.592 34.0938 278.83 34.207L278.514 34.9863C278.311 34.8887 278.078 34.7988 277.816 34.7168C277.555 34.6348 277.252 34.5938 276.908 34.5938C276.541 34.5938 276.248 34.6777 276.029 34.8457C275.814 35.0137 275.707 35.2402 275.707 35.5254C275.707 35.6738 275.738 35.8066 275.801 35.9238C275.867 36.041 275.98 36.1582 276.141 36.2754C276.301 36.3887 276.52 36.5215 276.797 36.6738C277.066 36.8301 277.309 36.9902 277.523 37.1543C277.742 37.3145 277.914 37.5 278.039 37.7109C278.168 37.918 278.232 38.1738 278.232 38.4785C278.232 38.8965 278.133 39.252 277.934 39.5449C277.734 39.834 277.449 40.0547 277.078 40.207C276.711 40.3555 276.275 40.4297 275.771 40.4297ZM281.25 40.4297C280.824 40.4297 280.469 40.3281 280.184 40.125C279.902 39.918 279.762 39.5645 279.762 39.0645C279.762 38.9434 279.77 38.8125 279.785 38.6719C279.801 38.5273 279.826 38.3789 279.861 38.2266L280.617 34.6348H279.627L279.721 34.1836L280.787 33.7734L281.49 32.4141H282.07L281.748 33.8906H283.4L283.248 34.6348H281.602L280.84 38.2383C280.812 38.3477 280.787 38.4648 280.764 38.5898C280.744 38.7148 280.734 38.834 280.734 38.9473C280.734 39.1426 280.785 39.3066 280.887 39.4395C280.988 39.5684 281.158 39.6328 281.396 39.6328C281.545 39.6328 281.686 39.6191 281.818 39.5918C281.955 39.5645 282.1 39.5254 282.252 39.4746V40.2246C282.154 40.2715 282.006 40.3164 281.807 40.3594C281.611 40.4062 281.426 40.4297 281.25 40.4297ZM283.383 40.3125L284.748 33.8906H285.545L285.393 35.1328H285.451C285.615 34.9102 285.791 34.6953 285.979 34.4883C286.166 34.2773 286.379 34.1055 286.617 33.9727C286.859 33.8398 287.137 33.7734 287.449 33.7734C287.566 33.7734 287.686 33.7812 287.807 33.7969C287.928 33.8086 288.041 33.8301 288.146 33.8613L287.936 34.7344C287.83 34.7109 287.727 34.6934 287.625 34.6816C287.527 34.6699 287.426 34.6641 287.32 34.6641C287.023 34.6641 286.748 34.7422 286.494 34.8984C286.24 35.0508 286.012 35.2559 285.809 35.5137C285.609 35.7715 285.439 36.0586 285.299 36.375C285.162 36.6914 285.059 37.0137 284.988 37.3418L284.361 40.3125H283.383ZM290.748 40.4062C290.256 40.4062 289.832 40.3066 289.477 40.1074C289.121 39.9043 288.848 39.6191 288.656 39.252C288.469 38.8809 288.375 38.4434 288.375 37.9395C288.375 37.5332 288.42 37.1328 288.51 36.7383C288.6 36.3398 288.732 35.9648 288.908 35.6133C289.084 35.2578 289.301 34.9453 289.559 34.6758C289.82 34.4023 290.121 34.1895 290.461 34.0371C290.801 33.8809 291.18 33.8027 291.598 33.8027C292.098 33.8027 292.523 33.9043 292.875 34.1074C293.23 34.3066 293.502 34.5918 293.689 34.9629C293.881 35.334 293.977 35.7734 293.977 36.2812C293.977 36.6797 293.932 37.0762 293.842 37.4707C293.756 37.8652 293.625 38.2402 293.449 38.5957C293.277 38.9473 293.061 39.2598 292.799 39.5332C292.541 39.8027 292.24 40.0156 291.896 40.1719C291.557 40.3281 291.174 40.4062 290.748 40.4062ZM290.807 39.5977C291.049 39.5977 291.279 39.5469 291.498 39.4453C291.717 39.3438 291.916 39.1973 292.096 39.0059C292.275 38.8105 292.43 38.5742 292.559 38.2969C292.691 38.0156 292.793 37.6973 292.863 37.3418C292.938 36.9863 292.975 36.5957 292.975 36.1699C292.975 35.916 292.93 35.6699 292.84 35.4316C292.75 35.1934 292.605 34.998 292.406 34.8457C292.207 34.6895 291.941 34.6113 291.609 34.6113C291.336 34.6113 291.082 34.668 290.848 34.7812C290.617 34.8945 290.41 35.0547 290.227 35.2617C290.043 35.4688 289.887 35.7129 289.758 35.9941C289.633 36.2754 289.535 36.584 289.465 36.9199C289.398 37.2559 289.365 37.6094 289.365 37.9805C289.365 38.4922 289.49 38.8906 289.74 39.1758C289.99 39.457 290.346 39.5977 290.807 39.5977ZM5.77148 67.3125L13.5938 53.0352H15.3223L17.1289 67.3125H15.498L14.9316 62.7617H10L7.57812 67.3125H5.77148ZM10.791 61.2871H14.7656L14.3848 57.957C14.3392 57.4753 14.2904 56.9479 14.2383 56.375C14.1862 55.7956 14.1536 55.278 14.1406 54.8223H14.082C13.8737 55.3171 13.6361 55.8379 13.3691 56.3848C13.1087 56.9251 12.832 57.472 12.5391 58.0254L10.791 61.2871ZM26.416 67.5078C25.765 67.5078 25.1921 67.4427 24.6973 67.3125C24.209 67.1823 23.7826 67.0195 23.418 66.8242V65.3203C23.763 65.5286 24.1992 65.724 24.7266 65.9062C25.2604 66.0885 25.8073 66.1797 26.3672 66.1797C26.9206 66.1797 27.3796 66.1048 27.7441 65.9551C28.1152 65.8053 28.3919 65.6003 28.5742 65.3398C28.763 65.0729 28.8574 64.7637 28.8574 64.4121C28.8574 64.1322 28.7956 63.8913 28.6719 63.6895C28.5547 63.4811 28.3594 63.2793 28.0859 63.084C27.819 62.8887 27.4609 62.6641 27.0117 62.4102C26.5104 62.1302 26.0872 61.847 25.7422 61.5605C25.3971 61.2741 25.1335 60.9616 24.9512 60.623C24.7754 60.278 24.6875 59.8776 24.6875 59.4219C24.6875 58.8099 24.8372 58.2793 25.1367 57.8301C25.4362 57.3809 25.8561 57.0326 26.3965 56.7852C26.9434 56.5378 27.5814 56.4141 28.3105 56.4141C28.9551 56.4141 29.5508 56.4889 30.0977 56.6387C30.6445 56.7819 31.1165 56.9479 31.5137 57.1367L30.9863 58.4355C30.6478 58.2728 30.2604 58.123 29.8242 57.9863C29.388 57.8496 28.8835 57.7812 28.3105 57.7812C27.6986 57.7812 27.2103 57.9212 26.8457 58.2012C26.4876 58.4811 26.3086 58.8587 26.3086 59.334C26.3086 59.5814 26.3607 59.8027 26.4648 59.998C26.5755 60.1934 26.7643 60.3887 27.0312 60.584C27.2982 60.7728 27.6628 60.9941 28.125 61.248C28.5742 61.5085 28.9779 61.7754 29.3359 62.0488C29.7005 62.3158 29.987 62.625 30.1953 62.9766C30.4102 63.3216 30.5176 63.748 30.5176 64.2559C30.5176 64.9525 30.3516 65.5449 30.0195 66.0332C29.6875 66.515 29.2122 66.8828 28.5938 67.1367C27.9818 67.3841 27.2559 67.5078 26.416 67.5078ZM36.8652 67.4688C36.0449 67.4688 35.3385 67.3027 34.7461 66.9707C34.1536 66.6322 33.6979 66.1569 33.3789 65.5449C33.0664 64.9264 32.9102 64.1973 32.9102 63.3574C32.9102 62.6803 32.985 62.013 33.1348 61.3555C33.2845 60.6914 33.5059 60.0664 33.7988 59.4805C34.0918 58.888 34.4531 58.3672 34.8828 57.918C35.319 57.4622 35.8203 57.1074 36.3867 56.8535C36.9531 56.5931 37.5846 56.4629 38.2812 56.4629C39.1146 56.4629 39.8242 56.6322 40.4102 56.9707C41.0026 57.3027 41.4551 57.778 41.7676 58.3965C42.0866 59.015 42.2461 59.7474 42.2461 60.5938C42.2461 61.2578 42.1712 61.9186 42.0215 62.5762C41.8783 63.2337 41.6602 63.8587 41.3672 64.4512C41.0807 65.0371 40.7194 65.5579 40.2832 66.0137C39.8535 66.4629 39.3522 66.8177 38.7793 67.0781C38.2129 67.3385 37.5749 67.4688 36.8652 67.4688ZM36.9629 66.1211C37.3665 66.1211 37.7507 66.0365 38.1152 65.8672C38.4798 65.6979 38.8118 65.4538 39.1113 65.1348C39.4108 64.8092 39.668 64.4154 39.8828 63.9531C40.1042 63.4844 40.2734 62.9538 40.3906 62.3613C40.5143 61.7689 40.5762 61.1178 40.5762 60.4082C40.5762 59.985 40.5013 59.5749 40.3516 59.1777C40.2018 58.7806 39.9609 58.4551 39.6289 58.2012C39.2969 57.9408 38.8542 57.8105 38.3008 57.8105C37.8451 57.8105 37.4219 57.9049 37.0312 58.0938C36.6471 58.2826 36.3021 58.5495 35.9961 58.8945C35.6901 59.2396 35.4297 59.6465 35.2148 60.1152C35.0065 60.584 34.8438 61.0983 34.7266 61.6582C34.6159 62.2181 34.5605 62.8073 34.5605 63.4258C34.5605 64.2786 34.7689 64.9427 35.1855 65.418C35.6022 65.8867 36.1947 66.1211 36.9629 66.1211ZM43.75 67.3125L46.9922 52.1172H48.6133L45.3809 67.3125H43.75ZM52.041 67.5078C51.5007 67.5078 51.0286 67.4069 50.625 67.2051C50.2214 67.0033 49.9089 66.707 49.6875 66.3164C49.4727 65.9193 49.3652 65.4342 49.3652 64.8613C49.3652 64.5749 49.3848 64.2982 49.4238 64.0312C49.4694 63.7578 49.5182 63.4746 49.5703 63.1816L50.9863 56.6094H52.627L51.1719 63.3672C51.1198 63.6471 51.0775 63.8978 51.0449 64.1191C51.0189 64.334 51.0059 64.526 51.0059 64.6953C51.0059 65.1576 51.123 65.5189 51.3574 65.7793C51.5983 66.0332 51.9792 66.1602 52.5 66.1602C52.9883 66.1602 53.4993 65.9941 54.0332 65.6621C54.5736 65.3301 55.0716 64.8092 55.5273 64.0996C55.9896 63.3835 56.3411 62.4557 56.582 61.3164L57.5781 56.6094H59.1797L56.9141 67.3125H55.5762L55.8398 65.2422H55.752C55.5046 65.5807 55.2051 65.9258 54.8535 66.2773C54.502 66.6224 54.0951 66.9154 53.6328 67.1562C53.1706 67.3906 52.64 67.5078 52.041 67.5078ZM64.7266 67.5078C63.9323 67.5078 63.2357 67.3581 62.6367 67.0586C62.0443 66.7526 61.582 66.3034 61.25 65.7109C60.9245 65.1185 60.7617 64.3828 60.7617 63.5039C60.7617 62.7422 60.8431 62.0098 61.0059 61.3066C61.1751 60.6035 61.4193 59.9557 61.7383 59.3633C62.0573 58.7708 62.4447 58.2533 62.9004 57.8105C63.3561 57.3678 63.8737 57.026 64.4531 56.7852C65.0391 56.5378 65.6771 56.4141 66.3672 56.4141C66.8294 56.4141 67.2884 56.4596 67.7441 56.5508C68.2064 56.6354 68.623 56.7591 68.9941 56.9219L68.5352 58.2891C68.2617 58.1589 67.9395 58.0417 67.5684 57.9375C67.1973 57.8333 66.8001 57.7812 66.377 57.7812C65.7845 57.7812 65.2441 57.931 64.7559 58.2305C64.2741 58.5299 63.8574 58.9466 63.5059 59.4805C63.1608 60.0078 62.8939 60.6133 62.7051 61.2969C62.5163 61.9805 62.4219 62.7096 62.4219 63.4844C62.4219 64.0378 62.5195 64.5163 62.7148 64.9199C62.9102 65.3171 63.1901 65.623 63.5547 65.8379C63.9258 66.0527 64.3685 66.1602 64.8828 66.1602C65.3581 66.1602 65.804 66.0951 66.2207 65.9648C66.6439 65.8346 67.0573 65.6784 67.4609 65.4961V66.8828C67.1029 67.0651 66.6927 67.2148 66.2305 67.332C65.7747 67.4492 65.2734 67.5078 64.7266 67.5078ZM62.5781 72.1172C62.4023 72.1172 62.2331 72.1042 62.0703 72.0781C61.9076 72.0586 61.7708 72.0358 61.6602 72.0098V71.0332C61.7904 71.0592 61.9238 71.0788 62.0605 71.0918C62.1973 71.1048 62.3177 71.1113 62.4219 71.1113C62.7799 71.1113 63.0827 71.069 63.3301 70.9844C63.5775 70.9062 63.7663 70.7826 63.8965 70.6133C64.0267 70.4505 64.0918 70.2454 64.0918 69.998C64.0918 69.7051 63.9648 69.487 63.7109 69.3438C63.4635 69.2005 63.1283 69.1061 62.7051 69.0605L63.6719 67.3125H64.7168L64.1309 68.4746C64.4564 68.5592 64.7526 68.7122 65.0195 68.9336C65.293 69.1615 65.4297 69.5163 65.4297 69.998C65.4297 70.4017 65.319 70.763 65.0977 71.082C64.8763 71.401 64.5508 71.6517 64.1211 71.834C63.6979 72.0228 63.1836 72.1172 62.5781 72.1172ZM72.7148 67.5078C72.1354 67.5078 71.6276 67.3678 71.1914 67.0879C70.7552 66.8079 70.4167 66.3945 70.1758 65.8477C69.9349 65.3008 69.8145 64.6335 69.8145 63.8457C69.8145 63.0579 69.8958 62.2995 70.0586 61.5703C70.2279 60.8411 70.4655 60.1641 70.7715 59.5391C71.0775 58.9141 71.4453 58.3672 71.875 57.8984C72.3112 57.4297 72.7995 57.0651 73.3398 56.8047C73.8802 56.5443 74.4629 56.4141 75.0879 56.4141C75.5697 56.4141 75.9863 56.5052 76.3379 56.6875C76.696 56.8698 76.9922 57.1107 77.2266 57.4102C77.4674 57.7031 77.6562 58.0156 77.793 58.3477H77.8906L78.5156 56.6094H79.7559L77.4902 67.3125H76.1914L76.4844 65.2422H76.4062C76.1133 65.6328 75.778 66.0007 75.4004 66.3457C75.0228 66.6908 74.6094 66.9707 74.1602 67.1855C73.7109 67.4004 73.2292 67.5078 72.7148 67.5078ZM73.2422 66.1602C73.7435 66.1602 74.2383 65.9779 74.7266 65.6133C75.2214 65.2422 75.6641 64.7441 76.0547 64.1191C76.4518 63.4876 76.7546 62.778 76.9629 61.9902C77.0671 61.6061 77.1354 61.2546 77.168 60.9355C77.207 60.61 77.2266 60.3073 77.2266 60.0273C77.2266 59.3568 77.0475 58.8164 76.6895 58.4062C76.3379 57.9896 75.8561 57.7812 75.2441 57.7812C74.8079 57.7812 74.3978 57.8919 74.0137 58.1133C73.6296 58.3281 73.2812 58.6309 72.9688 59.0215C72.6628 59.4056 72.3991 59.8548 72.1777 60.3691C71.9564 60.877 71.7839 61.4303 71.6602 62.0293C71.543 62.6283 71.4844 63.2435 71.4844 63.875C71.4844 64.6237 71.6374 65.1934 71.9434 65.584C72.2493 65.9681 72.6823 66.1602 73.2422 66.1602ZM72.5586 55.1641C72.6758 54.6237 72.8385 54.168 73.0469 53.7969C73.2552 53.4258 73.5059 53.1458 73.7988 52.957C74.0983 52.7682 74.4401 52.6738 74.8242 52.6738C75.1172 52.6738 75.3906 52.7324 75.6445 52.8496C75.9049 52.9603 76.1491 53.0905 76.377 53.2402C76.6048 53.39 76.8164 53.5234 77.0117 53.6406C77.2135 53.7513 77.4056 53.8066 77.5879 53.8066C77.8743 53.8066 78.1022 53.722 78.2715 53.5527C78.4408 53.377 78.6068 53.0775 78.7695 52.6543H79.7754C79.6322 53.1947 79.4531 53.6504 79.2383 54.0215C79.0234 54.3926 78.7695 54.6758 78.4766 54.8711C78.1836 55.0599 77.8483 55.1543 77.4707 55.1543C77.2038 55.1543 76.9499 55.099 76.709 54.9883C76.4681 54.8711 76.2337 54.7376 76.0059 54.5879C75.7845 54.4316 75.5664 54.2982 75.3516 54.1875C75.1367 54.0703 74.9186 54.0117 74.6973 54.0117C74.4173 54.0117 74.1927 54.1061 74.0234 54.2949C73.8542 54.4772 73.6947 54.7669 73.5449 55.1641H72.5586ZM85.0879 67.4688C84.2676 67.4688 83.5612 67.3027 82.9688 66.9707C82.3763 66.6322 81.9206 66.1569 81.6016 65.5449C81.2891 64.9264 81.1328 64.1973 81.1328 63.3574C81.1328 62.6803 81.2077 62.013 81.3574 61.3555C81.5072 60.6914 81.7285 60.0664 82.0215 59.4805C82.3145 58.888 82.6758 58.3672 83.1055 57.918C83.5417 57.4622 84.043 57.1074 84.6094 56.8535C85.1758 56.5931 85.8073 56.4629 86.5039 56.4629C87.3372 56.4629 88.0469 56.6322 88.6328 56.9707C89.2253 57.3027 89.6777 57.778 89.9902 58.3965C90.3092 59.015 90.4688 59.7474 90.4688 60.5938C90.4688 61.2578 90.3939 61.9186 90.2441 62.5762C90.1009 63.2337 89.8828 63.8587 89.5898 64.4512C89.3034 65.0371 88.9421 65.5579 88.5059 66.0137C88.0762 66.4629 87.5749 66.8177 87.002 67.0781C86.4355 67.3385 85.7975 67.4688 85.0879 67.4688ZM85.1855 66.1211C85.5892 66.1211 85.9733 66.0365 86.3379 65.8672C86.7025 65.6979 87.0345 65.4538 87.334 65.1348C87.6335 64.8092 87.8906 64.4154 88.1055 63.9531C88.3268 63.4844 88.4961 62.9538 88.6133 62.3613C88.737 61.7689 88.7988 61.1178 88.7988 60.4082C88.7988 59.985 88.724 59.5749 88.5742 59.1777C88.4245 58.7806 88.1836 58.4551 87.8516 58.2012C87.5195 57.9408 87.0768 57.8105 86.5234 57.8105C86.0677 57.8105 85.6445 57.9049 85.2539 58.0938C84.8698 58.2826 84.5247 58.5495 84.2188 58.8945C83.9128 59.2396 83.6523 59.6465 83.4375 60.1152C83.2292 60.584 83.0664 61.0983 82.9492 61.6582C82.8385 62.2181 82.7832 62.8073 82.7832 63.4258C82.7832 64.2786 82.9915 64.9427 83.4082 65.418C83.8249 65.8867 84.4173 66.1211 85.1855 66.1211ZM101.562 67.5078C100.768 67.5078 100.072 67.3581 99.4727 67.0586C98.8802 66.7526 98.418 66.3034 98.0859 65.7109C97.7604 65.1185 97.5977 64.3828 97.5977 63.5039C97.5977 62.7422 97.679 62.0098 97.8418 61.3066C98.0111 60.6035 98.2552 59.9557 98.5742 59.3633C98.8932 58.7708 99.2806 58.2533 99.7363 57.8105C100.192 57.3678 100.71 57.026 101.289 56.7852C101.875 56.5378 102.513 56.4141 103.203 56.4141C103.665 56.4141 104.124 56.4596 104.58 56.5508C105.042 56.6354 105.459 56.7591 105.83 56.9219L105.371 58.2891C105.098 58.1589 104.775 58.0417 104.404 57.9375C104.033 57.8333 103.636 57.7812 103.213 57.7812C102.62 57.7812 102.08 57.931 101.592 58.2305C101.11 58.5299 100.693 58.9466 100.342 59.4805C99.9967 60.0078 99.7298 60.6133 99.541 61.2969C99.3522 61.9805 99.2578 62.7096 99.2578 63.4844C99.2578 64.0378 99.3555 64.5163 99.5508 64.9199C99.7461 65.3171 100.026 65.623 100.391 65.8379C100.762 66.0527 101.204 66.1602 101.719 66.1602C102.194 66.1602 102.64 66.0951 103.057 65.9648C103.48 65.8346 103.893 65.6784 104.297 65.4961V66.8828C103.939 67.0651 103.529 67.2148 103.066 67.332C102.611 67.4492 102.109 67.5078 101.562 67.5078ZM110.615 67.4688C109.795 67.4688 109.089 67.3027 108.496 66.9707C107.904 66.6322 107.448 66.1569 107.129 65.5449C106.816 64.9264 106.66 64.1973 106.66 63.3574C106.66 62.6803 106.735 62.013 106.885 61.3555C107.035 60.6914 107.256 60.0664 107.549 59.4805C107.842 58.888 108.203 58.3672 108.633 57.918C109.069 57.4622 109.57 57.1074 110.137 56.8535C110.703 56.5931 111.335 56.4629 112.031 56.4629C112.865 56.4629 113.574 56.6322 114.16 56.9707C114.753 57.3027 115.205 57.778 115.518 58.3965C115.837 59.015 115.996 59.7474 115.996 60.5938C115.996 61.2578 115.921 61.9186 115.771 62.5762C115.628 63.2337 115.41 63.8587 115.117 64.4512C114.831 65.0371 114.469 65.5579 114.033 66.0137C113.604 66.4629 113.102 66.8177 112.529 67.0781C111.963 67.3385 111.325 67.4688 110.615 67.4688ZM110.713 66.1211C111.117 66.1211 111.501 66.0365 111.865 65.8672C112.23 65.6979 112.562 65.4538 112.861 65.1348C113.161 64.8092 113.418 64.4154 113.633 63.9531C113.854 63.4844 114.023 62.9538 114.141 62.3613C114.264 61.7689 114.326 61.1178 114.326 60.4082C114.326 59.985 114.251 59.5749 114.102 59.1777C113.952 58.7806 113.711 58.4551 113.379 58.2012C113.047 57.9408 112.604 57.8105 112.051 57.8105C111.595 57.8105 111.172 57.9049 110.781 58.0938C110.397 58.2826 110.052 58.5495 109.746 58.8945C109.44 59.2396 109.18 59.6465 108.965 60.1152C108.757 60.584 108.594 61.0983 108.477 61.6582C108.366 62.2181 108.311 62.8073 108.311 63.4258C108.311 64.2786 108.519 64.9427 108.936 65.418C109.352 65.8867 109.945 66.1211 110.713 66.1211ZM117.52 67.3125L119.795 56.6094H121.123L120.869 58.6797H120.967C121.201 58.3411 121.484 57.9993 121.816 57.6543C122.148 57.3027 122.533 57.0098 122.969 56.7754C123.411 56.5345 123.913 56.4141 124.473 56.4141C125.228 56.4141 125.801 56.6322 126.191 57.0684C126.582 57.5046 126.81 58.1003 126.875 58.8555H126.943C127.204 58.4583 127.516 58.0742 127.881 57.7031C128.245 57.3255 128.659 57.0163 129.121 56.7754C129.59 56.5345 130.104 56.4141 130.664 56.4141C131.491 56.4141 132.129 56.6387 132.578 57.0879C133.027 57.5371 133.252 58.1882 133.252 59.041C133.252 59.347 133.232 59.6367 133.193 59.9102C133.161 60.1836 133.109 60.4635 133.037 60.75L131.65 67.3125H130.01L131.455 60.5742C131.514 60.2812 131.556 60.0273 131.582 59.8125C131.615 59.5977 131.631 59.3926 131.631 59.1973C131.631 58.7611 131.514 58.416 131.279 58.1621C131.045 57.9082 130.684 57.7812 130.195 57.7812C129.85 57.7812 129.492 57.8757 129.121 58.0645C128.75 58.2533 128.389 58.5397 128.037 58.9238C127.692 59.3014 127.38 59.7799 127.1 60.3594C126.82 60.9388 126.595 61.6191 126.426 62.4004L125.381 67.3125H123.76L125.186 60.6035C125.244 60.304 125.286 60.0469 125.312 59.832C125.345 59.6107 125.361 59.4219 125.361 59.2656C125.361 58.8034 125.254 58.4421 125.039 58.1816C124.824 57.9147 124.473 57.7812 123.984 57.7812C123.639 57.7812 123.278 57.8724 122.9 58.0547C122.529 58.237 122.168 58.5234 121.816 58.9141C121.465 59.3047 121.143 59.8027 120.85 60.4082C120.557 61.0137 120.322 61.7428 120.146 62.5957L119.15 67.3125H117.52ZM133.965 72.0977L137.236 56.6094H138.564L138.301 58.6895H138.369C138.675 58.2858 139.01 57.9147 139.375 57.5762C139.746 57.2311 140.15 56.9544 140.586 56.7461C141.029 56.5378 141.51 56.4336 142.031 56.4336C142.617 56.4336 143.128 56.5736 143.564 56.8535C144.001 57.127 144.339 57.5371 144.58 58.084C144.827 58.6243 144.951 59.2982 144.951 60.1055C144.951 60.8737 144.873 61.6224 144.717 62.3516C144.567 63.0742 144.346 63.748 144.053 64.373C143.76 64.9915 143.398 65.5384 142.969 66.0137C142.546 66.4824 142.061 66.8503 141.514 67.1172C140.967 67.3776 140.365 67.5078 139.707 67.5078C139.206 67.5078 138.773 67.4199 138.408 67.2441C138.05 67.0618 137.747 66.8242 137.5 66.5312C137.259 66.2383 137.067 65.9225 136.924 65.584H136.836C136.81 65.8249 136.768 66.1406 136.709 66.5312C136.657 66.9154 136.602 67.2376 136.543 67.498L135.566 72.0977H133.965ZM139.59 66.1602C140.046 66.1602 140.462 66.0462 140.84 65.8184C141.224 65.5905 141.566 65.2812 141.865 64.8906C142.171 64.4935 142.428 64.0345 142.637 63.5137C142.852 62.9928 143.014 62.4395 143.125 61.8535C143.236 61.2676 143.291 60.6719 143.291 60.0664C143.291 59.3112 143.138 58.7415 142.832 58.3574C142.533 57.9733 142.083 57.7812 141.484 57.7812C141.172 57.7812 140.856 57.8594 140.537 58.0156C140.218 58.1654 139.909 58.3802 139.609 58.6602C139.31 58.9336 139.03 59.2591 138.77 59.6367C138.509 60.0143 138.281 60.431 138.086 60.8867C137.897 61.3424 137.747 61.8242 137.637 62.332C137.526 62.8398 137.471 63.3607 137.471 63.8945C137.471 64.5781 137.643 65.1283 137.988 65.5449C138.34 65.9551 138.874 66.1602 139.59 66.1602ZM146.504 67.3125L149.746 52.1172H151.367L148.135 67.3125H146.504ZM155.869 67.5078C155.068 67.5078 154.378 67.3483 153.799 67.0293C153.219 66.7038 152.773 66.2415 152.461 65.6426C152.155 65.0371 152.002 64.3145 152.002 63.4746C152.002 62.6087 152.126 61.7591 152.373 60.9258C152.627 60.0859 152.988 59.3275 153.457 58.6504C153.926 57.9668 154.489 57.4232 155.146 57.0195C155.811 56.6159 156.553 56.4141 157.373 56.4141C158.356 56.4141 159.102 56.6354 159.609 57.0781C160.117 57.5143 160.371 58.1165 160.371 58.8848C160.371 59.4251 160.244 59.9232 159.99 60.3789C159.743 60.8346 159.359 61.2318 158.838 61.5703C158.324 61.9023 157.669 62.1628 156.875 62.3516C156.087 62.5339 155.153 62.625 154.072 62.625H153.701C153.688 62.7422 153.675 62.8724 153.662 63.0156C153.656 63.1589 153.652 63.2923 153.652 63.416C153.652 64.2754 153.861 64.9492 154.277 65.4375C154.694 65.9193 155.319 66.1602 156.152 66.1602C156.667 66.1602 157.152 66.0885 157.607 65.9453C158.07 65.7956 158.551 65.6003 159.053 65.3594V66.7559C158.571 66.9772 158.086 67.1595 157.598 67.3027C157.109 67.4395 156.533 67.5078 155.869 67.5078ZM153.936 61.2969H154.17C155.003 61.2969 155.768 61.2253 156.465 61.082C157.161 60.9323 157.721 60.6914 158.145 60.3594C158.568 60.0208 158.779 59.5716 158.779 59.0117C158.779 58.6471 158.656 58.3477 158.408 58.1133C158.161 57.8789 157.783 57.7617 157.275 57.7617C156.826 57.7617 156.383 57.9017 155.947 58.1816C155.511 58.4551 155.114 58.8555 154.756 59.3828C154.404 59.9102 154.131 60.5482 153.936 61.2969ZM164.59 67.5078C163.88 67.5078 163.288 67.3385 162.812 67C162.344 66.6549 162.109 66.0658 162.109 65.2324C162.109 65.0306 162.122 64.8125 162.148 64.5781C162.174 64.3372 162.217 64.0898 162.275 63.8359L163.535 57.8496H161.885L162.041 57.0977L163.818 56.4141L164.99 54.1484H165.957L165.42 56.6094H168.174L167.92 57.8496H165.176L163.906 63.8555C163.861 64.0378 163.818 64.2331 163.779 64.4414C163.747 64.6497 163.73 64.8483 163.73 65.0371C163.73 65.3626 163.815 65.6361 163.984 65.8574C164.154 66.0723 164.437 66.1797 164.834 66.1797C165.081 66.1797 165.316 66.1569 165.537 66.1113C165.765 66.0658 166.006 66.0007 166.26 65.916V67.166C166.097 67.2441 165.85 67.319 165.518 67.3906C165.192 67.4688 164.883 67.5078 164.59 67.5078ZM171.445 67.5078C170.866 67.5078 170.358 67.3678 169.922 67.0879C169.486 66.8079 169.147 66.3945 168.906 65.8477C168.665 65.3008 168.545 64.6335 168.545 63.8457C168.545 63.0579 168.626 62.2995 168.789 61.5703C168.958 60.8411 169.196 60.1641 169.502 59.5391C169.808 58.9141 170.176 58.3672 170.605 57.8984C171.042 57.4297 171.53 57.0651 172.07 56.8047C172.611 56.5443 173.193 56.4141 173.818 56.4141C174.3 56.4141 174.717 56.5052 175.068 56.6875C175.426 56.8698 175.723 57.1107 175.957 57.4102C176.198 57.7031 176.387 58.0156 176.523 58.3477H176.621L177.246 56.6094H178.486L176.221 67.3125H174.922L175.215 65.2422H175.137C174.844 65.6328 174.508 66.0007 174.131 66.3457C173.753 66.6908 173.34 66.9707 172.891 67.1855C172.441 67.4004 171.96 67.5078 171.445 67.5078ZM171.973 66.1602C172.474 66.1602 172.969 65.9779 173.457 65.6133C173.952 65.2422 174.395 64.7441 174.785 64.1191C175.182 63.4876 175.485 62.778 175.693 61.9902C175.798 61.6061 175.866 61.2546 175.898 60.9355C175.938 60.61 175.957 60.3073 175.957 60.0273C175.957 59.3568 175.778 58.8164 175.42 58.4062C175.068 57.9896 174.587 57.7812 173.975 57.7812C173.538 57.7812 173.128 57.8919 172.744 58.1133C172.36 58.3281 172.012 58.6309 171.699 59.0215C171.393 59.4056 171.13 59.8548 170.908 60.3691C170.687 60.877 170.514 61.4303 170.391 62.0293C170.273 62.6283 170.215 63.2435 170.215 63.875C170.215 64.6237 170.368 65.1934 170.674 65.584C170.98 65.9681 171.413 66.1602 171.973 66.1602ZM183.652 72.0977L186.924 56.6094H188.252L187.988 58.6895H188.057C188.363 58.2858 188.698 57.9147 189.062 57.5762C189.434 57.2311 189.837 56.9544 190.273 56.7461C190.716 56.5378 191.198 56.4336 191.719 56.4336C192.305 56.4336 192.816 56.5736 193.252 56.8535C193.688 57.127 194.027 57.5371 194.268 58.084C194.515 58.6243 194.639 59.2982 194.639 60.1055C194.639 60.8737 194.561 61.6224 194.404 62.3516C194.255 63.0742 194.033 63.748 193.74 64.373C193.447 64.9915 193.086 65.5384 192.656 66.0137C192.233 66.4824 191.748 66.8503 191.201 67.1172C190.654 67.3776 190.052 67.5078 189.395 67.5078C188.893 67.5078 188.46 67.4199 188.096 67.2441C187.738 67.0618 187.435 66.8242 187.188 66.5312C186.947 66.2383 186.755 65.9225 186.611 65.584H186.523C186.497 65.8249 186.455 66.1406 186.396 66.5312C186.344 66.9154 186.289 67.2376 186.23 67.498L185.254 72.0977H183.652ZM189.277 66.1602C189.733 66.1602 190.15 66.0462 190.527 65.8184C190.911 65.5905 191.253 65.2812 191.553 64.8906C191.859 64.4935 192.116 64.0345 192.324 63.5137C192.539 62.9928 192.702 62.4395 192.812 61.8535C192.923 61.2676 192.979 60.6719 192.979 60.0664C192.979 59.3112 192.826 58.7415 192.52 58.3574C192.22 57.9733 191.771 57.7812 191.172 57.7812C190.859 57.7812 190.544 57.8594 190.225 58.0156C189.906 58.1654 189.596 58.3802 189.297 58.6602C188.997 58.9336 188.717 59.2591 188.457 59.6367C188.197 60.0143 187.969 60.431 187.773 60.8867C187.585 61.3424 187.435 61.8242 187.324 62.332C187.214 62.8398 187.158 63.3607 187.158 63.8945C187.158 64.5781 187.331 65.1283 187.676 65.5449C188.027 65.9551 188.561 66.1602 189.277 66.1602ZM199.512 67.5078C198.932 67.5078 198.424 67.3678 197.988 67.0879C197.552 66.8079 197.214 66.3945 196.973 65.8477C196.732 65.3008 196.611 64.6335 196.611 63.8457C196.611 63.0579 196.693 62.2995 196.855 61.5703C197.025 60.8411 197.262 60.1641 197.568 59.5391C197.874 58.9141 198.242 58.3672 198.672 57.8984C199.108 57.4297 199.596 57.0651 200.137 56.8047C200.677 56.5443 201.26 56.4141 201.885 56.4141C202.367 56.4141 202.783 56.5052 203.135 56.6875C203.493 56.8698 203.789 57.1107 204.023 57.4102C204.264 57.7031 204.453 58.0156 204.59 58.3477H204.688L205.312 56.6094H206.553L204.287 67.3125H202.988L203.281 65.2422H203.203C202.91 65.6328 202.575 66.0007 202.197 66.3457C201.82 66.6908 201.406 66.9707 200.957 67.1855C200.508 67.4004 200.026 67.5078 199.512 67.5078ZM200.039 66.1602C200.54 66.1602 201.035 65.9779 201.523 65.6133C202.018 65.2422 202.461 64.7441 202.852 64.1191C203.249 63.4876 203.551 62.778 203.76 61.9902C203.864 61.6061 203.932 61.2546 203.965 60.9355C204.004 60.61 204.023 60.3073 204.023 60.0273C204.023 59.3568 203.844 58.8164 203.486 58.4062C203.135 57.9896 202.653 57.7812 202.041 57.7812C201.605 57.7812 201.195 57.8919 200.811 58.1133C200.426 58.3281 200.078 58.6309 199.766 59.0215C199.46 59.4056 199.196 59.8548 198.975 60.3691C198.753 60.877 198.581 61.4303 198.457 62.0293C198.34 62.6283 198.281 63.2435 198.281 63.875C198.281 64.6237 198.434 65.1934 198.74 65.584C199.046 65.9681 199.479 66.1602 200.039 66.1602ZM207.52 67.3125L209.795 56.6094H211.123L210.869 58.6797H210.967C211.24 58.3086 211.533 57.9505 211.846 57.6055C212.158 57.2539 212.513 56.9674 212.91 56.7461C213.314 56.5247 213.776 56.4141 214.297 56.4141C214.492 56.4141 214.691 56.4271 214.893 56.4531C215.094 56.4727 215.283 56.5085 215.459 56.5605L215.107 58.0156C214.932 57.9766 214.759 57.9473 214.59 57.9277C214.427 57.9082 214.258 57.8984 214.082 57.8984C213.587 57.8984 213.128 58.0286 212.705 58.2891C212.282 58.543 211.901 58.8848 211.562 59.3145C211.23 59.7441 210.947 60.2227 210.713 60.75C210.485 61.2773 210.312 61.8145 210.195 62.3613L209.15 67.3125H207.52ZM218.73 67.5078C218.151 67.5078 217.643 67.3678 217.207 67.0879C216.771 66.8079 216.432 66.3945 216.191 65.8477C215.951 65.3008 215.83 64.6335 215.83 63.8457C215.83 63.0579 215.911 62.2995 216.074 61.5703C216.243 60.8411 216.481 60.1641 216.787 59.5391C217.093 58.9141 217.461 58.3672 217.891 57.8984C218.327 57.4297 218.815 57.0651 219.355 56.8047C219.896 56.5443 220.479 56.4141 221.104 56.4141C221.585 56.4141 222.002 56.5052 222.354 56.6875C222.712 56.8698 223.008 57.1107 223.242 57.4102C223.483 57.7031 223.672 58.0156 223.809 58.3477H223.906L224.531 56.6094H225.771L223.506 67.3125H222.207L222.5 65.2422H222.422C222.129 65.6328 221.794 66.0007 221.416 66.3457C221.038 66.6908 220.625 66.9707 220.176 67.1855C219.727 67.4004 219.245 67.5078 218.73 67.5078ZM219.258 66.1602C219.759 66.1602 220.254 65.9779 220.742 65.6133C221.237 65.2422 221.68 64.7441 222.07 64.1191C222.467 63.4876 222.77 62.778 222.979 61.9902C223.083 61.6061 223.151 61.2546 223.184 60.9355C223.223 60.61 223.242 60.3073 223.242 60.0273C223.242 59.3568 223.063 58.8164 222.705 58.4062C222.354 57.9896 221.872 57.7812 221.26 57.7812C220.824 57.7812 220.413 57.8919 220.029 58.1133C219.645 58.3281 219.297 58.6309 218.984 59.0215C218.678 59.4056 218.415 59.8548 218.193 60.3691C217.972 60.877 217.799 61.4303 217.676 62.0293C217.559 62.6283 217.5 63.2435 217.5 63.875C217.5 64.6237 217.653 65.1934 217.959 65.584C218.265 65.9681 218.698 66.1602 219.258 66.1602ZM236.221 67.5078C235.42 67.5078 234.73 67.3483 234.15 67.0293C233.571 66.7038 233.125 66.2415 232.812 65.6426C232.507 65.0371 232.354 64.3145 232.354 63.4746C232.354 62.6087 232.477 61.7591 232.725 60.9258C232.979 60.0859 233.34 59.3275 233.809 58.6504C234.277 57.9668 234.84 57.4232 235.498 57.0195C236.162 56.6159 236.904 56.4141 237.725 56.4141C238.708 56.4141 239.453 56.6354 239.961 57.0781C240.469 57.5143 240.723 58.1165 240.723 58.8848C240.723 59.4251 240.596 59.9232 240.342 60.3789C240.094 60.8346 239.71 61.2318 239.189 61.5703C238.675 61.9023 238.021 62.1628 237.227 62.3516C236.439 62.5339 235.505 62.625 234.424 62.625H234.053C234.04 62.7422 234.027 62.8724 234.014 63.0156C234.007 63.1589 234.004 63.2923 234.004 63.416C234.004 64.2754 234.212 64.9492 234.629 65.4375C235.046 65.9193 235.671 66.1602 236.504 66.1602C237.018 66.1602 237.503 66.0885 237.959 65.9453C238.421 65.7956 238.903 65.6003 239.404 65.3594V66.7559C238.923 66.9772 238.438 67.1595 237.949 67.3027C237.461 67.4395 236.885 67.5078 236.221 67.5078ZM234.287 61.2969H234.521C235.355 61.2969 236.12 61.2253 236.816 61.082C237.513 60.9323 238.073 60.6914 238.496 60.3594C238.919 60.0208 239.131 59.5716 239.131 59.0117C239.131 58.6471 239.007 58.3477 238.76 58.1133C238.512 57.8789 238.135 57.7617 237.627 57.7617C237.178 57.7617 236.735 57.9017 236.299 58.1816C235.863 58.4551 235.465 58.8555 235.107 59.3828C234.756 59.9102 234.482 60.5482 234.287 61.2969ZM245.205 67.5078C244.619 67.5078 244.108 67.3711 243.672 67.0977C243.236 66.8242 242.897 66.4173 242.656 65.877C242.415 65.3301 242.295 64.653 242.295 63.8457C242.295 63.0775 242.373 62.332 242.529 61.6094C242.686 60.8802 242.91 60.2031 243.203 59.5781C243.503 58.9531 243.867 58.4062 244.297 57.9375C244.727 57.4622 245.215 57.0944 245.762 56.834C246.315 56.5671 246.921 56.4336 247.578 56.4336C248.079 56.4336 248.509 56.5247 248.867 56.707C249.225 56.8893 249.521 57.127 249.756 57.4199C249.997 57.7064 250.186 58.0156 250.322 58.3477H250.42C250.459 58.0482 250.498 57.7585 250.537 57.4785C250.576 57.1921 250.622 56.9023 250.674 56.6094C250.732 56.3164 250.798 56.0137 250.869 55.7012L251.621 52.1172H253.232L250.01 67.3125H248.672L248.936 65.2422H248.867C248.555 65.6458 248.213 66.0202 247.842 66.3652C247.477 66.7103 247.077 66.987 246.641 67.1953C246.204 67.4036 245.726 67.5078 245.205 67.5078ZM245.752 66.1602C246.058 66.1602 246.367 66.0853 246.68 65.9355C246.999 65.7858 247.308 65.5742 247.607 65.3008C247.907 65.0208 248.187 64.6921 248.447 64.3145C248.708 63.9368 248.936 63.5202 249.131 63.0645C249.333 62.6087 249.489 62.127 249.6 61.6191C249.71 61.1113 249.766 60.5872 249.766 60.0469C249.766 59.3568 249.6 58.8066 249.268 58.3965C248.936 57.9863 248.405 57.7812 247.676 57.7812C247.227 57.7812 246.81 57.8952 246.426 58.123C246.048 58.3509 245.706 58.6634 245.4 59.0605C245.094 59.4577 244.834 59.9167 244.619 60.4375C244.411 60.9518 244.248 61.5052 244.131 62.0977C244.02 62.6836 243.965 63.276 243.965 63.875C243.965 64.6237 244.115 65.1934 244.414 65.584C244.714 65.9681 245.16 66.1602 245.752 66.1602ZM253.457 67.3125L255.732 56.6094H257.363L255.088 67.3125H253.457ZM257.1 54.7344C256.839 54.7344 256.621 54.6595 256.445 54.5098C256.276 54.3535 256.191 54.1354 256.191 53.8555C256.191 53.6406 256.234 53.4388 256.318 53.25C256.41 53.0612 256.536 52.9115 256.699 52.8008C256.868 52.6836 257.074 52.625 257.314 52.625C257.601 52.625 257.816 52.6999 257.959 52.8496C258.102 52.9993 258.174 53.2077 258.174 53.4746C258.174 53.8587 258.063 54.1647 257.842 54.3926C257.62 54.6204 257.373 54.7344 257.1 54.7344ZM262.891 67.5078C262.096 67.5078 261.4 67.3581 260.801 67.0586C260.208 66.7526 259.746 66.3034 259.414 65.7109C259.089 65.1185 258.926 64.3828 258.926 63.5039C258.926 62.7422 259.007 62.0098 259.17 61.3066C259.339 60.6035 259.583 59.9557 259.902 59.3633C260.221 58.7708 260.609 58.2533 261.064 57.8105C261.52 57.3678 262.038 57.026 262.617 56.7852C263.203 56.5378 263.841 56.4141 264.531 56.4141C264.993 56.4141 265.452 56.4596 265.908 56.5508C266.37 56.6354 266.787 56.7591 267.158 56.9219L266.699 58.2891C266.426 58.1589 266.104 58.0417 265.732 57.9375C265.361 57.8333 264.964 57.7812 264.541 57.7812C263.949 57.7812 263.408 57.931 262.92 58.2305C262.438 58.5299 262.021 58.9466 261.67 59.4805C261.325 60.0078 261.058 60.6133 260.869 61.2969C260.68 61.9805 260.586 62.7096 260.586 63.4844C260.586 64.0378 260.684 64.5163 260.879 64.9199C261.074 65.3171 261.354 65.623 261.719 65.8379C262.09 66.0527 262.533 66.1602 263.047 66.1602C263.522 66.1602 263.968 66.0951 264.385 65.9648C264.808 65.8346 265.221 65.6784 265.625 65.4961V66.8828C265.267 67.0651 264.857 67.2148 264.395 67.332C263.939 67.4492 263.438 67.5078 262.891 67.5078ZM260.742 72.1172C260.566 72.1172 260.397 72.1042 260.234 72.0781C260.072 72.0586 259.935 72.0358 259.824 72.0098V71.0332C259.954 71.0592 260.088 71.0788 260.225 71.0918C260.361 71.1048 260.482 71.1113 260.586 71.1113C260.944 71.1113 261.247 71.069 261.494 70.9844C261.742 70.9062 261.93 70.7826 262.061 70.6133C262.191 70.4505 262.256 70.2454 262.256 69.998C262.256 69.7051 262.129 69.487 261.875 69.3438C261.628 69.2005 261.292 69.1061 260.869 69.0605L261.836 67.3125H262.881L262.295 68.4746C262.62 68.5592 262.917 68.7122 263.184 68.9336C263.457 69.1615 263.594 69.5163 263.594 69.998C263.594 70.4017 263.483 70.763 263.262 71.082C263.04 71.401 262.715 71.6517 262.285 71.834C261.862 72.0228 261.348 72.1172 260.742 72.1172ZM270.879 67.5078C270.299 67.5078 269.792 67.3678 269.355 67.0879C268.919 66.8079 268.581 66.3945 268.34 65.8477C268.099 65.3008 267.979 64.6335 267.979 63.8457C267.979 63.0579 268.06 62.2995 268.223 61.5703C268.392 60.8411 268.63 60.1641 268.936 59.5391C269.242 58.9141 269.609 58.3672 270.039 57.8984C270.475 57.4297 270.964 57.0651 271.504 56.8047C272.044 56.5443 272.627 56.4141 273.252 56.4141C273.734 56.4141 274.15 56.5052 274.502 56.6875C274.86 56.8698 275.156 57.1107 275.391 57.4102C275.632 57.7031 275.82 58.0156 275.957 58.3477H276.055L276.68 56.6094H277.92L275.654 67.3125H274.355L274.648 65.2422H274.57C274.277 65.6328 273.942 66.0007 273.564 66.3457C273.187 66.6908 272.773 66.9707 272.324 67.1855C271.875 67.4004 271.393 67.5078 270.879 67.5078ZM271.406 66.1602C271.908 66.1602 272.402 65.9779 272.891 65.6133C273.385 65.2422 273.828 64.7441 274.219 64.1191C274.616 63.4876 274.919 62.778 275.127 61.9902C275.231 61.6061 275.299 61.2546 275.332 60.9355C275.371 60.61 275.391 60.3073 275.391 60.0273C275.391 59.3568 275.212 58.8164 274.854 58.4062C274.502 57.9896 274.02 57.7812 273.408 57.7812C272.972 57.7812 272.562 57.8919 272.178 58.1133C271.794 58.3281 271.445 58.6309 271.133 59.0215C270.827 59.4056 270.563 59.8548 270.342 60.3691C270.12 60.877 269.948 61.4303 269.824 62.0293C269.707 62.6283 269.648 63.2435 269.648 63.875C269.648 64.6237 269.801 65.1934 270.107 65.584C270.413 65.9681 270.846 66.1602 271.406 66.1602ZM270.723 55.1641C270.84 54.6237 271.003 54.168 271.211 53.7969C271.419 53.4258 271.67 53.1458 271.963 52.957C272.262 52.7682 272.604 52.6738 272.988 52.6738C273.281 52.6738 273.555 52.7324 273.809 52.8496C274.069 52.9603 274.313 53.0905 274.541 53.2402C274.769 53.39 274.98 53.5234 275.176 53.6406C275.378 53.7513 275.57 53.8066 275.752 53.8066C276.038 53.8066 276.266 53.722 276.436 53.5527C276.605 53.377 276.771 53.0775 276.934 52.6543H277.939C277.796 53.1947 277.617 53.6504 277.402 54.0215C277.188 54.3926 276.934 54.6758 276.641 54.8711C276.348 55.0599 276.012 55.1543 275.635 55.1543C275.368 55.1543 275.114 55.099 274.873 54.9883C274.632 54.8711 274.398 54.7376 274.17 54.5879C273.949 54.4316 273.73 54.2982 273.516 54.1875C273.301 54.0703 273.083 54.0117 272.861 54.0117C272.581 54.0117 272.357 54.1061 272.188 54.2949C272.018 54.4772 271.859 54.7669 271.709 55.1641H270.723ZM283.252 67.4688C282.432 67.4688 281.725 67.3027 281.133 66.9707C280.54 66.6322 280.085 66.1569 279.766 65.5449C279.453 64.9264 279.297 64.1973 279.297 63.3574C279.297 62.6803 279.372 62.013 279.521 61.3555C279.671 60.6914 279.893 60.0664 280.186 59.4805C280.479 58.888 280.84 58.3672 281.27 57.918C281.706 57.4622 282.207 57.1074 282.773 56.8535C283.34 56.5931 283.971 56.4629 284.668 56.4629C285.501 56.4629 286.211 56.6322 286.797 56.9707C287.389 57.3027 287.842 57.778 288.154 58.3965C288.473 59.015 288.633 59.7474 288.633 60.5938C288.633 61.2578 288.558 61.9186 288.408 62.5762C288.265 63.2337 288.047 63.8587 287.754 64.4512C287.467 65.0371 287.106 65.5579 286.67 66.0137C286.24 66.4629 285.739 66.8177 285.166 67.0781C284.6 67.3385 283.962 67.4688 283.252 67.4688ZM283.35 66.1211C283.753 66.1211 284.137 66.0365 284.502 65.8672C284.867 65.6979 285.199 65.4538 285.498 65.1348C285.798 64.8092 286.055 64.4154 286.27 63.9531C286.491 63.4844 286.66 62.9538 286.777 62.3613C286.901 61.7689 286.963 61.1178 286.963 60.4082C286.963 59.985 286.888 59.5749 286.738 59.1777C286.589 58.7806 286.348 58.4551 286.016 58.2012C285.684 57.9408 285.241 57.8105 284.688 57.8105C284.232 57.8105 283.809 57.9049 283.418 58.0938C283.034 58.2826 282.689 58.5495 282.383 58.8945C282.077 59.2396 281.816 59.6465 281.602 60.1152C281.393 60.584 281.23 61.0983 281.113 61.6582C281.003 62.2181 280.947 62.8073 280.947 63.4258C280.947 64.2786 281.156 64.9427 281.572 65.418C281.989 65.8867 282.581 66.1211 283.35 66.1211ZM288.73 69.8906C288.978 69.3503 289.222 68.7904 289.463 68.2109C289.704 67.638 289.932 67.0749 290.146 66.5215C290.361 65.9681 290.553 65.457 290.723 64.9883H292.48L292.559 65.2129C292.344 65.6882 292.093 66.196 291.807 66.7363C291.527 67.2767 291.227 67.8171 290.908 68.3574C290.596 68.8978 290.283 69.4089 289.971 69.8906H288.73ZM3.96484 94.5078C3.17057 94.5078 2.47396 94.3581 1.875 94.0586C1.28255 93.7526 0.820312 93.3034 0.488281 92.7109C0.16276 92.1185 0 91.3828 0 90.5039C0 89.7422 0.0813802 89.0098 0.244141 88.3066C0.413411 87.6035 0.657552 86.9557 0.976562 86.3633C1.29557 85.7708 1.68294 85.2533 2.13867 84.8105C2.5944 84.3678 3.11198 84.026 3.69141 83.7852C4.27734 83.5378 4.91536 83.4141 5.60547 83.4141C6.06771 83.4141 6.52669 83.4596 6.98242 83.5508C7.44466 83.6354 7.86133 83.7591 8.23242 83.9219L7.77344 85.2891C7.5 85.1589 7.17773 85.0417 6.80664 84.9375C6.43555 84.8333 6.03841 84.7812 5.61523 84.7812C5.02279 84.7812 4.48242 84.931 3.99414 85.2305C3.51237 85.5299 3.0957 85.9466 2.74414 86.4805C2.39909 87.0078 2.13216 87.6133 1.94336 88.2969C1.75456 88.9805 1.66016 89.7096 1.66016 90.4844C1.66016 91.0378 1.75781 91.5163 1.95312 91.9199C2.14844 92.3171 2.42839 92.623 2.79297 92.8379C3.16406 93.0527 3.60677 93.1602 4.12109 93.1602C4.59635 93.1602 5.04232 93.0951 5.45898 92.9648C5.88216 92.8346 6.29557 92.6784 6.69922 92.4961V93.8828C6.34115 94.0651 5.93099 94.2148 5.46875 94.332C5.01302 94.4492 4.51172 94.5078 3.96484 94.5078ZM13.0176 94.4688C12.1973 94.4688 11.4909 94.3027 10.8984 93.9707C10.306 93.6322 9.85026 93.1569 9.53125 92.5449C9.21875 91.9264 9.0625 91.1973 9.0625 90.3574C9.0625 89.6803 9.13737 89.013 9.28711 88.3555C9.43685 87.6914 9.6582 87.0664 9.95117 86.4805C10.2441 85.888 10.6055 85.3672 11.0352 84.918C11.4714 84.4622 11.9727 84.1074 12.5391 83.8535C13.1055 83.5931 13.737 83.4629 14.4336 83.4629C15.2669 83.4629 15.9766 83.6322 16.5625 83.9707C17.1549 84.3027 17.6074 84.778 17.9199 85.3965C18.2389 86.015 18.3984 86.7474 18.3984 87.5938C18.3984 88.2578 18.3236 88.9186 18.1738 89.5762C18.0306 90.2337 17.8125 90.8587 17.5195 91.4512C17.2331 92.0371 16.8717 92.5579 16.4355 93.0137C16.0059 93.4629 15.5046 93.8177 14.9316 94.0781C14.3652 94.3385 13.7272 94.4688 13.0176 94.4688ZM13.1152 93.1211C13.5189 93.1211 13.903 93.0365 14.2676 92.8672C14.6322 92.6979 14.9642 92.4538 15.2637 92.1348C15.5632 91.8092 15.8203 91.4154 16.0352 90.9531C16.2565 90.4844 16.4258 89.9538 16.543 89.3613C16.6667 88.7689 16.7285 88.1178 16.7285 87.4082C16.7285 86.985 16.6536 86.5749 16.5039 86.1777C16.3542 85.7806 16.1133 85.4551 15.7812 85.2012C15.4492 84.9408 15.0065 84.8105 14.4531 84.8105C13.9974 84.8105 13.5742 84.9049 13.1836 85.0938C12.7995 85.2826 12.4544 85.5495 12.1484 85.8945C11.8424 86.2396 11.582 86.6465 11.3672 87.1152C11.1589 87.584 10.9961 88.0983 10.8789 88.6582C10.7682 89.2181 10.7129 89.8073 10.7129 90.4258C10.7129 91.2786 10.9212 91.9427 11.3379 92.418C11.7546 92.8867 12.347 93.1211 13.1152 93.1211ZM19.9219 94.3125L22.1973 83.6094H23.5254L23.2715 85.6797H23.3691C23.6426 85.3086 23.9355 84.9505 24.248 84.6055C24.5605 84.2539 24.9154 83.9674 25.3125 83.7461C25.7161 83.5247 26.1784 83.4141 26.6992 83.4141C26.8945 83.4141 27.0931 83.4271 27.2949 83.4531C27.4967 83.4727 27.6855 83.5085 27.8613 83.5605L27.5098 85.0156C27.334 84.9766 27.1615 84.9473 26.9922 84.9277C26.8294 84.9082 26.6602 84.8984 26.4844 84.8984C25.9896 84.8984 25.5306 85.0286 25.1074 85.2891C24.6842 85.543 24.3034 85.8848 23.9648 86.3145C23.6328 86.7441 23.3496 87.2227 23.1152 87.75C22.8874 88.2773 22.7148 88.8145 22.5977 89.3613L21.5527 94.3125H19.9219ZM32.1191 94.5078C31.3184 94.5078 30.6283 94.3483 30.0488 94.0293C29.4694 93.7038 29.0234 93.2415 28.7109 92.6426C28.4049 92.0371 28.252 91.3145 28.252 90.4746C28.252 89.6087 28.3757 88.7591 28.623 87.9258C28.877 87.0859 29.2383 86.3275 29.707 85.6504C30.1758 84.9668 30.7389 84.4232 31.3965 84.0195C32.0605 83.6159 32.8027 83.4141 33.623 83.4141C34.6061 83.4141 35.3516 83.6354 35.8594 84.0781C36.3672 84.5143 36.6211 85.1165 36.6211 85.8848C36.6211 86.4251 36.4941 86.9232 36.2402 87.3789C35.9928 87.8346 35.6087 88.2318 35.0879 88.5703C34.5736 88.9023 33.9193 89.1628 33.125 89.3516C32.3372 89.5339 31.403 89.625 30.3223 89.625H29.9512C29.9382 89.7422 29.9251 89.8724 29.9121 90.0156C29.9056 90.1589 29.9023 90.2923 29.9023 90.416C29.9023 91.2754 30.1107 91.9492 30.5273 92.4375C30.944 92.9193 31.569 93.1602 32.4023 93.1602C32.9167 93.1602 33.4017 93.0885 33.8574 92.9453C34.3197 92.7956 34.8014 92.6003 35.3027 92.3594V93.7559C34.821 93.9772 34.3359 94.1595 33.8477 94.3027C33.3594 94.4395 32.7832 94.5078 32.1191 94.5078ZM30.1855 88.2969H30.4199C31.2533 88.2969 32.0182 88.2253 32.7148 88.082C33.4115 87.9323 33.9714 87.6914 34.3945 87.3594C34.8177 87.0208 35.0293 86.5716 35.0293 86.0117C35.0293 85.6471 34.9056 85.3477 34.6582 85.1133C34.4108 84.8789 34.0332 84.7617 33.5254 84.7617C33.0762 84.7617 32.6335 84.9017 32.1973 85.1816C31.7611 85.4551 31.3639 85.8555 31.0059 86.3828C30.6543 86.9102 30.3809 87.5482 30.1855 88.2969ZM40.3418 94.5078C39.6908 94.5078 39.1178 94.4427 38.623 94.3125C38.1348 94.1823 37.7083 94.0195 37.3438 93.8242V92.3203C37.6888 92.5286 38.125 92.724 38.6523 92.9062C39.1862 93.0885 39.7331 93.1797 40.293 93.1797C40.8464 93.1797 41.3053 93.1048 41.6699 92.9551C42.041 92.8053 42.3177 92.6003 42.5 92.3398C42.6888 92.0729 42.7832 91.7637 42.7832 91.4121C42.7832 91.1322 42.7214 90.8913 42.5977 90.6895C42.4805 90.4811 42.2852 90.2793 42.0117 90.084C41.7448 89.8887 41.3867 89.6641 40.9375 89.4102C40.4362 89.1302 40.013 88.847 39.668 88.5605C39.3229 88.2741 39.0592 87.9616 38.877 87.623C38.7012 87.278 38.6133 86.8776 38.6133 86.4219C38.6133 85.8099 38.763 85.2793 39.0625 84.8301C39.362 84.3809 39.7819 84.0326 40.3223 83.7852C40.8691 83.5378 41.5072 83.4141 42.2363 83.4141C42.8809 83.4141 43.4766 83.4889 44.0234 83.6387C44.5703 83.7819 45.0423 83.9479 45.4395 84.1367L44.9121 85.4355C44.5736 85.2728 44.1862 85.123 43.75 84.9863C43.3138 84.8496 42.8092 84.7812 42.2363 84.7812C41.6243 84.7812 41.1361 84.9212 40.7715 85.2012C40.4134 85.4811 40.2344 85.8587 40.2344 86.334C40.2344 86.5814 40.2865 86.8027 40.3906 86.998C40.5013 87.1934 40.6901 87.3887 40.957 87.584C41.224 87.7728 41.5885 87.9941 42.0508 88.248C42.5 88.5085 42.9036 88.7754 43.2617 89.0488C43.6263 89.3158 43.9128 89.625 44.1211 89.9766C44.3359 90.3216 44.4434 90.748 44.4434 91.2559C44.4434 91.9525 44.2773 92.5449 43.9453 93.0332C43.6133 93.515 43.138 93.8828 42.5195 94.1367C41.9076 94.3841 41.1816 94.5078 40.3418 94.5078ZM45 96.8906C45.2474 96.3503 45.4915 95.7904 45.7324 95.2109C45.9733 94.638 46.2012 94.0749 46.416 93.5215C46.6309 92.9681 46.8229 92.457 46.9922 91.9883H48.75L48.8281 92.2129C48.6133 92.6882 48.3626 93.196 48.0762 93.7363C47.7962 94.2767 47.4967 94.8171 47.1777 95.3574C46.8652 95.8978 46.5527 96.4089 46.2402 96.8906H45ZM60.8691 94.5078C60.0684 94.5078 59.3783 94.3483 58.7988 94.0293C58.2194 93.7038 57.7734 93.2415 57.4609 92.6426C57.1549 92.0371 57.002 91.3145 57.002 90.4746C57.002 89.6087 57.1257 88.7591 57.373 87.9258C57.627 87.0859 57.9883 86.3275 58.457 85.6504C58.9258 84.9668 59.4889 84.4232 60.1465 84.0195C60.8105 83.6159 61.5527 83.4141 62.373 83.4141C63.3561 83.4141 64.1016 83.6354 64.6094 84.0781C65.1172 84.5143 65.3711 85.1165 65.3711 85.8848C65.3711 86.4251 65.2441 86.9232 64.9902 87.3789C64.7428 87.8346 64.3587 88.2318 63.8379 88.5703C63.3236 88.9023 62.6693 89.1628 61.875 89.3516C61.0872 89.5339 60.153 89.625 59.0723 89.625H58.7012C58.6882 89.7422 58.6751 89.8724 58.6621 90.0156C58.6556 90.1589 58.6523 90.2923 58.6523 90.416C58.6523 91.2754 58.8607 91.9492 59.2773 92.4375C59.694 92.9193 60.319 93.1602 61.1523 93.1602C61.6667 93.1602 62.1517 93.0885 62.6074 92.9453C63.0697 92.7956 63.5514 92.6003 64.0527 92.3594V93.7559C63.571 93.9772 63.0859 94.1595 62.5977 94.3027C62.1094 94.4395 61.5332 94.5078 60.8691 94.5078ZM58.9355 88.2969H59.1699C60.0033 88.2969 60.7682 88.2253 61.4648 88.082C62.1615 87.9323 62.7214 87.6914 63.1445 87.3594C63.5677 87.0208 63.7793 86.5716 63.7793 86.0117C63.7793 85.6471 63.6556 85.3477 63.4082 85.1133C63.1608 84.8789 62.7832 84.7617 62.2754 84.7617C61.8262 84.7617 61.3835 84.9017 60.9473 85.1816C60.5111 85.4551 60.1139 85.8555 59.7559 86.3828C59.4043 86.9102 59.1309 87.5482 58.9355 88.2969ZM64.9707 99.1172C64.7168 99.1172 64.4824 99.0977 64.2676 99.0586C64.0527 99.0195 63.8639 98.9707 63.7012 98.9121V97.5352C63.877 97.6003 64.056 97.6523 64.2383 97.6914C64.4206 97.737 64.6159 97.7598 64.8242 97.7598C65.306 97.7598 65.6803 97.5677 65.9473 97.1836C66.2142 96.7995 66.429 96.2428 66.5918 95.5137L68.8379 84.8496H66.9727L67.1094 84.1562L69.0918 83.5605L69.3262 82.5254C69.4759 81.8613 69.6549 81.3047 69.8633 80.8555C70.0781 80.3997 70.3288 80.0384 70.6152 79.7715C70.9017 79.498 71.2337 79.3027 71.6113 79.1855C71.9954 79.0684 72.4349 79.0098 72.9297 79.0098C73.2552 79.0098 73.5872 79.0488 73.9258 79.127C74.2708 79.1986 74.5508 79.2832 74.7656 79.3809L74.3457 80.6211C74.1504 80.5495 73.9421 80.4876 73.7207 80.4355C73.4993 80.377 73.2585 80.3477 72.998 80.3477C72.4447 80.3477 72.0085 80.5039 71.6895 80.8164C71.377 81.1224 71.1296 81.6953 70.9473 82.5352L70.7031 83.6094H73.0078L72.7734 84.8496H70.459L68.1738 95.6992C68.0176 96.4154 67.806 97.0273 67.5391 97.5352C67.2721 98.0495 66.9303 98.4401 66.5137 98.707C66.097 98.9805 65.5827 99.1172 64.9707 99.1172ZM77.0801 94.5078C76.2793 94.5078 75.5892 94.3483 75.0098 94.0293C74.4303 93.7038 73.9844 93.2415 73.6719 92.6426C73.3659 92.0371 73.2129 91.3145 73.2129 90.4746C73.2129 89.6087 73.3366 88.7591 73.584 87.9258C73.8379 87.0859 74.1992 86.3275 74.668 85.6504C75.1367 84.9668 75.6999 84.4232 76.3574 84.0195C77.0215 83.6159 77.7637 83.4141 78.584 83.4141C79.5671 83.4141 80.3125 83.6354 80.8203 84.0781C81.3281 84.5143 81.582 85.1165 81.582 85.8848C81.582 86.4251 81.4551 86.9232 81.2012 87.3789C80.9538 87.8346 80.5697 88.2318 80.0488 88.5703C79.5345 88.9023 78.8802 89.1628 78.0859 89.3516C77.2982 89.5339 76.3639 89.625 75.2832 89.625H74.9121C74.8991 89.7422 74.8861 89.8724 74.873 90.0156C74.8665 90.1589 74.8633 90.2923 74.8633 90.416C74.8633 91.2754 75.0716 91.9492 75.4883 92.4375C75.9049 92.9193 76.5299 93.1602 77.3633 93.1602C77.8776 93.1602 78.3626 93.0885 78.8184 92.9453C79.2806 92.7956 79.7624 92.6003 80.2637 92.3594V93.7559C79.7819 93.9772 79.2969 94.1595 78.8086 94.3027C78.3203 94.4395 77.7441 94.5078 77.0801 94.5078ZM75.1465 88.2969H75.3809C76.2142 88.2969 76.9792 88.2253 77.6758 88.082C78.3724 87.9323 78.9323 87.6914 79.3555 87.3594C79.7786 87.0208 79.9902 86.5716 79.9902 86.0117C79.9902 85.6471 79.8665 85.3477 79.6191 85.1133C79.3717 84.8789 78.9941 84.7617 78.4863 84.7617C78.0371 84.7617 77.5944 84.9017 77.1582 85.1816C76.722 85.4551 76.3249 85.8555 75.9668 86.3828C75.6152 86.9102 75.3418 87.5482 75.1465 88.2969ZM82.7539 94.3125L85.0293 83.6094H86.6602L84.3848 94.3125H82.7539ZM86.3965 81.7344C86.1361 81.7344 85.918 81.6595 85.7422 81.5098C85.5729 81.3535 85.4883 81.1354 85.4883 80.8555C85.4883 80.6406 85.5306 80.4388 85.6152 80.25C85.7064 80.0612 85.8333 79.9115 85.9961 79.8008C86.1654 79.6836 86.3704 79.625 86.6113 79.625C86.8978 79.625 87.1126 79.6999 87.2559 79.8496C87.3991 79.9993 87.4707 80.2077 87.4707 80.4746C87.4707 80.8587 87.36 81.1647 87.1387 81.3926C86.9173 81.6204 86.6699 81.7344 86.3965 81.7344ZM90.8594 94.5078C90.1497 94.5078 89.5573 94.3385 89.082 94C88.6133 93.6549 88.3789 93.0658 88.3789 92.2324C88.3789 92.0306 88.3919 91.8125 88.418 91.5781C88.444 91.3372 88.4863 91.0898 88.5449 90.8359L89.8047 84.8496H88.1543L88.3105 84.0977L90.0879 83.4141L91.2598 81.1484H92.2266L91.6895 83.6094H94.4434L94.1895 84.8496H91.4453L90.1758 90.8555C90.1302 91.0378 90.0879 91.2331 90.0488 91.4414C90.0163 91.6497 90 91.8483 90 92.0371C90 92.3626 90.0846 92.6361 90.2539 92.8574C90.4232 93.0723 90.7064 93.1797 91.1035 93.1797C91.3509 93.1797 91.5853 93.1569 91.8066 93.1113C92.0345 93.0658 92.2754 93.0007 92.5293 92.916V94.166C92.3665 94.2441 92.1191 94.319 91.7871 94.3906C91.4616 94.4688 91.1523 94.5078 90.8594 94.5078ZM98.7793 94.4688C97.959 94.4688 97.2526 94.3027 96.6602 93.9707C96.0677 93.6322 95.612 93.1569 95.293 92.5449C94.9805 91.9264 94.8242 91.1973 94.8242 90.3574C94.8242 89.6803 94.8991 89.013 95.0488 88.3555C95.1986 87.6914 95.4199 87.0664 95.7129 86.4805C96.0059 85.888 96.3672 85.3672 96.7969 84.918C97.2331 84.4622 97.7344 84.1074 98.3008 83.8535C98.8672 83.5931 99.4987 83.4629 100.195 83.4629C101.029 83.4629 101.738 83.6322 102.324 83.9707C102.917 84.3027 103.369 84.778 103.682 85.3965C104.001 86.015 104.16 86.7474 104.16 87.5938C104.16 88.2578 104.085 88.9186 103.936 89.5762C103.792 90.2337 103.574 90.8587 103.281 91.4512C102.995 92.0371 102.633 92.5579 102.197 93.0137C101.768 93.4629 101.266 93.8177 100.693 94.0781C100.127 94.3385 99.4889 94.4688 98.7793 94.4688ZM98.877 93.1211C99.2806 93.1211 99.6647 93.0365 100.029 92.8672C100.394 92.6979 100.726 92.4538 101.025 92.1348C101.325 91.8092 101.582 91.4154 101.797 90.9531C102.018 90.4844 102.188 89.9538 102.305 89.3613C102.428 88.7689 102.49 88.1178 102.49 87.4082C102.49 86.985 102.415 86.5749 102.266 86.1777C102.116 85.7806 101.875 85.4551 101.543 85.2012C101.211 84.9408 100.768 84.8105 100.215 84.8105C99.7591 84.8105 99.3359 84.9049 98.9453 85.0938C98.5612 85.2826 98.2161 85.5495 97.9102 85.8945C97.6042 86.2396 97.3438 86.6465 97.1289 87.1152C96.9206 87.584 96.7578 88.0983 96.6406 88.6582C96.5299 89.2181 96.4746 89.8073 96.4746 90.4258C96.4746 91.2786 96.6829 91.9427 97.0996 92.418C97.5163 92.8867 98.1087 93.1211 98.877 93.1211ZM108.232 94.5078C107.581 94.5078 107.008 94.4427 106.514 94.3125C106.025 94.1823 105.599 94.0195 105.234 93.8242V92.3203C105.579 92.5286 106.016 92.724 106.543 92.9062C107.077 93.0885 107.624 93.1797 108.184 93.1797C108.737 93.1797 109.196 93.1048 109.561 92.9551C109.932 92.8053 110.208 92.6003 110.391 92.3398C110.579 92.0729 110.674 91.7637 110.674 91.4121C110.674 91.1322 110.612 90.8913 110.488 90.6895C110.371 90.4811 110.176 90.2793 109.902 90.084C109.635 89.8887 109.277 89.6641 108.828 89.4102C108.327 89.1302 107.904 88.847 107.559 88.5605C107.214 88.2741 106.95 87.9616 106.768 87.623C106.592 87.278 106.504 86.8776 106.504 86.4219C106.504 85.8099 106.654 85.2793 106.953 84.8301C107.253 84.3809 107.673 84.0326 108.213 83.7852C108.76 83.5378 109.398 83.4141 110.127 83.4141C110.771 83.4141 111.367 83.4889 111.914 83.6387C112.461 83.7819 112.933 83.9479 113.33 84.1367L112.803 85.4355C112.464 85.2728 112.077 85.123 111.641 84.9863C111.204 84.8496 110.7 84.7812 110.127 84.7812C109.515 84.7812 109.027 84.9212 108.662 85.2012C108.304 85.4811 108.125 85.8587 108.125 86.334C108.125 86.5814 108.177 86.8027 108.281 86.998C108.392 87.1934 108.581 87.3887 108.848 87.584C109.115 87.7728 109.479 87.9941 109.941 88.248C110.391 88.5085 110.794 88.7754 111.152 89.0488C111.517 89.3158 111.803 89.625 112.012 89.9766C112.227 90.3216 112.334 90.748 112.334 91.2559C112.334 91.9525 112.168 92.5449 111.836 93.0332C111.504 93.515 111.029 93.8828 110.41 94.1367C109.798 94.3841 109.072 94.5078 108.232 94.5078ZM123.799 94.5078C122.998 94.5078 122.308 94.3483 121.729 94.0293C121.149 93.7038 120.703 93.2415 120.391 92.6426C120.085 92.0371 119.932 91.3145 119.932 90.4746C119.932 89.6087 120.055 88.7591 120.303 87.9258C120.557 87.0859 120.918 86.3275 121.387 85.6504C121.855 84.9668 122.419 84.4232 123.076 84.0195C123.74 83.6159 124.482 83.4141 125.303 83.4141C126.286 83.4141 127.031 83.6354 127.539 84.0781C128.047 84.5143 128.301 85.1165 128.301 85.8848C128.301 86.4251 128.174 86.9232 127.92 87.3789C127.673 87.8346 127.288 88.2318 126.768 88.5703C126.253 88.9023 125.599 89.1628 124.805 89.3516C124.017 89.5339 123.083 89.625 122.002 89.625H121.631C121.618 89.7422 121.605 89.8724 121.592 90.0156C121.585 90.1589 121.582 90.2923 121.582 90.416C121.582 91.2754 121.79 91.9492 122.207 92.4375C122.624 92.9193 123.249 93.1602 124.082 93.1602C124.596 93.1602 125.081 93.0885 125.537 92.9453C125.999 92.7956 126.481 92.6003 126.982 92.3594V93.7559C126.501 93.9772 126.016 94.1595 125.527 94.3027C125.039 94.4395 124.463 94.5078 123.799 94.5078ZM121.865 88.2969H122.1C122.933 88.2969 123.698 88.2253 124.395 88.082C125.091 87.9323 125.651 87.6914 126.074 87.3594C126.497 87.0208 126.709 86.5716 126.709 86.0117C126.709 85.6471 126.585 85.3477 126.338 85.1133C126.09 84.8789 125.713 84.7617 125.205 84.7617C124.756 84.7617 124.313 84.9017 123.877 85.1816C123.441 85.4551 123.044 85.8555 122.686 86.3828C122.334 86.9102 122.061 87.5482 121.865 88.2969ZM137.217 94.5078C136.566 94.5078 135.993 94.4427 135.498 94.3125C135.01 94.1823 134.583 94.0195 134.219 93.8242V92.3203C134.564 92.5286 135 92.724 135.527 92.9062C136.061 93.0885 136.608 93.1797 137.168 93.1797C137.721 93.1797 138.18 93.1048 138.545 92.9551C138.916 92.8053 139.193 92.6003 139.375 92.3398C139.564 92.0729 139.658 91.7637 139.658 91.4121C139.658 91.1322 139.596 90.8913 139.473 90.6895C139.355 90.4811 139.16 90.2793 138.887 90.084C138.62 89.8887 138.262 89.6641 137.812 89.4102C137.311 89.1302 136.888 88.847 136.543 88.5605C136.198 88.2741 135.934 87.9616 135.752 87.623C135.576 87.278 135.488 86.8776 135.488 86.4219C135.488 85.8099 135.638 85.2793 135.938 84.8301C136.237 84.3809 136.657 84.0326 137.197 83.7852C137.744 83.5378 138.382 83.4141 139.111 83.4141C139.756 83.4141 140.352 83.4889 140.898 83.6387C141.445 83.7819 141.917 83.9479 142.314 84.1367L141.787 85.4355C141.449 85.2728 141.061 85.123 140.625 84.9863C140.189 84.8496 139.684 84.7812 139.111 84.7812C138.499 84.7812 138.011 84.9212 137.646 85.2012C137.288 85.4811 137.109 85.8587 137.109 86.334C137.109 86.5814 137.161 86.8027 137.266 86.998C137.376 87.1934 137.565 87.3887 137.832 87.584C138.099 87.7728 138.464 87.9941 138.926 88.248C139.375 88.5085 139.779 88.7754 140.137 89.0488C140.501 89.3158 140.788 89.625 140.996 89.9766C141.211 90.3216 141.318 90.748 141.318 91.2559C141.318 91.9525 141.152 92.5449 140.82 93.0332C140.488 93.515 140.013 93.8828 139.395 94.1367C138.783 94.3841 138.057 94.5078 137.217 94.5078ZM147.666 94.4688C146.846 94.4688 146.139 94.3027 145.547 93.9707C144.954 93.6322 144.499 93.1569 144.18 92.5449C143.867 91.9264 143.711 91.1973 143.711 90.3574C143.711 89.6803 143.786 89.013 143.936 88.3555C144.085 87.6914 144.307 87.0664 144.6 86.4805C144.893 85.888 145.254 85.3672 145.684 84.918C146.12 84.4622 146.621 84.1074 147.188 83.8535C147.754 83.5931 148.385 83.4629 149.082 83.4629C149.915 83.4629 150.625 83.6322 151.211 83.9707C151.803 84.3027 152.256 84.778 152.568 85.3965C152.887 86.015 153.047 86.7474 153.047 87.5938C153.047 88.2578 152.972 88.9186 152.822 89.5762C152.679 90.2337 152.461 90.8587 152.168 91.4512C151.882 92.0371 151.52 92.5579 151.084 93.0137C150.654 93.4629 150.153 93.8177 149.58 94.0781C149.014 94.3385 148.376 94.4688 147.666 94.4688ZM147.764 93.1211C148.167 93.1211 148.551 93.0365 148.916 92.8672C149.281 92.6979 149.613 92.4538 149.912 92.1348C150.212 91.8092 150.469 91.4154 150.684 90.9531C150.905 90.4844 151.074 89.9538 151.191 89.3613C151.315 88.7689 151.377 88.1178 151.377 87.4082C151.377 86.985 151.302 86.5749 151.152 86.1777C151.003 85.7806 150.762 85.4551 150.43 85.2012C150.098 84.9408 149.655 84.8105 149.102 84.8105C148.646 84.8105 148.223 84.9049 147.832 85.0938C147.448 85.2826 147.103 85.5495 146.797 85.8945C146.491 86.2396 146.23 86.6465 146.016 87.1152C145.807 87.584 145.645 88.0983 145.527 88.6582C145.417 89.2181 145.361 89.8073 145.361 90.4258C145.361 91.2786 145.57 91.9427 145.986 92.418C146.403 92.8867 146.995 93.1211 147.764 93.1211ZM154.502 94.3125L156.797 83.5605H158.232L157.979 85.6211H157.998C158.245 85.2826 158.542 84.9408 158.887 84.5957C159.238 84.2441 159.645 83.9512 160.107 83.7168C160.576 83.4759 161.107 83.3555 161.699 83.3555C162.272 83.3555 162.764 83.4629 163.174 83.6777C163.584 83.8861 163.9 84.1921 164.121 84.5957C164.342 84.9928 164.453 85.4746 164.453 86.041C164.453 86.3405 164.43 86.6432 164.385 86.9492C164.339 87.2552 164.29 87.5286 164.238 87.7695L162.812 94.3125H161.084L162.529 87.5547C162.588 87.2617 162.633 87.0111 162.666 86.8027C162.705 86.5944 162.725 86.3991 162.725 86.2168C162.725 85.7611 162.601 85.416 162.354 85.1816C162.106 84.9473 161.742 84.8301 161.26 84.8301C160.785 84.8301 160.283 84.9928 159.756 85.3184C159.229 85.6439 158.74 86.1582 158.291 86.8613C157.842 87.5579 157.493 88.4694 157.246 89.5957L156.24 94.3125H154.502ZM168.643 94.5078C167.992 94.5078 167.419 94.4427 166.924 94.3125C166.436 94.1823 166.009 94.0195 165.645 93.8242V92.3203C165.99 92.5286 166.426 92.724 166.953 92.9062C167.487 93.0885 168.034 93.1797 168.594 93.1797C169.147 93.1797 169.606 93.1048 169.971 92.9551C170.342 92.8053 170.618 92.6003 170.801 92.3398C170.99 92.0729 171.084 91.7637 171.084 91.4121C171.084 91.1322 171.022 90.8913 170.898 90.6895C170.781 90.4811 170.586 90.2793 170.312 90.084C170.046 89.8887 169.688 89.6641 169.238 89.4102C168.737 89.1302 168.314 88.847 167.969 88.5605C167.624 88.2741 167.36 87.9616 167.178 87.623C167.002 87.278 166.914 86.8776 166.914 86.4219C166.914 85.8099 167.064 85.2793 167.363 84.8301C167.663 84.3809 168.083 84.0326 168.623 83.7852C169.17 83.5378 169.808 83.4141 170.537 83.4141C171.182 83.4141 171.777 83.4889 172.324 83.6387C172.871 83.7819 173.343 83.9479 173.74 84.1367L173.213 85.4355C172.874 85.2728 172.487 85.123 172.051 84.9863C171.615 84.8496 171.11 84.7812 170.537 84.7812C169.925 84.7812 169.437 84.9212 169.072 85.2012C168.714 85.4811 168.535 85.8587 168.535 86.334C168.535 86.5814 168.587 86.8027 168.691 86.998C168.802 87.1934 168.991 87.3887 169.258 87.584C169.525 87.7728 169.889 87.9941 170.352 88.248C170.801 88.5085 171.204 88.7754 171.562 89.0488C171.927 89.3158 172.214 89.625 172.422 89.9766C172.637 90.3216 172.744 90.748 172.744 91.2559C172.744 91.9525 172.578 92.5449 172.246 93.0332C171.914 93.515 171.439 93.8828 170.82 94.1367C170.208 94.3841 169.482 94.5078 168.643 94.5078ZM184.209 94.5078C183.408 94.5078 182.718 94.3483 182.139 94.0293C181.559 93.7038 181.113 93.2415 180.801 92.6426C180.495 92.0371 180.342 91.3145 180.342 90.4746C180.342 89.6087 180.465 88.7591 180.713 87.9258C180.967 87.0859 181.328 86.3275 181.797 85.6504C182.266 84.9668 182.829 84.4232 183.486 84.0195C184.15 83.6159 184.893 83.4141 185.713 83.4141C186.696 83.4141 187.441 83.6354 187.949 84.0781C188.457 84.5143 188.711 85.1165 188.711 85.8848C188.711 86.4251 188.584 86.9232 188.33 87.3789C188.083 87.8346 187.699 88.2318 187.178 88.5703C186.663 88.9023 186.009 89.1628 185.215 89.3516C184.427 89.5339 183.493 89.625 182.412 89.625H182.041C182.028 89.7422 182.015 89.8724 182.002 90.0156C181.995 90.1589 181.992 90.2923 181.992 90.416C181.992 91.2754 182.201 91.9492 182.617 92.4375C183.034 92.9193 183.659 93.1602 184.492 93.1602C185.007 93.1602 185.492 93.0885 185.947 92.9453C186.41 92.7956 186.891 92.6003 187.393 92.3594V93.7559C186.911 93.9772 186.426 94.1595 185.938 94.3027C185.449 94.4395 184.873 94.5078 184.209 94.5078ZM182.275 88.2969H182.51C183.343 88.2969 184.108 88.2253 184.805 88.082C185.501 87.9323 186.061 87.6914 186.484 87.3594C186.908 87.0208 187.119 86.5716 187.119 86.0117C187.119 85.6471 186.995 85.3477 186.748 85.1133C186.501 84.8789 186.123 84.7617 185.615 84.7617C185.166 84.7617 184.723 84.9017 184.287 85.1816C183.851 85.4551 183.454 85.8555 183.096 86.3828C182.744 86.9102 182.471 87.5482 182.275 88.2969ZM189.883 94.3125L192.158 83.6094H193.486L193.232 85.6797H193.33C193.564 85.3411 193.848 84.9993 194.18 84.6543C194.512 84.3027 194.896 84.0098 195.332 83.7754C195.775 83.5345 196.276 83.4141 196.836 83.4141C197.591 83.4141 198.164 83.6322 198.555 84.0684C198.945 84.5046 199.173 85.1003 199.238 85.8555H199.307C199.567 85.4583 199.88 85.0742 200.244 84.7031C200.609 84.3255 201.022 84.0163 201.484 83.7754C201.953 83.5345 202.467 83.4141 203.027 83.4141C203.854 83.4141 204.492 83.6387 204.941 84.0879C205.391 84.5371 205.615 85.1882 205.615 86.041C205.615 86.347 205.596 86.6367 205.557 86.9102C205.524 87.1836 205.472 87.4635 205.4 87.75L204.014 94.3125H202.373L203.818 87.5742C203.877 87.2812 203.919 87.0273 203.945 86.8125C203.978 86.5977 203.994 86.3926 203.994 86.1973C203.994 85.7611 203.877 85.416 203.643 85.1621C203.408 84.9082 203.047 84.7812 202.559 84.7812C202.214 84.7812 201.855 84.8757 201.484 85.0645C201.113 85.2533 200.752 85.5397 200.4 85.9238C200.055 86.3014 199.743 86.7799 199.463 87.3594C199.183 87.9388 198.958 88.6191 198.789 89.4004L197.744 94.3125H196.123L197.549 87.6035C197.607 87.304 197.65 87.0469 197.676 86.832C197.708 86.6107 197.725 86.4219 197.725 86.2656C197.725 85.8034 197.617 85.4421 197.402 85.1816C197.188 84.9147 196.836 84.7812 196.348 84.7812C196.003 84.7812 195.641 84.8724 195.264 85.0547C194.893 85.237 194.531 85.5234 194.18 85.9141C193.828 86.3047 193.506 86.8027 193.213 87.4082C192.92 88.0137 192.686 88.7428 192.51 89.5957L191.514 94.3125H189.883ZM215.732 94.5078C215.192 94.5078 214.72 94.4069 214.316 94.2051C213.913 94.0033 213.6 93.707 213.379 93.3164C213.164 92.9193 213.057 92.4342 213.057 91.8613C213.057 91.5749 213.076 91.2982 213.115 91.0312C213.161 90.7578 213.21 90.4746 213.262 90.1816L214.678 83.6094H216.318L214.863 90.3672C214.811 90.6471 214.769 90.8978 214.736 91.1191C214.71 91.334 214.697 91.526 214.697 91.6953C214.697 92.1576 214.814 92.5189 215.049 92.7793C215.29 93.0332 215.671 93.1602 216.191 93.1602C216.68 93.1602 217.191 92.9941 217.725 92.6621C218.265 92.3301 218.763 91.8092 219.219 91.0996C219.681 90.3835 220.033 89.4557 220.273 88.3164L221.27 83.6094H222.871L220.605 94.3125H219.268L219.531 92.2422H219.443C219.196 92.5807 218.896 92.9258 218.545 93.2773C218.193 93.6224 217.786 93.9154 217.324 94.1562C216.862 94.3906 216.331 94.5078 215.732 94.5078ZM224.043 94.3125L226.318 83.6094H227.646L227.393 85.6797H227.49C227.725 85.3411 228.008 84.9993 228.34 84.6543C228.672 84.3027 229.056 84.0098 229.492 83.7754C229.935 83.5345 230.436 83.4141 230.996 83.4141C231.751 83.4141 232.324 83.6322 232.715 84.0684C233.105 84.5046 233.333 85.1003 233.398 85.8555H233.467C233.727 85.4583 234.04 85.0742 234.404 84.7031C234.769 84.3255 235.182 84.0163 235.645 83.7754C236.113 83.5345 236.628 83.4141 237.188 83.4141C238.014 83.4141 238.652 83.6387 239.102 84.0879C239.551 84.5371 239.775 85.1882 239.775 86.041C239.775 86.347 239.756 86.6367 239.717 86.9102C239.684 87.1836 239.632 87.4635 239.561 87.75L238.174 94.3125H236.533L237.979 87.5742C238.037 87.2812 238.079 87.0273 238.105 86.8125C238.138 86.5977 238.154 86.3926 238.154 86.1973C238.154 85.7611 238.037 85.416 237.803 85.1621C237.568 84.9082 237.207 84.7812 236.719 84.7812C236.374 84.7812 236.016 84.8757 235.645 85.0645C235.273 85.2533 234.912 85.5397 234.561 85.9238C234.215 86.3014 233.903 86.7799 233.623 87.3594C233.343 87.9388 233.118 88.6191 232.949 89.4004L231.904 94.3125H230.283L231.709 87.6035C231.768 87.304 231.81 87.0469 231.836 86.832C231.868 86.6107 231.885 86.4219 231.885 86.2656C231.885 85.8034 231.777 85.4421 231.562 85.1816C231.348 84.9147 230.996 84.7812 230.508 84.7812C230.163 84.7812 229.801 84.8724 229.424 85.0547C229.053 85.237 228.691 85.5234 228.34 85.9141C227.988 86.3047 227.666 86.8027 227.373 87.4082C227.08 88.0137 226.846 88.7428 226.67 89.5957L225.674 94.3125H224.043ZM249.893 94.5078C249.352 94.5078 248.88 94.4069 248.477 94.2051C248.073 94.0033 247.76 93.707 247.539 93.3164C247.324 92.9193 247.217 92.4342 247.217 91.8613C247.217 91.5749 247.236 91.2982 247.275 91.0312C247.321 90.7578 247.37 90.4746 247.422 90.1816L248.838 83.6094H250.479L249.023 90.3672C248.971 90.6471 248.929 90.8978 248.896 91.1191C248.87 91.334 248.857 91.526 248.857 91.6953C248.857 92.1576 248.975 92.5189 249.209 92.7793C249.45 93.0332 249.831 93.1602 250.352 93.1602C250.84 93.1602 251.351 92.9941 251.885 92.6621C252.425 92.3301 252.923 91.8092 253.379 91.0996C253.841 90.3835 254.193 89.4557 254.434 88.3164L255.43 83.6094H257.031L254.766 94.3125H253.428L253.691 92.2422H253.604C253.356 92.5807 253.057 92.9258 252.705 93.2773C252.354 93.6224 251.947 93.9154 251.484 94.1562C251.022 94.3906 250.492 94.5078 249.893 94.5078ZM252.285 82.1934V81.9492C252.526 81.6888 252.786 81.3861 253.066 81.041C253.346 80.696 253.62 80.3444 253.887 79.9863C254.16 79.6217 254.391 79.2897 254.58 78.9902H256.426V79.1855C256.283 79.3678 256.087 79.5924 255.84 79.8594C255.599 80.1198 255.329 80.3965 255.029 80.6895C254.736 80.9759 254.44 81.2526 254.141 81.5195C253.841 81.7799 253.561 82.0046 253.301 82.1934H252.285ZM258.135 94.3125L260.43 83.5605H261.865L261.611 85.6211H261.631C261.878 85.2826 262.174 84.9408 262.52 84.5957C262.871 84.2441 263.278 83.9512 263.74 83.7168C264.209 83.4759 264.74 83.3555 265.332 83.3555C265.905 83.3555 266.396 83.4629 266.807 83.6777C267.217 83.8861 267.533 84.1921 267.754 84.5957C267.975 84.9928 268.086 85.4746 268.086 86.041C268.086 86.3405 268.063 86.6432 268.018 86.9492C267.972 87.2552 267.923 87.5286 267.871 87.7695L266.445 94.3125H264.717L266.162 87.5547C266.221 87.2617 266.266 87.0111 266.299 86.8027C266.338 86.5944 266.357 86.3991 266.357 86.2168C266.357 85.7611 266.234 85.416 265.986 85.1816C265.739 84.9473 265.374 84.8301 264.893 84.8301C264.417 84.8301 263.916 84.9928 263.389 85.3184C262.861 85.6439 262.373 86.1582 261.924 86.8613C261.475 87.5579 261.126 88.4694 260.879 89.5957L259.873 94.3125H258.135ZM269.727 94.3125L272.002 83.6094H273.633L271.357 94.3125H269.727ZM273.369 81.7344C273.109 81.7344 272.891 81.6595 272.715 81.5098C272.546 81.3535 272.461 81.1354 272.461 80.8555C272.461 80.6406 272.503 80.4388 272.588 80.25C272.679 80.0612 272.806 79.9115 272.969 79.8008C273.138 79.6836 273.343 79.625 273.584 79.625C273.87 79.625 274.085 79.6999 274.229 79.8496C274.372 79.9993 274.443 80.2077 274.443 80.4746C274.443 80.8587 274.333 81.1647 274.111 81.3926C273.89 81.6204 273.643 81.7344 273.369 81.7344ZM279.16 94.5078C278.366 94.5078 277.669 94.3581 277.07 94.0586C276.478 93.7526 276.016 93.3034 275.684 92.7109C275.358 92.1185 275.195 91.3828 275.195 90.5039C275.195 89.7422 275.277 89.0098 275.439 88.3066C275.609 87.6035 275.853 86.9557 276.172 86.3633C276.491 85.7708 276.878 85.2533 277.334 84.8105C277.79 84.3678 278.307 84.026 278.887 83.7852C279.473 83.5378 280.111 83.4141 280.801 83.4141C281.263 83.4141 281.722 83.4596 282.178 83.5508C282.64 83.6354 283.057 83.7591 283.428 83.9219L282.969 85.2891C282.695 85.1589 282.373 85.0417 282.002 84.9375C281.631 84.8333 281.234 84.7812 280.811 84.7812C280.218 84.7812 279.678 84.931 279.189 85.2305C278.708 85.5299 278.291 85.9466 277.939 86.4805C277.594 87.0078 277.327 87.6133 277.139 88.2969C276.95 88.9805 276.855 89.7096 276.855 90.4844C276.855 91.0378 276.953 91.5163 277.148 91.9199C277.344 92.3171 277.624 92.623 277.988 92.8379C278.359 93.0527 278.802 93.1602 279.316 93.1602C279.792 93.1602 280.238 93.0951 280.654 92.9648C281.077 92.8346 281.491 92.6784 281.895 92.4961V93.8828C281.536 94.0651 281.126 94.2148 280.664 94.332C280.208 94.4492 279.707 94.5078 279.16 94.5078ZM288.213 94.4688C287.393 94.4688 286.686 94.3027 286.094 93.9707C285.501 93.6322 285.046 93.1569 284.727 92.5449C284.414 91.9264 284.258 91.1973 284.258 90.3574C284.258 89.6803 284.333 89.013 284.482 88.3555C284.632 87.6914 284.854 87.0664 285.146 86.4805C285.439 85.888 285.801 85.3672 286.23 84.918C286.667 84.4622 287.168 84.1074 287.734 83.8535C288.301 83.5931 288.932 83.4629 289.629 83.4629C290.462 83.4629 291.172 83.6322 291.758 83.9707C292.35 84.3027 292.803 84.778 293.115 85.3965C293.434 86.015 293.594 86.7474 293.594 87.5938C293.594 88.2578 293.519 88.9186 293.369 89.5762C293.226 90.2337 293.008 90.8587 292.715 91.4512C292.428 92.0371 292.067 92.5579 291.631 93.0137C291.201 93.4629 290.7 93.8177 290.127 94.0781C289.561 94.3385 288.923 94.4688 288.213 94.4688ZM288.311 93.1211C288.714 93.1211 289.098 93.0365 289.463 92.8672C289.827 92.6979 290.16 92.4538 290.459 92.1348C290.758 91.8092 291.016 91.4154 291.23 90.9531C291.452 90.4844 291.621 89.9538 291.738 89.3613C291.862 88.7689 291.924 88.1178 291.924 87.4082C291.924 86.985 291.849 86.5749 291.699 86.1777C291.549 85.7806 291.309 85.4551 290.977 85.2012C290.645 84.9408 290.202 84.8105 289.648 84.8105C289.193 84.8105 288.77 84.9049 288.379 85.0938C287.995 85.2826 287.65 85.5495 287.344 85.8945C287.038 86.2396 286.777 86.6465 286.562 87.1152C286.354 87.584 286.191 88.0983 286.074 88.6582C285.964 89.2181 285.908 89.8073 285.908 90.4258C285.908 91.2786 286.117 91.9427 286.533 92.418C286.95 92.8867 287.542 93.1211 288.311 93.1211ZM212.91 121.508C212.331 121.508 211.823 121.368 211.387 121.088C210.951 120.808 210.612 120.395 210.371 119.848C210.13 119.301 210.01 118.633 210.01 117.846C210.01 117.058 210.091 116.299 210.254 115.57C210.423 114.841 210.661 114.164 210.967 113.539C211.273 112.914 211.641 112.367 212.07 111.898C212.507 111.43 212.995 111.065 213.535 110.805C214.076 110.544 214.658 110.414 215.283 110.414C215.765 110.414 216.182 110.505 216.533 110.688C216.891 110.87 217.188 111.111 217.422 111.41C217.663 111.703 217.852 112.016 217.988 112.348H218.086L218.711 110.609H219.951L217.686 121.312H216.387L216.68 119.242H216.602C216.309 119.633 215.973 120.001 215.596 120.346C215.218 120.691 214.805 120.971 214.355 121.186C213.906 121.4 213.424 121.508 212.91 121.508ZM213.438 120.16C213.939 120.16 214.434 119.978 214.922 119.613C215.417 119.242 215.859 118.744 216.25 118.119C216.647 117.488 216.95 116.778 217.158 115.99C217.262 115.606 217.331 115.255 217.363 114.936C217.402 114.61 217.422 114.307 217.422 114.027C217.422 113.357 217.243 112.816 216.885 112.406C216.533 111.99 216.051 111.781 215.439 111.781C215.003 111.781 214.593 111.892 214.209 112.113C213.825 112.328 213.477 112.631 213.164 113.021C212.858 113.406 212.594 113.855 212.373 114.369C212.152 114.877 211.979 115.43 211.855 116.029C211.738 116.628 211.68 117.243 211.68 117.875C211.68 118.624 211.833 119.193 212.139 119.584C212.445 119.968 212.878 120.16 213.438 120.16ZM219.922 126.098L223.193 110.609H224.521L224.258 112.689H224.326C224.632 112.286 224.967 111.915 225.332 111.576C225.703 111.231 226.107 110.954 226.543 110.746C226.986 110.538 227.467 110.434 227.988 110.434C228.574 110.434 229.085 110.574 229.521 110.854C229.958 111.127 230.296 111.537 230.537 112.084C230.785 112.624 230.908 113.298 230.908 114.105C230.908 114.874 230.83 115.622 230.674 116.352C230.524 117.074 230.303 117.748 230.01 118.373C229.717 118.992 229.355 119.538 228.926 120.014C228.503 120.482 228.018 120.85 227.471 121.117C226.924 121.378 226.322 121.508 225.664 121.508C225.163 121.508 224.73 121.42 224.365 121.244C224.007 121.062 223.704 120.824 223.457 120.531C223.216 120.238 223.024 119.923 222.881 119.584H222.793C222.767 119.825 222.725 120.141 222.666 120.531C222.614 120.915 222.559 121.238 222.5 121.498L221.523 126.098H219.922ZM225.547 120.16C226.003 120.16 226.419 120.046 226.797 119.818C227.181 119.59 227.523 119.281 227.822 118.891C228.128 118.493 228.385 118.035 228.594 117.514C228.809 116.993 228.971 116.439 229.082 115.854C229.193 115.268 229.248 114.672 229.248 114.066C229.248 113.311 229.095 112.742 228.789 112.357C228.49 111.973 228.04 111.781 227.441 111.781C227.129 111.781 226.813 111.859 226.494 112.016C226.175 112.165 225.866 112.38 225.566 112.66C225.267 112.934 224.987 113.259 224.727 113.637C224.466 114.014 224.238 114.431 224.043 114.887C223.854 115.342 223.704 115.824 223.594 116.332C223.483 116.84 223.428 117.361 223.428 117.895C223.428 118.578 223.6 119.128 223.945 119.545C224.297 119.955 224.831 120.16 225.547 120.16ZM232.461 121.312L235.703 106.117H237.324L234.092 121.312H232.461ZM237.539 121.312L239.814 110.609H241.445L239.17 121.312H237.539ZM241.182 108.734C240.921 108.734 240.703 108.66 240.527 108.51C240.358 108.354 240.273 108.135 240.273 107.855C240.273 107.641 240.316 107.439 240.4 107.25C240.492 107.061 240.618 106.911 240.781 106.801C240.951 106.684 241.156 106.625 241.396 106.625C241.683 106.625 241.898 106.7 242.041 106.85C242.184 106.999 242.256 107.208 242.256 107.475C242.256 107.859 242.145 108.165 241.924 108.393C241.702 108.62 241.455 108.734 241.182 108.734ZM246.973 121.508C246.178 121.508 245.482 121.358 244.883 121.059C244.29 120.753 243.828 120.303 243.496 119.711C243.171 119.118 243.008 118.383 243.008 117.504C243.008 116.742 243.089 116.01 243.252 115.307C243.421 114.604 243.665 113.956 243.984 113.363C244.303 112.771 244.691 112.253 245.146 111.811C245.602 111.368 246.12 111.026 246.699 110.785C247.285 110.538 247.923 110.414 248.613 110.414C249.076 110.414 249.535 110.46 249.99 110.551C250.452 110.635 250.869 110.759 251.24 110.922L250.781 112.289C250.508 112.159 250.186 112.042 249.814 111.938C249.443 111.833 249.046 111.781 248.623 111.781C248.031 111.781 247.49 111.931 247.002 112.23C246.52 112.53 246.104 112.947 245.752 113.48C245.407 114.008 245.14 114.613 244.951 115.297C244.762 115.98 244.668 116.71 244.668 117.484C244.668 118.038 244.766 118.516 244.961 118.92C245.156 119.317 245.436 119.623 245.801 119.838C246.172 120.053 246.615 120.16 247.129 120.16C247.604 120.16 248.05 120.095 248.467 119.965C248.89 119.835 249.303 119.678 249.707 119.496V120.883C249.349 121.065 248.939 121.215 248.477 121.332C248.021 121.449 247.52 121.508 246.973 121.508ZM254.961 121.508C254.382 121.508 253.874 121.368 253.438 121.088C253.001 120.808 252.663 120.395 252.422 119.848C252.181 119.301 252.061 118.633 252.061 117.846C252.061 117.058 252.142 116.299 252.305 115.57C252.474 114.841 252.712 114.164 253.018 113.539C253.324 112.914 253.691 112.367 254.121 111.898C254.557 111.43 255.046 111.065 255.586 110.805C256.126 110.544 256.709 110.414 257.334 110.414C257.816 110.414 258.232 110.505 258.584 110.688C258.942 110.87 259.238 111.111 259.473 111.41C259.714 111.703 259.902 112.016 260.039 112.348H260.137L260.762 110.609H262.002L259.736 121.312H258.438L258.73 119.242H258.652C258.359 119.633 258.024 120.001 257.646 120.346C257.269 120.691 256.855 120.971 256.406 121.186C255.957 121.4 255.475 121.508 254.961 121.508ZM255.488 120.16C255.99 120.16 256.484 119.978 256.973 119.613C257.467 119.242 257.91 118.744 258.301 118.119C258.698 117.488 259.001 116.778 259.209 115.99C259.313 115.606 259.382 115.255 259.414 114.936C259.453 114.61 259.473 114.307 259.473 114.027C259.473 113.357 259.294 112.816 258.936 112.406C258.584 111.99 258.102 111.781 257.49 111.781C257.054 111.781 256.644 111.892 256.26 112.113C255.876 112.328 255.527 112.631 255.215 113.021C254.909 113.406 254.645 113.855 254.424 114.369C254.202 114.877 254.03 115.43 253.906 116.029C253.789 116.628 253.73 117.243 253.73 117.875C253.73 118.624 253.883 119.193 254.189 119.584C254.495 119.968 254.928 120.16 255.488 120.16ZM266.016 121.508C265.306 121.508 264.714 121.339 264.238 121C263.77 120.655 263.535 120.066 263.535 119.232C263.535 119.031 263.548 118.812 263.574 118.578C263.6 118.337 263.643 118.09 263.701 117.836L264.961 111.85H263.311L263.467 111.098L265.244 110.414L266.416 108.148H267.383L266.846 110.609H269.6L269.346 111.85H266.602L265.332 117.855C265.286 118.038 265.244 118.233 265.205 118.441C265.173 118.65 265.156 118.848 265.156 119.037C265.156 119.363 265.241 119.636 265.41 119.857C265.579 120.072 265.863 120.18 266.26 120.18C266.507 120.18 266.742 120.157 266.963 120.111C267.191 120.066 267.432 120.001 267.686 119.916V121.166C267.523 121.244 267.275 121.319 266.943 121.391C266.618 121.469 266.309 121.508 266.016 121.508ZM269.57 121.312L271.846 110.609H273.477L271.201 121.312H269.57ZM273.213 108.734C272.952 108.734 272.734 108.66 272.559 108.51C272.389 108.354 272.305 108.135 272.305 107.855C272.305 107.641 272.347 107.439 272.432 107.25C272.523 107.061 272.65 106.911 272.812 106.801C272.982 106.684 273.187 106.625 273.428 106.625C273.714 106.625 273.929 106.7 274.072 106.85C274.215 106.999 274.287 107.208 274.287 107.475C274.287 107.859 274.176 108.165 273.955 108.393C273.734 108.62 273.486 108.734 273.213 108.734ZM276.309 121.312L275.02 110.609H276.66L277.314 116.771C277.354 117.117 277.389 117.507 277.422 117.943C277.454 118.38 277.48 118.79 277.5 119.174C277.526 119.558 277.539 119.848 277.539 120.043H277.598C277.741 119.724 277.907 119.363 278.096 118.959C278.291 118.549 278.486 118.145 278.682 117.748C278.877 117.344 279.049 116.999 279.199 116.713L282.5 110.609H284.238L278.408 121.312H276.309ZM288.213 121.469C287.393 121.469 286.686 121.303 286.094 120.971C285.501 120.632 285.046 120.157 284.727 119.545C284.414 118.926 284.258 118.197 284.258 117.357C284.258 116.68 284.333 116.013 284.482 115.355C284.632 114.691 284.854 114.066 285.146 113.48C285.439 112.888 285.801 112.367 286.23 111.918C286.667 111.462 287.168 111.107 287.734 110.854C288.301 110.593 288.932 110.463 289.629 110.463C290.462 110.463 291.172 110.632 291.758 110.971C292.35 111.303 292.803 111.778 293.115 112.396C293.434 113.015 293.594 113.747 293.594 114.594C293.594 115.258 293.519 115.919 293.369 116.576C293.226 117.234 293.008 117.859 292.715 118.451C292.428 119.037 292.067 119.558 291.631 120.014C291.201 120.463 290.7 120.818 290.127 121.078C289.561 121.339 288.923 121.469 288.213 121.469ZM288.311 120.121C288.714 120.121 289.098 120.036 289.463 119.867C289.827 119.698 290.16 119.454 290.459 119.135C290.758 118.809 291.016 118.415 291.23 117.953C291.452 117.484 291.621 116.954 291.738 116.361C291.862 115.769 291.924 115.118 291.924 114.408C291.924 113.985 291.849 113.575 291.699 113.178C291.549 112.781 291.309 112.455 290.977 112.201C290.645 111.941 290.202 111.811 289.648 111.811C289.193 111.811 288.77 111.905 288.379 112.094C287.995 112.283 287.65 112.549 287.344 112.895C287.038 113.24 286.777 113.646 286.562 114.115C286.354 114.584 286.191 115.098 286.074 115.658C285.964 116.218 285.908 116.807 285.908 117.426C285.908 118.279 286.117 118.943 286.533 119.418C286.95 119.887 287.542 120.121 288.311 120.121Z" fill="white"/>
</svg>
