<svg width="294" height="121" viewBox="0 0 294 121" fill="none" xmlns="http://www.w3.org/2000/svg">
<path d="M187.613 22.9375L182.113 5.01562H181.973C181.993 5.44271 182.025 6.08854 182.066 6.95312C182.118 7.80729 182.165 8.71875 182.207 9.6875C182.249 10.6562 182.27 11.5312 182.27 12.3125V22.9375H177.941V0.09375H184.535L189.941 17.5625H190.035L195.77 0.09375H202.363V22.9375H197.848V12.125C197.848 11.4062 197.858 10.5781 197.879 9.64062C197.91 8.70312 197.947 7.8125 197.988 6.96875C198.03 6.11458 198.061 5.47396 198.082 5.04688H197.941L192.051 22.9375H187.613ZM222.113 22.9375L220.457 17.5H212.129L210.473 22.9375H205.254L213.316 0H219.238L227.332 22.9375H222.113ZM219.301 13.4375L217.645 8.125C217.54 7.77083 217.4 7.31771 217.223 6.76562C217.056 6.20312 216.884 5.63542 216.707 5.0625C216.54 4.47917 216.405 3.97396 216.301 3.54688C216.197 3.97396 216.051 4.50521 215.863 5.14062C215.686 5.76562 215.514 6.35938 215.348 6.92188C215.181 7.48438 215.061 7.88542 214.988 8.125L213.348 13.4375H219.301ZM250.488 22.9375H244.332L234.395 5.65625H234.254C234.296 6.375 234.332 7.09896 234.363 7.82812C234.395 8.55729 234.426 9.28646 234.457 10.0156C234.488 10.7344 234.52 11.4583 234.551 12.1875V22.9375H230.223V0.09375H236.332L246.254 17.2031H246.363C246.342 16.4948 246.316 15.7917 246.285 15.0938C246.254 14.3958 246.223 13.6979 246.191 13C246.171 12.3021 246.15 11.6042 246.129 10.9062V0.09375H250.488V22.9375ZM256.254 22.9375V0.09375H261.098V22.9375H256.254ZM276.52 22.9375L271.02 5.01562H270.879C270.9 5.44271 270.931 6.08854 270.973 6.95312C271.025 7.80729 271.072 8.71875 271.113 9.6875C271.155 10.6562 271.176 11.5312 271.176 12.3125V22.9375H266.848V0.09375H273.441L278.848 17.5625H278.941L284.676 0.09375H291.27V22.9375H286.754V12.125C286.754 11.4062 286.764 10.5781 286.785 9.64062C286.816 8.70312 286.853 7.8125 286.895 6.96875C286.936 6.11458 286.967 5.47396 286.988 5.04688H286.848L280.957 22.9375H276.52ZM203.463 39.0547C203.111 39.0547 202.805 38.9727 202.543 38.8086C202.281 38.6445 202.078 38.4004 201.934 38.0762C201.789 37.748 201.717 37.3418 201.717 36.8574C201.717 36.3965 201.764 35.9492 201.857 35.5156C201.951 35.0781 202.086 34.6719 202.262 34.2969C202.441 33.9219 202.66 33.5938 202.918 33.3125C203.176 33.0273 203.469 32.8066 203.797 32.6504C204.129 32.4902 204.492 32.4102 204.887 32.4102C205.188 32.4102 205.445 32.4648 205.66 32.5742C205.875 32.6836 206.053 32.8262 206.193 33.002C206.338 33.1738 206.451 33.3594 206.533 33.5586H206.592C206.615 33.3789 206.639 33.2051 206.662 33.0371C206.686 32.8652 206.713 32.6914 206.744 32.5156C206.779 32.3398 206.818 32.1582 206.861 31.9707L207.312 29.8203H208.279L206.346 38.9375H205.543L205.701 37.6953H205.66C205.473 37.9375 205.268 38.1621 205.045 38.3691C204.826 38.5762 204.586 38.7422 204.324 38.8672C204.062 38.9922 203.775 39.0547 203.463 39.0547ZM203.791 38.2461C203.975 38.2461 204.16 38.2012 204.348 38.1113C204.539 38.0215 204.725 37.8945 204.904 37.7305C205.084 37.5625 205.252 37.3652 205.408 37.1387C205.564 36.9121 205.701 36.6621 205.818 36.3887C205.939 36.1152 206.033 35.8262 206.1 35.5215C206.166 35.2168 206.199 34.9023 206.199 34.5781C206.199 34.1641 206.1 33.834 205.9 33.5879C205.701 33.3418 205.383 33.2188 204.945 33.2188C204.676 33.2188 204.426 33.2871 204.195 33.4238C203.969 33.5605 203.764 33.748 203.58 33.9863C203.396 34.2246 203.24 34.5 203.111 34.8125C202.986 35.1211 202.889 35.4531 202.818 35.8086C202.752 36.1602 202.719 36.5156 202.719 36.875C202.719 37.3242 202.809 37.666 202.988 37.9004C203.168 38.1309 203.436 38.2461 203.791 38.2461ZM210.395 39.0547C210.047 39.0547 209.742 38.9707 209.48 38.8027C209.219 38.6348 209.016 38.3867 208.871 38.0586C208.727 37.7305 208.654 37.3301 208.654 36.8574C208.654 36.3848 208.703 35.9297 208.801 35.4922C208.902 35.0547 209.045 34.6484 209.229 34.2734C209.412 33.8984 209.633 33.5703 209.891 33.2891C210.152 33.0078 210.445 32.7891 210.77 32.6328C211.094 32.4766 211.443 32.3984 211.818 32.3984C212.107 32.3984 212.357 32.4531 212.568 32.5625C212.783 32.6719 212.961 32.8164 213.102 32.9961C213.246 33.1719 213.359 33.3594 213.441 33.5586H213.5L213.875 32.5156H214.619L213.26 38.9375H212.48L212.656 37.6953H212.609C212.434 37.9297 212.232 38.1504 212.006 38.3574C211.779 38.5645 211.531 38.7324 211.262 38.8613C210.992 38.9902 210.703 39.0547 210.395 39.0547ZM210.711 38.2461C211.012 38.2461 211.309 38.1367 211.602 37.918C211.898 37.6953 212.164 37.3965 212.398 37.0215C212.637 36.6426 212.818 36.2168 212.943 35.7441C213.006 35.5137 213.047 35.3027 213.066 35.1113C213.09 34.916 213.102 34.7344 213.102 34.5664C213.102 34.1641 212.994 33.8398 212.779 33.5938C212.568 33.3438 212.279 33.2188 211.912 33.2188C211.65 33.2188 211.404 33.2852 211.174 33.418C210.943 33.5469 210.734 33.7285 210.547 33.9629C210.363 34.1934 210.205 34.4629 210.072 34.7715C209.939 35.0762 209.836 35.4082 209.762 35.7676C209.691 36.127 209.656 36.4961 209.656 36.875C209.656 37.3242 209.748 37.666 209.932 37.9004C210.115 38.1309 210.375 38.2461 210.711 38.2461ZM215.199 38.9375L216.564 32.5156H217.361L217.209 33.7578H217.268C217.432 33.5352 217.607 33.3203 217.795 33.1133C217.982 32.9023 218.195 32.7305 218.434 32.5977C218.676 32.4648 218.953 32.3984 219.266 32.3984C219.383 32.3984 219.502 32.4062 219.623 32.4219C219.744 32.4336 219.857 32.4551 219.963 32.4863L219.752 33.3594C219.646 33.3359 219.543 33.3184 219.441 33.3066C219.344 33.2949 219.242 33.2891 219.137 33.2891C218.84 33.2891 218.564 33.3672 218.311 33.5234C218.057 33.6758 217.828 33.8809 217.625 34.1387C217.426 34.3965 217.256 34.6836 217.115 35C216.979 35.3164 216.875 35.6387 216.805 35.9668L216.178 38.9375H215.199ZM224.07 38.9375L223.297 32.5156H224.281L224.674 36.2129C224.697 36.4199 224.719 36.6543 224.738 36.916C224.758 37.1777 224.773 37.4238 224.785 37.6543C224.801 37.8848 224.809 38.0586 224.809 38.1758H224.844C224.93 37.9844 225.029 37.7676 225.143 37.5254C225.26 37.2793 225.377 37.0371 225.494 36.7988C225.611 36.5566 225.715 36.3496 225.805 36.1777L227.785 32.5156H228.828L225.33 38.9375H224.07ZM228.594 38.9375L229.959 32.5156H230.938L229.572 38.9375H228.594ZM230.779 31.3906C230.623 31.3906 230.492 31.3457 230.387 31.2559C230.285 31.1621 230.234 31.0312 230.234 30.8633C230.234 30.7344 230.26 30.6133 230.311 30.5C230.365 30.3867 230.441 30.2969 230.539 30.2305C230.641 30.1602 230.764 30.125 230.908 30.125C231.08 30.125 231.209 30.1699 231.295 30.2598C231.381 30.3496 231.424 30.4746 231.424 30.6348C231.424 30.8652 231.357 31.0488 231.225 31.1855C231.092 31.3223 230.943 31.3906 230.779 31.3906ZM233.615 39.0547C233.264 39.0547 232.957 38.9727 232.695 38.8086C232.434 38.6445 232.23 38.4004 232.086 38.0762C231.941 37.748 231.869 37.3418 231.869 36.8574C231.869 36.3965 231.916 35.9492 232.01 35.5156C232.104 35.0781 232.238 34.6719 232.414 34.2969C232.594 33.9219 232.812 33.5938 233.07 33.3125C233.328 33.0273 233.621 32.8066 233.949 32.6504C234.281 32.4902 234.645 32.4102 235.039 32.4102C235.34 32.4102 235.598 32.4648 235.812 32.5742C236.027 32.6836 236.205 32.8262 236.346 33.002C236.49 33.1738 236.604 33.3594 236.686 33.5586H236.744C236.768 33.3789 236.791 33.2051 236.814 33.0371C236.838 32.8652 236.865 32.6914 236.896 32.5156C236.932 32.3398 236.971 32.1582 237.014 31.9707L237.465 29.8203H238.432L236.498 38.9375H235.695L235.854 37.6953H235.812C235.625 37.9375 235.42 38.1621 235.197 38.3691C234.979 38.5762 234.738 38.7422 234.477 38.8672C234.215 38.9922 233.928 39.0547 233.615 39.0547ZM233.943 38.2461C234.127 38.2461 234.312 38.2012 234.5 38.1113C234.691 38.0215 234.877 37.8945 235.057 37.7305C235.236 37.5625 235.404 37.3652 235.561 37.1387C235.717 36.9121 235.854 36.6621 235.971 36.3887C236.092 36.1152 236.186 35.8262 236.252 35.5215C236.318 35.2168 236.352 34.9023 236.352 34.5781C236.352 34.1641 236.252 33.834 236.053 33.5879C235.854 33.3418 235.535 33.2188 235.098 33.2188C234.828 33.2188 234.578 33.2871 234.348 33.4238C234.121 33.5605 233.916 33.748 233.732 33.9863C233.549 34.2246 233.393 34.5 233.264 34.8125C233.139 35.1211 233.041 35.4531 232.971 35.8086C232.904 36.1602 232.871 36.5156 232.871 36.875C232.871 37.3242 232.961 37.666 233.141 37.9004C233.32 38.1309 233.588 38.2461 233.943 38.2461ZM240.547 39.0547C240.199 39.0547 239.895 38.9707 239.633 38.8027C239.371 38.6348 239.168 38.3867 239.023 38.0586C238.879 37.7305 238.807 37.3301 238.807 36.8574C238.807 36.3848 238.855 35.9297 238.953 35.4922C239.055 35.0547 239.197 34.6484 239.381 34.2734C239.564 33.8984 239.785 33.5703 240.043 33.2891C240.305 33.0078 240.598 32.7891 240.922 32.6328C241.246 32.4766 241.596 32.3984 241.971 32.3984C242.26 32.3984 242.51 32.4531 242.721 32.5625C242.936 32.6719 243.113 32.8164 243.254 32.9961C243.398 33.1719 243.512 33.3594 243.594 33.5586H243.652L244.027 32.5156H244.771L243.412 38.9375H242.633L242.809 37.6953H242.762C242.586 37.9297 242.385 38.1504 242.158 38.3574C241.932 38.5645 241.684 38.7324 241.414 38.8613C241.145 38.9902 240.855 39.0547 240.547 39.0547ZM240.863 38.2461C241.164 38.2461 241.461 38.1367 241.754 37.918C242.051 37.6953 242.316 37.3965 242.551 37.0215C242.789 36.6426 242.971 36.2168 243.096 35.7441C243.158 35.5137 243.199 35.3027 243.219 35.1113C243.242 34.916 243.254 34.7344 243.254 34.5664C243.254 34.1641 243.146 33.8398 242.932 33.5938C242.721 33.3438 242.432 33.2188 242.064 33.2188C241.803 33.2188 241.557 33.2852 241.326 33.418C241.096 33.5469 240.887 33.7285 240.699 33.9629C240.516 34.1934 240.357 34.4629 240.225 34.7715C240.092 35.0762 239.988 35.4082 239.914 35.7676C239.844 36.127 239.809 36.4961 239.809 36.875C239.809 37.3242 239.9 37.666 240.084 37.9004C240.268 38.1309 240.527 38.2461 240.863 38.2461ZM250.449 39.0547C250.102 39.0547 249.797 38.9707 249.535 38.8027C249.273 38.6348 249.07 38.3867 248.926 38.0586C248.781 37.7305 248.709 37.3301 248.709 36.8574C248.709 36.3848 248.758 35.9297 248.855 35.4922C248.957 35.0547 249.1 34.6484 249.283 34.2734C249.467 33.8984 249.688 33.5703 249.945 33.2891C250.207 33.0078 250.5 32.7891 250.824 32.6328C251.148 32.4766 251.498 32.3984 251.873 32.3984C252.162 32.3984 252.412 32.4531 252.623 32.5625C252.838 32.6719 253.016 32.8164 253.156 32.9961C253.301 33.1719 253.414 33.3594 253.496 33.5586H253.555L253.93 32.5156H254.674L253.314 38.9375H252.535L252.711 37.6953H252.664C252.488 37.9297 252.287 38.1504 252.061 38.3574C251.834 38.5645 251.586 38.7324 251.316 38.8613C251.047 38.9902 250.758 39.0547 250.449 39.0547ZM250.766 38.2461C251.066 38.2461 251.363 38.1367 251.656 37.918C251.953 37.6953 252.219 37.3965 252.453 37.0215C252.691 36.6426 252.873 36.2168 252.998 35.7441C253.061 35.5137 253.102 35.3027 253.121 35.1113C253.145 34.916 253.156 34.7344 253.156 34.5664C253.156 34.1641 253.049 33.8398 252.834 33.5938C252.623 33.3438 252.334 33.2188 251.967 33.2188C251.705 33.2188 251.459 33.2852 251.229 33.418C250.998 33.5469 250.789 33.7285 250.602 33.9629C250.418 34.1934 250.26 34.4629 250.127 34.7715C249.994 35.0762 249.891 35.4082 249.816 35.7676C249.746 36.127 249.711 36.4961 249.711 36.875C249.711 37.3242 249.803 37.666 249.986 37.9004C250.17 38.1309 250.43 38.2461 250.766 38.2461ZM252.459 31.666C252.311 31.5137 252.15 31.3281 251.979 31.1094C251.807 30.8906 251.646 30.6699 251.498 30.4473C251.354 30.2246 251.24 30.0312 251.158 29.8672V29.7441H252.201C252.264 29.9395 252.342 30.1406 252.436 30.3477C252.529 30.5547 252.631 30.7578 252.74 30.957C252.85 31.1562 252.957 31.3438 253.062 31.5195V31.666H252.459ZM256.783 39.0547C256.393 39.0547 256.049 39.0156 255.752 38.9375C255.459 38.8594 255.203 38.7617 254.984 38.6445V37.7422C255.191 37.8672 255.453 37.9844 255.77 38.0938C256.09 38.2031 256.418 38.2578 256.754 38.2578C257.086 38.2578 257.361 38.2129 257.58 38.123C257.803 38.0332 257.969 37.9102 258.078 37.7539C258.191 37.5938 258.248 37.4082 258.248 37.1973C258.248 37.0293 258.211 36.8848 258.137 36.7637C258.066 36.6387 257.949 36.5176 257.785 36.4004C257.625 36.2832 257.41 36.1484 257.141 35.9961C256.84 35.8281 256.586 35.6582 256.379 35.4863C256.172 35.3145 256.014 35.127 255.904 34.9238C255.799 34.7168 255.746 34.4766 255.746 34.2031C255.746 33.8359 255.836 33.5176 256.016 33.248C256.195 32.9785 256.447 32.7695 256.771 32.6211C257.1 32.4727 257.482 32.3984 257.92 32.3984C258.307 32.3984 258.664 32.4434 258.992 32.5332C259.32 32.6191 259.604 32.7188 259.842 32.832L259.525 33.6113C259.322 33.5137 259.09 33.4238 258.828 33.3418C258.566 33.2598 258.264 33.2188 257.92 33.2188C257.553 33.2188 257.26 33.3027 257.041 33.4707C256.826 33.6387 256.719 33.8652 256.719 34.1504C256.719 34.2988 256.75 34.4316 256.812 34.5488C256.879 34.666 256.992 34.7832 257.152 34.9004C257.312 35.0137 257.531 35.1465 257.809 35.2988C258.078 35.4551 258.32 35.6152 258.535 35.7793C258.754 35.9395 258.926 36.125 259.051 36.3359C259.18 36.543 259.244 36.7988 259.244 37.1035C259.244 37.5215 259.145 37.877 258.945 38.1699C258.746 38.459 258.461 38.6797 258.09 38.832C257.723 38.9805 257.287 39.0547 256.783 39.0547ZM263.551 38.9375L264.916 32.5156H265.895L264.529 38.9375H263.551ZM265.736 31.3906C265.58 31.3906 265.449 31.3457 265.344 31.2559C265.242 31.1621 265.191 31.0312 265.191 30.8633C265.191 30.7344 265.217 30.6133 265.268 30.5C265.322 30.3867 265.398 30.2969 265.496 30.2305C265.598 30.1602 265.721 30.125 265.865 30.125C266.037 30.125 266.166 30.1699 266.252 30.2598C266.338 30.3496 266.381 30.4746 266.381 30.6348C266.381 30.8652 266.314 31.0488 266.182 31.1855C266.049 31.3223 265.9 31.3906 265.736 31.3906ZM268.572 39.0547C268.221 39.0547 267.914 38.9727 267.652 38.8086C267.391 38.6445 267.188 38.4004 267.043 38.0762C266.898 37.748 266.826 37.3418 266.826 36.8574C266.826 36.3965 266.873 35.9492 266.967 35.5156C267.061 35.0781 267.195 34.6719 267.371 34.2969C267.551 33.9219 267.77 33.5938 268.027 33.3125C268.285 33.0273 268.578 32.8066 268.906 32.6504C269.238 32.4902 269.602 32.4102 269.996 32.4102C270.297 32.4102 270.555 32.4648 270.77 32.5742C270.984 32.6836 271.162 32.8262 271.303 33.002C271.447 33.1738 271.561 33.3594 271.643 33.5586H271.701C271.725 33.3789 271.748 33.2051 271.771 33.0371C271.795 32.8652 271.822 32.6914 271.854 32.5156C271.889 32.3398 271.928 32.1582 271.971 31.9707L272.422 29.8203H273.389L271.455 38.9375H270.652L270.811 37.6953H270.77C270.582 37.9375 270.377 38.1621 270.154 38.3691C269.936 38.5762 269.695 38.7422 269.434 38.8672C269.172 38.9922 268.885 39.0547 268.572 39.0547ZM268.9 38.2461C269.084 38.2461 269.27 38.2012 269.457 38.1113C269.648 38.0215 269.834 37.8945 270.014 37.7305C270.193 37.5625 270.361 37.3652 270.518 37.1387C270.674 36.9121 270.811 36.6621 270.928 36.3887C271.049 36.1152 271.143 35.8262 271.209 35.5215C271.275 35.2168 271.309 34.9023 271.309 34.5781C271.309 34.1641 271.209 33.834 271.01 33.5879C270.811 33.3418 270.492 33.2188 270.055 33.2188C269.785 33.2188 269.535 33.2871 269.305 33.4238C269.078 33.5605 268.873 33.748 268.689 33.9863C268.506 34.2246 268.35 34.5 268.221 34.8125C268.096 35.1211 267.998 35.4531 267.928 35.8086C267.861 36.1602 267.828 36.5156 267.828 36.875C267.828 37.3242 267.918 37.666 268.098 37.9004C268.277 38.1309 268.545 38.2461 268.9 38.2461ZM276.096 39.0547C275.615 39.0547 275.201 38.959 274.854 38.7676C274.506 38.5723 274.238 38.2949 274.051 37.9355C273.867 37.5723 273.775 37.1387 273.775 36.6348C273.775 36.1152 273.85 35.6055 273.998 35.1055C274.15 34.6016 274.367 34.1465 274.648 33.7402C274.93 33.3301 275.268 33.0039 275.662 32.7617C276.061 32.5195 276.506 32.3984 276.998 32.3984C277.588 32.3984 278.035 32.5312 278.34 32.7969C278.645 33.0586 278.797 33.4199 278.797 33.8809C278.797 34.2051 278.721 34.5039 278.568 34.7773C278.42 35.0508 278.189 35.2891 277.877 35.4922C277.568 35.6914 277.176 35.8477 276.699 35.9609C276.227 36.0703 275.666 36.125 275.018 36.125H274.795C274.787 36.1953 274.779 36.2734 274.771 36.3594C274.768 36.4453 274.766 36.5254 274.766 36.5996C274.766 37.1152 274.891 37.5195 275.141 37.8125C275.391 38.1016 275.766 38.2461 276.266 38.2461C276.574 38.2461 276.865 38.2031 277.139 38.1172C277.416 38.0273 277.705 37.9102 278.006 37.7656V38.6035C277.717 38.7363 277.426 38.8457 277.133 38.9316C276.84 39.0137 276.494 39.0547 276.096 39.0547ZM274.936 35.3281H275.076C275.576 35.3281 276.035 35.2852 276.453 35.1992C276.871 35.1094 277.207 34.9648 277.461 34.7656C277.715 34.5625 277.842 34.293 277.842 33.957C277.842 33.7383 277.768 33.5586 277.619 33.418C277.471 33.2773 277.244 33.207 276.939 33.207C276.67 33.207 276.404 33.291 276.143 33.459C275.881 33.623 275.643 33.8633 275.428 34.1797C275.217 34.4961 275.053 34.8789 274.936 35.3281ZM279.5 38.9375L280.865 32.5156H281.844L280.479 38.9375H279.5ZM281.686 31.3906C281.529 31.3906 281.398 31.3457 281.293 31.2559C281.191 31.1621 281.141 31.0312 281.141 30.8633C281.141 30.7344 281.166 30.6133 281.217 30.5C281.271 30.3867 281.348 30.2969 281.445 30.2305C281.547 30.1602 281.67 30.125 281.814 30.125C281.986 30.125 282.115 30.1699 282.201 30.2598C282.287 30.3496 282.33 30.4746 282.33 30.6348C282.33 30.8652 282.264 31.0488 282.131 31.1855C281.998 31.3223 281.85 31.3906 281.686 31.3906ZM284.516 39.0547C284.168 39.0547 283.863 38.9707 283.602 38.8027C283.34 38.6348 283.137 38.3867 282.992 38.0586C282.848 37.7305 282.775 37.3301 282.775 36.8574C282.775 36.3848 282.824 35.9297 282.922 35.4922C283.023 35.0547 283.166 34.6484 283.35 34.2734C283.533 33.8984 283.754 33.5703 284.012 33.2891C284.273 33.0078 284.566 32.7891 284.891 32.6328C285.215 32.4766 285.564 32.3984 285.939 32.3984C286.229 32.3984 286.479 32.4531 286.689 32.5625C286.904 32.6719 287.082 32.8164 287.223 32.9961C287.367 33.1719 287.48 33.3594 287.562 33.5586H287.621L287.996 32.5156H288.74L287.381 38.9375H286.602L286.777 37.6953H286.73C286.555 37.9297 286.354 38.1504 286.127 38.3574C285.9 38.5645 285.652 38.7324 285.383 38.8613C285.113 38.9902 284.824 39.0547 284.516 39.0547ZM284.832 38.2461C285.133 38.2461 285.43 38.1367 285.723 37.918C286.02 37.6953 286.285 37.3965 286.52 37.0215C286.758 36.6426 286.939 36.2168 287.064 35.7441C287.127 35.5137 287.168 35.3027 287.188 35.1113C287.211 34.916 287.223 34.7344 287.223 34.5664C287.223 34.1641 287.115 33.8398 286.9 33.5938C286.689 33.3438 286.4 33.2188 286.033 33.2188C285.771 33.2188 285.525 33.2852 285.295 33.418C285.064 33.5469 284.855 33.7285 284.668 33.9629C284.484 34.1934 284.326 34.4629 284.193 34.7715C284.061 35.0762 283.957 35.4082 283.883 35.7676C283.812 36.127 283.777 36.4961 283.777 36.875C283.777 37.3242 283.869 37.666 284.053 37.9004C284.236 38.1309 284.496 38.2461 284.832 38.2461ZM290.85 39.0547C290.459 39.0547 290.115 39.0156 289.818 38.9375C289.525 38.8594 289.27 38.7617 289.051 38.6445V37.7422C289.258 37.8672 289.52 37.9844 289.836 38.0938C290.156 38.2031 290.484 38.2578 290.82 38.2578C291.152 38.2578 291.428 38.2129 291.646 38.123C291.869 38.0332 292.035 37.9102 292.145 37.7539C292.258 37.5938 292.314 37.4082 292.314 37.1973C292.314 37.0293 292.277 36.8848 292.203 36.7637C292.133 36.6387 292.016 36.5176 291.852 36.4004C291.691 36.2832 291.477 36.1484 291.207 35.9961C290.906 35.8281 290.652 35.6582 290.445 35.4863C290.238 35.3145 290.08 35.127 289.971 34.9238C289.865 34.7168 289.812 34.4766 289.812 34.2031C289.812 33.8359 289.902 33.5176 290.082 33.248C290.262 32.9785 290.514 32.7695 290.838 32.6211C291.166 32.4727 291.549 32.3984 291.986 32.3984C292.373 32.3984 292.73 32.4434 293.059 32.5332C293.387 32.6191 293.67 32.7188 293.908 32.832L293.592 33.6113C293.389 33.5137 293.156 33.4238 292.895 33.3418C292.633 33.2598 292.33 33.2188 291.986 33.2188C291.619 33.2188 291.326 33.3027 291.107 33.4707C290.893 33.6387 290.785 33.8652 290.785 34.1504C290.785 34.2988 290.816 34.4316 290.879 34.5488C290.945 34.666 291.059 34.7832 291.219 34.9004C291.379 35.0137 291.598 35.1465 291.875 35.2988C292.145 35.4551 292.387 35.6152 292.602 35.7793C292.82 35.9395 292.992 36.125 293.117 36.3359C293.246 36.543 293.311 36.7988 293.311 37.1035C293.311 37.5215 293.211 37.877 293.012 38.1699C292.812 38.459 292.527 38.6797 292.156 38.832C291.789 38.9805 291.354 39.0547 290.85 39.0547ZM0 65.9375L3.01758 51.6602H6.23047C7.23958 51.6602 8.05664 51.8132 8.68164 52.1191C9.30664 52.4251 9.76237 52.8548 10.0488 53.4082C10.3353 53.9616 10.4785 54.6126 10.4785 55.3613C10.4785 56.1491 10.3451 56.849 10.0781 57.4609C9.81771 58.0729 9.42708 58.5905 8.90625 59.0137C8.38542 59.4368 7.73763 59.7591 6.96289 59.9805C6.19466 60.1953 5.30273 60.3027 4.28711 60.3027H2.83203L1.64062 65.9375H0ZM3.13477 58.9062H4.54102C5.42643 58.9062 6.1849 58.7793 6.81641 58.5254C7.45443 58.2715 7.94271 57.8874 8.28125 57.373C8.6263 56.8522 8.79883 56.1979 8.79883 55.4102C8.79883 54.5898 8.56771 53.9974 8.10547 53.6328C7.64323 53.2617 6.9401 53.0762 5.99609 53.0762H4.375L3.13477 58.9062ZM11.0547 65.9375L13.3301 55.2344H14.6582L14.4043 57.3047H14.502C14.7754 56.9336 15.0684 56.5755 15.3809 56.2305C15.6934 55.8789 16.0482 55.5924 16.4453 55.3711C16.849 55.1497 17.3112 55.0391 17.832 55.0391C18.0273 55.0391 18.2259 55.0521 18.4277 55.0781C18.6296 55.0977 18.8184 55.1335 18.9941 55.1855L18.6426 56.6406C18.4668 56.6016 18.2943 56.5723 18.125 56.5527C17.9622 56.5332 17.793 56.5234 17.6172 56.5234C17.1224 56.5234 16.6634 56.6536 16.2402 56.9141C15.8171 57.168 15.4362 57.5098 15.0977 57.9395C14.7656 58.3691 14.4824 58.8477 14.248 59.375C14.0202 59.9023 13.8477 60.4395 13.7305 60.9863L12.6855 65.9375H11.0547ZM23.3301 66.0938C22.5098 66.0938 21.8034 65.9277 21.2109 65.5957C20.6185 65.2572 20.1628 64.7819 19.8438 64.1699C19.5312 63.5514 19.375 62.8223 19.375 61.9824C19.375 61.3053 19.4499 60.638 19.5996 59.9805C19.7493 59.3164 19.9707 58.6914 20.2637 58.1055C20.5566 57.513 20.918 56.9922 21.3477 56.543C21.7839 56.0872 22.2852 55.7324 22.8516 55.4785C23.418 55.2181 24.0495 55.0879 24.7461 55.0879C25.5794 55.0879 26.2891 55.2572 26.875 55.5957C27.4674 55.9277 27.9199 56.403 28.2324 57.0215C28.5514 57.64 28.7109 58.3724 28.7109 59.2188C28.7109 59.8828 28.6361 60.5436 28.4863 61.2012C28.3431 61.8587 28.125 62.4837 27.832 63.0762C27.5456 63.6621 27.1842 64.1829 26.748 64.6387C26.3184 65.0879 25.8171 65.4427 25.2441 65.7031C24.6777 65.9635 24.0397 66.0938 23.3301 66.0938ZM23.4277 64.7461C23.8314 64.7461 24.2155 64.6615 24.5801 64.4922C24.9447 64.3229 25.2767 64.0788 25.5762 63.7598C25.8757 63.4342 26.1328 63.0404 26.3477 62.5781C26.569 62.1094 26.7383 61.5788 26.8555 60.9863C26.9792 60.3939 27.041 59.7428 27.041 59.0332C27.041 58.61 26.9661 58.1999 26.8164 57.8027C26.6667 57.4056 26.4258 57.0801 26.0938 56.8262C25.7617 56.5658 25.319 56.4355 24.7656 56.4355C24.3099 56.4355 23.8867 56.5299 23.4961 56.7188C23.112 56.9076 22.7669 57.1745 22.4609 57.5195C22.1549 57.8646 21.8945 58.2715 21.6797 58.7402C21.4714 59.209 21.3086 59.7233 21.1914 60.2832C21.0807 60.8431 21.0254 61.4323 21.0254 62.0508C21.0254 62.9036 21.2337 63.5677 21.6504 64.043C22.0671 64.5117 22.6595 64.7461 23.4277 64.7461ZM28.3398 70.7422C28.099 70.7422 27.8711 70.7227 27.6562 70.6836C27.4414 70.6445 27.2591 70.5957 27.1094 70.5371V69.1602C27.2721 69.2253 27.4544 69.2773 27.6562 69.3164C27.8516 69.362 28.0566 69.3848 28.2715 69.3848C28.5514 69.3848 28.7988 69.3099 29.0137 69.1602C29.2285 69.0169 29.4141 68.7988 29.5703 68.5059C29.7201 68.2129 29.8438 67.8483 29.9414 67.4121L32.5098 55.2344H34.1211L31.5039 67.5684C31.3672 68.2194 31.1719 68.7826 30.918 69.2578C30.6706 69.7331 30.3385 70.0977 29.9219 70.3516C29.5052 70.612 28.9779 70.7422 28.3398 70.7422ZM33.8574 53.3594C33.6035 53.3594 33.3919 53.2845 33.2227 53.1348C33.0534 52.9785 32.9688 52.7604 32.9688 52.4805C32.9688 52.2656 33.0111 52.0638 33.0957 51.875C33.1868 51.6862 33.3138 51.5365 33.4766 51.4258C33.6458 51.3086 33.8509 51.25 34.0918 51.25C34.3783 51.25 34.5898 51.3249 34.7266 51.4746C34.8698 51.6243 34.9414 51.8327 34.9414 52.0996C34.9414 52.4837 34.8275 52.7897 34.5996 53.0176C34.3783 53.2454 34.1309 53.3594 33.8574 53.3594ZM39.5801 66.1328C38.7793 66.1328 38.0892 65.9733 37.5098 65.6543C36.9303 65.3288 36.4844 64.8665 36.1719 64.2676C35.8659 63.6621 35.7129 62.9395 35.7129 62.0996C35.7129 61.2337 35.8366 60.3841 36.084 59.5508C36.3379 58.7109 36.6992 57.9525 37.168 57.2754C37.6367 56.5918 38.1999 56.0482 38.8574 55.6445C39.5215 55.2409 40.2637 55.0391 41.084 55.0391C42.0671 55.0391 42.8125 55.2604 43.3203 55.7031C43.8281 56.1393 44.082 56.7415 44.082 57.5098C44.082 58.0501 43.9551 58.5482 43.7012 59.0039C43.4538 59.4596 43.0697 59.8568 42.5488 60.1953C42.0345 60.5273 41.3802 60.7878 40.5859 60.9766C39.7982 61.1589 38.8639 61.25 37.7832 61.25H37.4121C37.3991 61.3672 37.3861 61.4974 37.373 61.6406C37.3665 61.7839 37.3633 61.9173 37.3633 62.041C37.3633 62.9004 37.5716 63.5742 37.9883 64.0625C38.4049 64.5443 39.0299 64.7852 39.8633 64.7852C40.3776 64.7852 40.8626 64.7135 41.3184 64.5703C41.7806 64.4206 42.2624 64.2253 42.7637 63.9844V65.3809C42.2819 65.6022 41.7969 65.7845 41.3086 65.9277C40.8203 66.0645 40.2441 66.1328 39.5801 66.1328ZM37.6465 59.9219H37.8809C38.7142 59.9219 39.4792 59.8503 40.1758 59.707C40.8724 59.5573 41.4323 59.3164 41.8555 58.9844C42.2786 58.6458 42.4902 58.1966 42.4902 57.6367C42.4902 57.2721 42.3665 56.9727 42.1191 56.7383C41.8717 56.5039 41.4941 56.3867 40.9863 56.3867C40.5371 56.3867 40.0944 56.5267 39.6582 56.8066C39.222 57.0801 38.8249 57.4805 38.4668 58.0078C38.1152 58.5352 37.8418 59.1732 37.6465 59.9219ZM48.3008 66.1328C47.5911 66.1328 46.9987 65.9635 46.5234 65.625C46.0547 65.2799 45.8203 64.6908 45.8203 63.8574C45.8203 63.6556 45.8333 63.4375 45.8594 63.2031C45.8854 62.9622 45.9277 62.7148 45.9863 62.4609L47.2461 56.4746H45.5957L45.752 55.7227L47.5293 55.0391L48.7012 52.7734H49.668L49.1309 55.2344H51.8848L51.6309 56.4746H48.8867L47.6172 62.4805C47.5716 62.6628 47.5293 62.8581 47.4902 63.0664C47.4577 63.2747 47.4414 63.4733 47.4414 63.6621C47.4414 63.9876 47.526 64.2611 47.6953 64.4824C47.8646 64.6973 48.1478 64.8047 48.5449 64.8047C48.7923 64.8047 49.0267 64.7819 49.248 64.7363C49.4759 64.6908 49.7168 64.6257 49.9707 64.541V65.791C49.8079 65.8691 49.5605 65.944 49.2285 66.0156C48.903 66.0938 48.5938 66.1328 48.3008 66.1328ZM56.2207 66.0938C55.4004 66.0938 54.694 65.9277 54.1016 65.5957C53.5091 65.2572 53.0534 64.7819 52.7344 64.1699C52.4219 63.5514 52.2656 62.8223 52.2656 61.9824C52.2656 61.3053 52.3405 60.638 52.4902 59.9805C52.64 59.3164 52.8613 58.6914 53.1543 58.1055C53.4473 57.513 53.8086 56.9922 54.2383 56.543C54.6745 56.0872 55.1758 55.7324 55.7422 55.4785C56.3086 55.2181 56.9401 55.0879 57.6367 55.0879C58.4701 55.0879 59.1797 55.2572 59.7656 55.5957C60.3581 55.9277 60.8105 56.403 61.123 57.0215C61.4421 57.64 61.6016 58.3724 61.6016 59.2188C61.6016 59.8828 61.5267 60.5436 61.377 61.2012C61.2337 61.8587 61.0156 62.4837 60.7227 63.0762C60.4362 63.6621 60.0749 64.1829 59.6387 64.6387C59.209 65.0879 58.7077 65.4427 58.1348 65.7031C57.5684 65.9635 56.9303 66.0938 56.2207 66.0938ZM56.3184 64.7461C56.722 64.7461 57.1061 64.6615 57.4707 64.4922C57.8353 64.3229 58.1673 64.0788 58.4668 63.7598C58.7663 63.4342 59.0234 63.0404 59.2383 62.5781C59.4596 62.1094 59.6289 61.5788 59.7461 60.9863C59.8698 60.3939 59.9316 59.7428 59.9316 59.0332C59.9316 58.61 59.8568 58.1999 59.707 57.8027C59.5573 57.4056 59.3164 57.0801 58.9844 56.8262C58.6523 56.5658 58.2096 56.4355 57.6562 56.4355C57.2005 56.4355 56.7773 56.5299 56.3867 56.7188C56.0026 56.9076 55.6576 57.1745 55.3516 57.5195C55.0456 57.8646 54.7852 58.2715 54.5703 58.7402C54.362 59.209 54.1992 59.7233 54.082 60.2832C53.9714 60.8431 53.916 61.4323 53.916 62.0508C53.916 62.9036 54.1243 63.5677 54.541 64.043C54.9577 64.5117 55.5501 64.7461 56.3184 64.7461ZM72.6855 66.0938C71.8652 66.0938 71.1589 65.9277 70.5664 65.5957C69.974 65.2572 69.5182 64.7819 69.1992 64.1699C68.8867 63.5514 68.7305 62.8223 68.7305 61.9824C68.7305 61.3053 68.8053 60.638 68.9551 59.9805C69.1048 59.3164 69.3262 58.6914 69.6191 58.1055C69.9121 57.513 70.2734 56.9922 70.7031 56.543C71.1393 56.0872 71.6406 55.7324 72.207 55.4785C72.7734 55.2181 73.4049 55.0879 74.1016 55.0879C74.9349 55.0879 75.6445 55.2572 76.2305 55.5957C76.8229 55.9277 77.2754 56.403 77.5879 57.0215C77.9069 57.64 78.0664 58.3724 78.0664 59.2188C78.0664 59.8828 77.9915 60.5436 77.8418 61.2012C77.6986 61.8587 77.4805 62.4837 77.1875 63.0762C76.901 63.6621 76.5397 64.1829 76.1035 64.6387C75.6738 65.0879 75.1725 65.4427 74.5996 65.7031C74.0332 65.9635 73.3952 66.0938 72.6855 66.0938ZM72.7832 64.7461C73.1868 64.7461 73.571 64.6615 73.9355 64.4922C74.3001 64.3229 74.6322 64.0788 74.9316 63.7598C75.2311 63.4342 75.4883 63.0404 75.7031 62.5781C75.9245 62.1094 76.0938 61.5788 76.2109 60.9863C76.3346 60.3939 76.3965 59.7428 76.3965 59.0332C76.3965 58.61 76.3216 58.1999 76.1719 57.8027C76.0221 57.4056 75.7812 57.0801 75.4492 56.8262C75.1172 56.5658 74.6745 56.4355 74.1211 56.4355C73.6654 56.4355 73.2422 56.5299 72.8516 56.7188C72.4674 56.9076 72.1224 57.1745 71.8164 57.5195C71.5104 57.8646 71.25 58.2715 71.0352 58.7402C70.8268 59.209 70.6641 59.7233 70.5469 60.2832C70.4362 60.8431 70.3809 61.4323 70.3809 62.0508C70.3809 62.9036 70.5892 63.5677 71.0059 64.043C71.4225 64.5117 72.015 64.7461 72.7832 64.7461ZM78.5938 70.7227L81.8652 55.2344H83.1934L82.9297 57.3145H82.998C83.304 56.9108 83.6393 56.5397 84.0039 56.2012C84.375 55.8561 84.7786 55.5794 85.2148 55.3711C85.6576 55.1628 86.1393 55.0586 86.6602 55.0586C87.2461 55.0586 87.7572 55.1986 88.1934 55.4785C88.6296 55.752 88.9681 56.1621 89.209 56.709C89.4564 57.2493 89.5801 57.9232 89.5801 58.7305C89.5801 59.4987 89.502 60.2474 89.3457 60.9766C89.196 61.6992 88.9746 62.373 88.6816 62.998C88.3887 63.6165 88.0273 64.1634 87.5977 64.6387C87.1745 65.1074 86.6895 65.4753 86.1426 65.7422C85.5957 66.0026 84.9935 66.1328 84.3359 66.1328C83.8346 66.1328 83.4017 66.0449 83.0371 65.8691C82.679 65.6868 82.3763 65.4492 82.1289 65.1562C81.888 64.8633 81.696 64.5475 81.5527 64.209H81.4648C81.4388 64.4499 81.3965 64.7656 81.3379 65.1562C81.2858 65.5404 81.2305 65.8626 81.1719 66.123L80.1953 70.7227H78.5938ZM84.2188 64.7852C84.6745 64.7852 85.0911 64.6712 85.4688 64.4434C85.8529 64.2155 86.1947 63.9062 86.4941 63.5156C86.8001 63.1185 87.0573 62.6595 87.2656 62.1387C87.4805 61.6178 87.6432 61.0645 87.7539 60.4785C87.8646 59.8926 87.9199 59.2969 87.9199 58.6914C87.9199 57.9362 87.7669 57.3665 87.4609 56.9824C87.1615 56.5983 86.7122 56.4062 86.1133 56.4062C85.8008 56.4062 85.485 56.4844 85.166 56.6406C84.847 56.7904 84.5378 57.0052 84.2383 57.2852C83.9388 57.5586 83.6589 57.8841 83.3984 58.2617C83.138 58.6393 82.9102 59.056 82.7148 59.5117C82.526 59.9674 82.3763 60.4492 82.2656 60.957C82.1549 61.4648 82.0996 61.9857 82.0996 62.5195C82.0996 63.2031 82.2721 63.7533 82.6172 64.1699C82.9688 64.5801 83.5026 64.7852 84.2188 64.7852ZM95.4395 66.1328C94.6387 66.1328 93.9486 65.9733 93.3691 65.6543C92.7897 65.3288 92.3438 64.8665 92.0312 64.2676C91.7253 63.6621 91.5723 62.9395 91.5723 62.0996C91.5723 61.2337 91.696 60.3841 91.9434 59.5508C92.1973 58.7109 92.5586 57.9525 93.0273 57.2754C93.4961 56.5918 94.0592 56.0482 94.7168 55.6445C95.3809 55.2409 96.123 55.0391 96.9434 55.0391C97.9264 55.0391 98.6719 55.2604 99.1797 55.7031C99.6875 56.1393 99.9414 56.7415 99.9414 57.5098C99.9414 58.0501 99.8145 58.5482 99.5605 59.0039C99.3132 59.4596 98.929 59.8568 98.4082 60.1953C97.8939 60.5273 97.2396 60.7878 96.4453 60.9766C95.6576 61.1589 94.7233 61.25 93.6426 61.25H93.2715C93.2585 61.3672 93.2454 61.4974 93.2324 61.6406C93.2259 61.7839 93.2227 61.9173 93.2227 62.041C93.2227 62.9004 93.431 63.5742 93.8477 64.0625C94.2643 64.5443 94.8893 64.7852 95.7227 64.7852C96.237 64.7852 96.722 64.7135 97.1777 64.5703C97.64 64.4206 98.1217 64.2253 98.623 63.9844V65.3809C98.1413 65.6022 97.6562 65.7845 97.168 65.9277C96.6797 66.0645 96.1035 66.1328 95.4395 66.1328ZM93.5059 59.9219H93.7402C94.5736 59.9219 95.3385 59.8503 96.0352 59.707C96.7318 59.5573 97.2917 59.3164 97.7148 58.9844C98.138 58.6458 98.3496 58.1966 98.3496 57.6367C98.3496 57.2721 98.2259 56.9727 97.9785 56.7383C97.7311 56.5039 97.3535 56.3867 96.8457 56.3867C96.3965 56.3867 95.9538 56.5267 95.5176 56.8066C95.0814 57.0801 94.6842 57.4805 94.3262 58.0078C93.9746 58.5352 93.7012 59.1732 93.5059 59.9219ZM101.045 65.9375L103.34 55.1855H104.775L104.521 57.2461H104.541C104.788 56.9076 105.085 56.5658 105.43 56.2207C105.781 55.8691 106.188 55.5762 106.65 55.3418C107.119 55.1009 107.65 54.9805 108.242 54.9805C108.815 54.9805 109.307 55.0879 109.717 55.3027C110.127 55.5111 110.443 55.8171 110.664 56.2207C110.885 56.6178 110.996 57.0996 110.996 57.666C110.996 57.9655 110.973 58.2682 110.928 58.5742C110.882 58.8802 110.833 59.1536 110.781 59.3945L109.355 65.9375H107.627L109.072 59.1797C109.131 58.8867 109.176 58.6361 109.209 58.4277C109.248 58.2194 109.268 58.0241 109.268 57.8418C109.268 57.3861 109.144 57.041 108.896 56.8066C108.649 56.5723 108.285 56.4551 107.803 56.4551C107.327 56.4551 106.826 56.6178 106.299 56.9434C105.771 57.2689 105.283 57.7832 104.834 58.4863C104.385 59.1829 104.036 60.0944 103.789 61.2207L102.783 65.9375H101.045ZM112.617 61.3281L112.949 59.8242H117.656L117.334 61.3281H112.617ZM121.455 66.1328C120.804 66.1328 120.231 66.0677 119.736 65.9375C119.248 65.8073 118.822 65.6445 118.457 65.4492V63.9453C118.802 64.1536 119.238 64.349 119.766 64.5312C120.299 64.7135 120.846 64.8047 121.406 64.8047C121.96 64.8047 122.419 64.7298 122.783 64.5801C123.154 64.4303 123.431 64.2253 123.613 63.9648C123.802 63.6979 123.896 63.3887 123.896 63.0371C123.896 62.7572 123.835 62.5163 123.711 62.3145C123.594 62.1061 123.398 61.9043 123.125 61.709C122.858 61.5137 122.5 61.2891 122.051 61.0352C121.549 60.7552 121.126 60.472 120.781 60.1855C120.436 59.8991 120.173 59.5866 119.99 59.248C119.814 58.903 119.727 58.5026 119.727 58.0469C119.727 57.4349 119.876 56.9043 120.176 56.4551C120.475 56.0059 120.895 55.6576 121.436 55.4102C121.982 55.1628 122.62 55.0391 123.35 55.0391C123.994 55.0391 124.59 55.1139 125.137 55.2637C125.684 55.4069 126.156 55.5729 126.553 55.7617L126.025 57.0605C125.687 56.8978 125.299 56.748 124.863 56.6113C124.427 56.4746 123.923 56.4062 123.35 56.4062C122.738 56.4062 122.249 56.5462 121.885 56.8262C121.527 57.1061 121.348 57.4837 121.348 57.959C121.348 58.2064 121.4 58.4277 121.504 58.623C121.615 58.8184 121.803 59.0137 122.07 59.209C122.337 59.3978 122.702 59.6191 123.164 59.873C123.613 60.1335 124.017 60.4004 124.375 60.6738C124.74 60.9408 125.026 61.25 125.234 61.6016C125.449 61.9466 125.557 62.373 125.557 62.8809C125.557 63.5775 125.391 64.1699 125.059 64.6582C124.727 65.14 124.251 65.5078 123.633 65.7617C123.021 66.0091 122.295 66.1328 121.455 66.1328ZM131.904 66.0938C131.084 66.0938 130.378 65.9277 129.785 65.5957C129.193 65.2572 128.737 64.7819 128.418 64.1699C128.105 63.5514 127.949 62.8223 127.949 61.9824C127.949 61.3053 128.024 60.638 128.174 59.9805C128.324 59.3164 128.545 58.6914 128.838 58.1055C129.131 57.513 129.492 56.9922 129.922 56.543C130.358 56.0872 130.859 55.7324 131.426 55.4785C131.992 55.2181 132.624 55.0879 133.32 55.0879C134.154 55.0879 134.863 55.2572 135.449 55.5957C136.042 55.9277 136.494 56.403 136.807 57.0215C137.126 57.64 137.285 58.3724 137.285 59.2188C137.285 59.8828 137.21 60.5436 137.061 61.2012C136.917 61.8587 136.699 62.4837 136.406 63.0762C136.12 63.6621 135.758 64.1829 135.322 64.6387C134.893 65.0879 134.391 65.4427 133.818 65.7031C133.252 65.9635 132.614 66.0938 131.904 66.0938ZM132.002 64.7461C132.406 64.7461 132.79 64.6615 133.154 64.4922C133.519 64.3229 133.851 64.0788 134.15 63.7598C134.45 63.4342 134.707 63.0404 134.922 62.5781C135.143 62.1094 135.312 61.5788 135.43 60.9863C135.553 60.3939 135.615 59.7428 135.615 59.0332C135.615 58.61 135.54 58.1999 135.391 57.8027C135.241 57.4056 135 57.0801 134.668 56.8262C134.336 56.5658 133.893 56.4355 133.34 56.4355C132.884 56.4355 132.461 56.5299 132.07 56.7188C131.686 56.9076 131.341 57.1745 131.035 57.5195C130.729 57.8646 130.469 58.2715 130.254 58.7402C130.046 59.209 129.883 59.7233 129.766 60.2832C129.655 60.8431 129.6 61.4323 129.6 62.0508C129.6 62.9036 129.808 63.5677 130.225 64.043C130.641 64.5117 131.234 64.7461 132.002 64.7461ZM142.021 66.1328C141.481 66.1328 141.009 66.0319 140.605 65.8301C140.202 65.6283 139.889 65.332 139.668 64.9414C139.453 64.5443 139.346 64.0592 139.346 63.4863C139.346 63.1999 139.365 62.9232 139.404 62.6562C139.45 62.3828 139.499 62.0996 139.551 61.8066L140.967 55.2344H142.607L141.152 61.9922C141.1 62.2721 141.058 62.5228 141.025 62.7441C140.999 62.959 140.986 63.151 140.986 63.3203C140.986 63.7826 141.104 64.1439 141.338 64.4043C141.579 64.6582 141.96 64.7852 142.48 64.7852C142.969 64.7852 143.48 64.6191 144.014 64.2871C144.554 63.9551 145.052 63.4342 145.508 62.7246C145.97 62.0085 146.322 61.0807 146.562 59.9414L147.559 55.2344H149.16L146.895 65.9375H145.557L145.82 63.8672H145.732C145.485 64.2057 145.186 64.5508 144.834 64.9023C144.482 65.2474 144.076 65.5404 143.613 65.7812C143.151 66.0156 142.62 66.1328 142.021 66.1328ZM150.332 65.9375L152.607 55.2344H153.936L153.682 57.3047H153.779C154.053 56.9336 154.346 56.5755 154.658 56.2305C154.971 55.8789 155.326 55.5924 155.723 55.3711C156.126 55.1497 156.589 55.0391 157.109 55.0391C157.305 55.0391 157.503 55.0521 157.705 55.0781C157.907 55.0977 158.096 55.1335 158.271 55.1855L157.92 56.6406C157.744 56.6016 157.572 56.5723 157.402 56.5527C157.24 56.5332 157.07 56.5234 156.895 56.5234C156.4 56.5234 155.941 56.6536 155.518 56.9141C155.094 57.168 154.714 57.5098 154.375 57.9395C154.043 58.3691 153.76 58.8477 153.525 59.375C153.298 59.9023 153.125 60.4395 153.008 60.9863L151.963 65.9375H150.332ZM162.617 66.1328C161.823 66.1328 161.126 65.9831 160.527 65.6836C159.935 65.3776 159.473 64.9284 159.141 64.3359C158.815 63.7435 158.652 63.0078 158.652 62.1289C158.652 61.3672 158.734 60.6348 158.896 59.9316C159.066 59.2285 159.31 58.5807 159.629 57.9883C159.948 57.3958 160.335 56.8783 160.791 56.4355C161.247 55.9928 161.764 55.651 162.344 55.4102C162.93 55.1628 163.568 55.0391 164.258 55.0391C164.72 55.0391 165.179 55.0846 165.635 55.1758C166.097 55.2604 166.514 55.3841 166.885 55.5469L166.426 56.9141C166.152 56.7839 165.83 56.6667 165.459 56.5625C165.088 56.4583 164.691 56.4062 164.268 56.4062C163.675 56.4062 163.135 56.556 162.646 56.8555C162.165 57.1549 161.748 57.5716 161.396 58.1055C161.051 58.6328 160.785 59.2383 160.596 59.9219C160.407 60.6055 160.312 61.3346 160.312 62.1094C160.312 62.6628 160.41 63.1413 160.605 63.5449C160.801 63.9421 161.081 64.248 161.445 64.4629C161.816 64.6777 162.259 64.7852 162.773 64.7852C163.249 64.7852 163.695 64.7201 164.111 64.5898C164.535 64.4596 164.948 64.3034 165.352 64.1211V65.5078C164.993 65.6901 164.583 65.8398 164.121 65.957C163.665 66.0742 163.164 66.1328 162.617 66.1328ZM171.592 66.1328C170.791 66.1328 170.101 65.9733 169.521 65.6543C168.942 65.3288 168.496 64.8665 168.184 64.2676C167.878 63.6621 167.725 62.9395 167.725 62.0996C167.725 61.2337 167.848 60.3841 168.096 59.5508C168.35 58.7109 168.711 57.9525 169.18 57.2754C169.648 56.5918 170.212 56.0482 170.869 55.6445C171.533 55.2409 172.275 55.0391 173.096 55.0391C174.079 55.0391 174.824 55.2604 175.332 55.7031C175.84 56.1393 176.094 56.7415 176.094 57.5098C176.094 58.0501 175.967 58.5482 175.713 59.0039C175.465 59.4596 175.081 59.8568 174.561 60.1953C174.046 60.5273 173.392 60.7878 172.598 60.9766C171.81 61.1589 170.876 61.25 169.795 61.25H169.424C169.411 61.3672 169.398 61.4974 169.385 61.6406C169.378 61.7839 169.375 61.9173 169.375 62.041C169.375 62.9004 169.583 63.5742 170 64.0625C170.417 64.5443 171.042 64.7852 171.875 64.7852C172.389 64.7852 172.874 64.7135 173.33 64.5703C173.792 64.4206 174.274 64.2253 174.775 63.9844V65.3809C174.294 65.6022 173.809 65.7845 173.32 65.9277C172.832 66.0645 172.256 66.1328 171.592 66.1328ZM169.658 59.9219H169.893C170.726 59.9219 171.491 59.8503 172.188 59.707C172.884 59.5573 173.444 59.3164 173.867 58.9844C174.29 58.6458 174.502 58.1966 174.502 57.6367C174.502 57.2721 174.378 56.9727 174.131 56.7383C173.883 56.5039 173.506 56.3867 172.998 56.3867C172.549 56.3867 172.106 56.5267 171.67 56.8066C171.234 57.0801 170.837 57.4805 170.479 58.0078C170.127 58.5352 169.854 59.1732 169.658 59.9219ZM181.465 70.7227L184.736 55.2344H186.064L185.801 57.3145H185.869C186.175 56.9108 186.51 56.5397 186.875 56.2012C187.246 55.8561 187.65 55.5794 188.086 55.3711C188.529 55.1628 189.01 55.0586 189.531 55.0586C190.117 55.0586 190.628 55.1986 191.064 55.4785C191.501 55.752 191.839 56.1621 192.08 56.709C192.327 57.2493 192.451 57.9232 192.451 58.7305C192.451 59.4987 192.373 60.2474 192.217 60.9766C192.067 61.6992 191.846 62.373 191.553 62.998C191.26 63.6165 190.898 64.1634 190.469 64.6387C190.046 65.1074 189.561 65.4753 189.014 65.7422C188.467 66.0026 187.865 66.1328 187.207 66.1328C186.706 66.1328 186.273 66.0449 185.908 65.8691C185.55 65.6868 185.247 65.4492 185 65.1562C184.759 64.8633 184.567 64.5475 184.424 64.209H184.336C184.31 64.4499 184.268 64.7656 184.209 65.1562C184.157 65.5404 184.102 65.8626 184.043 66.123L183.066 70.7227H181.465ZM187.09 64.7852C187.546 64.7852 187.962 64.6712 188.34 64.4434C188.724 64.2155 189.066 63.9062 189.365 63.5156C189.671 63.1185 189.928 62.6595 190.137 62.1387C190.352 61.6178 190.514 61.0645 190.625 60.4785C190.736 59.8926 190.791 59.2969 190.791 58.6914C190.791 57.9362 190.638 57.3665 190.332 56.9824C190.033 56.5983 189.583 56.4062 188.984 56.4062C188.672 56.4062 188.356 56.4844 188.037 56.6406C187.718 56.7904 187.409 57.0052 187.109 57.2852C186.81 57.5586 186.53 57.8841 186.27 58.2617C186.009 58.6393 185.781 59.056 185.586 59.5117C185.397 59.9674 185.247 60.4492 185.137 60.957C185.026 61.4648 184.971 61.9857 184.971 62.5195C184.971 63.2031 185.143 63.7533 185.488 64.1699C185.84 64.5801 186.374 64.7852 187.09 64.7852ZM197.324 66.1328C196.745 66.1328 196.237 65.9928 195.801 65.7129C195.365 65.4329 195.026 65.0195 194.785 64.4727C194.544 63.9258 194.424 63.2585 194.424 62.4707C194.424 61.6829 194.505 60.9245 194.668 60.1953C194.837 59.4661 195.075 58.7891 195.381 58.1641C195.687 57.5391 196.055 56.9922 196.484 56.5234C196.921 56.0547 197.409 55.6901 197.949 55.4297C198.49 55.1693 199.072 55.0391 199.697 55.0391C200.179 55.0391 200.596 55.1302 200.947 55.3125C201.305 55.4948 201.602 55.7357 201.836 56.0352C202.077 56.3281 202.266 56.6406 202.402 56.9727H202.5L203.125 55.2344H204.365L202.1 65.9375H200.801L201.094 63.8672H201.016C200.723 64.2578 200.387 64.6257 200.01 64.9707C199.632 65.3158 199.219 65.5957 198.77 65.8105C198.32 66.0254 197.839 66.1328 197.324 66.1328ZM197.852 64.7852C198.353 64.7852 198.848 64.6029 199.336 64.2383C199.831 63.8672 200.273 63.3691 200.664 62.7441C201.061 62.1126 201.364 61.403 201.572 60.6152C201.676 60.2311 201.745 59.8796 201.777 59.5605C201.816 59.235 201.836 58.9323 201.836 58.6523C201.836 57.9818 201.657 57.4414 201.299 57.0312C200.947 56.6146 200.465 56.4062 199.854 56.4062C199.417 56.4062 199.007 56.5169 198.623 56.7383C198.239 56.9531 197.891 57.2559 197.578 57.6465C197.272 58.0306 197.008 58.4798 196.787 58.9941C196.566 59.502 196.393 60.0553 196.27 60.6543C196.152 61.2533 196.094 61.8685 196.094 62.5C196.094 63.2487 196.247 63.8184 196.553 64.209C196.859 64.5931 197.292 64.7852 197.852 64.7852ZM205.332 65.9375L207.607 55.2344H208.936L208.682 57.3047H208.779C209.053 56.9336 209.346 56.5755 209.658 56.2305C209.971 55.8789 210.326 55.5924 210.723 55.3711C211.126 55.1497 211.589 55.0391 212.109 55.0391C212.305 55.0391 212.503 55.0521 212.705 55.0781C212.907 55.0977 213.096 55.1335 213.271 55.1855L212.92 56.6406C212.744 56.6016 212.572 56.5723 212.402 56.5527C212.24 56.5332 212.07 56.5234 211.895 56.5234C211.4 56.5234 210.941 56.6536 210.518 56.9141C210.094 57.168 209.714 57.5098 209.375 57.9395C209.043 58.3691 208.76 58.8477 208.525 59.375C208.298 59.9023 208.125 60.4395 208.008 60.9863L206.963 65.9375H205.332ZM216.543 66.1328C215.964 66.1328 215.456 65.9928 215.02 65.7129C214.583 65.4329 214.245 65.0195 214.004 64.4727C213.763 63.9258 213.643 63.2585 213.643 62.4707C213.643 61.6829 213.724 60.9245 213.887 60.1953C214.056 59.4661 214.294 58.7891 214.6 58.1641C214.906 57.5391 215.273 56.9922 215.703 56.5234C216.139 56.0547 216.628 55.6901 217.168 55.4297C217.708 55.1693 218.291 55.0391 218.916 55.0391C219.398 55.0391 219.814 55.1302 220.166 55.3125C220.524 55.4948 220.82 55.7357 221.055 56.0352C221.296 56.3281 221.484 56.6406 221.621 56.9727H221.719L222.344 55.2344H223.584L221.318 65.9375H220.02L220.312 63.8672H220.234C219.941 64.2578 219.606 64.6257 219.229 64.9707C218.851 65.3158 218.438 65.5957 217.988 65.8105C217.539 66.0254 217.057 66.1328 216.543 66.1328ZM217.07 64.7852C217.572 64.7852 218.066 64.6029 218.555 64.2383C219.049 63.8672 219.492 63.3691 219.883 62.7441C220.28 62.1126 220.583 61.403 220.791 60.6152C220.895 60.2311 220.964 59.8796 220.996 59.5605C221.035 59.235 221.055 58.9323 221.055 58.6523C221.055 57.9818 220.876 57.4414 220.518 57.0312C220.166 56.6146 219.684 56.4062 219.072 56.4062C218.636 56.4062 218.226 56.5169 217.842 56.7383C217.458 56.9531 217.109 57.2559 216.797 57.6465C216.491 58.0306 216.227 58.4798 216.006 58.9941C215.785 59.502 215.612 60.0553 215.488 60.6543C215.371 61.2533 215.312 61.8685 215.312 62.5C215.312 63.2487 215.465 63.8184 215.771 64.209C216.077 64.5931 216.51 64.7852 217.07 64.7852ZM234.121 66.1328C233.327 66.1328 232.63 65.9831 232.031 65.6836C231.439 65.3776 230.977 64.9284 230.645 64.3359C230.319 63.7435 230.156 63.0078 230.156 62.1289C230.156 61.3672 230.238 60.6348 230.4 59.9316C230.57 59.2285 230.814 58.5807 231.133 57.9883C231.452 57.3958 231.839 56.8783 232.295 56.4355C232.751 55.9928 233.268 55.651 233.848 55.4102C234.434 55.1628 235.072 55.0391 235.762 55.0391C236.224 55.0391 236.683 55.0846 237.139 55.1758C237.601 55.2604 238.018 55.3841 238.389 55.5469L237.93 56.9141C237.656 56.7839 237.334 56.6667 236.963 56.5625C236.592 56.4583 236.195 56.4062 235.771 56.4062C235.179 56.4062 234.639 56.556 234.15 56.8555C233.669 57.1549 233.252 57.5716 232.9 58.1055C232.555 58.6328 232.288 59.2383 232.1 59.9219C231.911 60.6055 231.816 61.3346 231.816 62.1094C231.816 62.6628 231.914 63.1413 232.109 63.5449C232.305 63.9421 232.585 64.248 232.949 64.4629C233.32 64.6777 233.763 64.7852 234.277 64.7852C234.753 64.7852 235.199 64.7201 235.615 64.5898C236.038 64.4596 236.452 64.3034 236.855 64.1211V65.5078C236.497 65.6901 236.087 65.8398 235.625 65.957C235.169 66.0742 234.668 66.1328 234.121 66.1328ZM238.809 65.9375L241.084 55.2344H242.412L242.158 57.3047H242.256C242.529 56.9336 242.822 56.5755 243.135 56.2305C243.447 55.8789 243.802 55.5924 244.199 55.3711C244.603 55.1497 245.065 55.0391 245.586 55.0391C245.781 55.0391 245.98 55.0521 246.182 55.0781C246.383 55.0977 246.572 55.1335 246.748 55.1855L246.396 56.6406C246.221 56.6016 246.048 56.5723 245.879 56.5527C245.716 56.5332 245.547 56.5234 245.371 56.5234C244.876 56.5234 244.417 56.6536 243.994 56.9141C243.571 57.168 243.19 57.5098 242.852 57.9395C242.52 58.3691 242.236 58.8477 242.002 59.375C241.774 59.9023 241.602 60.4395 241.484 60.9863L240.439 65.9375H238.809ZM246.719 65.9375L248.994 55.2344H250.625L248.35 65.9375H246.719ZM250.361 53.3594C250.101 53.3594 249.883 53.2845 249.707 53.1348C249.538 52.9785 249.453 52.7604 249.453 52.4805C249.453 52.2656 249.495 52.0638 249.58 51.875C249.671 51.6862 249.798 51.5365 249.961 51.4258C250.13 51.3086 250.335 51.25 250.576 51.25C250.863 51.25 251.077 51.3249 251.221 51.4746C251.364 51.6243 251.436 51.8327 251.436 52.0996C251.436 52.4837 251.325 52.7897 251.104 53.0176C250.882 53.2454 250.635 53.3594 250.361 53.3594ZM255.078 66.1328C254.499 66.1328 253.991 65.9928 253.555 65.7129C253.118 65.4329 252.78 65.0195 252.539 64.4727C252.298 63.9258 252.178 63.2585 252.178 62.4707C252.178 61.6829 252.259 60.9245 252.422 60.1953C252.591 59.4661 252.829 58.7891 253.135 58.1641C253.441 57.5391 253.809 56.9922 254.238 56.5234C254.674 56.0547 255.163 55.6901 255.703 55.4297C256.243 55.1693 256.826 55.0391 257.451 55.0391C257.933 55.0391 258.35 55.1302 258.701 55.3125C259.059 55.4948 259.355 55.7357 259.59 56.0352C259.831 56.3281 260.02 56.6406 260.156 56.9727H260.254L260.879 55.2344H262.119L259.854 65.9375H258.555L258.848 63.8672H258.77C258.477 64.2578 258.141 64.6257 257.764 64.9707C257.386 65.3158 256.973 65.5957 256.523 65.8105C256.074 66.0254 255.592 66.1328 255.078 66.1328ZM255.605 64.7852C256.107 64.7852 256.602 64.6029 257.09 64.2383C257.585 63.8672 258.027 63.3691 258.418 62.7441C258.815 62.1126 259.118 61.403 259.326 60.6152C259.43 60.2311 259.499 59.8796 259.531 59.5605C259.57 59.235 259.59 58.9323 259.59 58.6523C259.59 57.9818 259.411 57.4414 259.053 57.0312C258.701 56.6146 258.219 56.4062 257.607 56.4062C257.171 56.4062 256.761 56.5169 256.377 56.7383C255.993 56.9531 255.645 57.2559 255.332 57.6465C255.026 58.0306 254.762 58.4798 254.541 58.9941C254.32 59.502 254.147 60.0553 254.023 60.6543C253.906 61.2533 253.848 61.8685 253.848 62.5C253.848 63.2487 254.001 63.8184 254.307 64.209C254.613 64.5931 255.046 64.7852 255.605 64.7852ZM267.461 66.1328C266.667 66.1328 265.97 65.9831 265.371 65.6836C264.779 65.3776 264.316 64.9284 263.984 64.3359C263.659 63.7435 263.496 63.0078 263.496 62.1289C263.496 61.3672 263.577 60.6348 263.74 59.9316C263.91 59.2285 264.154 58.5807 264.473 57.9883C264.792 57.3958 265.179 56.8783 265.635 56.4355C266.09 55.9928 266.608 55.651 267.188 55.4102C267.773 55.1628 268.411 55.0391 269.102 55.0391C269.564 55.0391 270.023 55.0846 270.479 55.1758C270.941 55.2604 271.357 55.3841 271.729 55.5469L271.27 56.9141C270.996 56.7839 270.674 56.6667 270.303 56.5625C269.932 56.4583 269.535 56.4062 269.111 56.4062C268.519 56.4062 267.979 56.556 267.49 56.8555C267.008 57.1549 266.592 57.5716 266.24 58.1055C265.895 58.6328 265.628 59.2383 265.439 59.9219C265.251 60.6055 265.156 61.3346 265.156 62.1094C265.156 62.6628 265.254 63.1413 265.449 63.5449C265.645 63.9421 265.924 64.248 266.289 64.4629C266.66 64.6777 267.103 64.7852 267.617 64.7852C268.092 64.7852 268.538 64.7201 268.955 64.5898C269.378 64.4596 269.792 64.3034 270.195 64.1211V65.5078C269.837 65.6901 269.427 65.8398 268.965 65.957C268.509 66.0742 268.008 66.1328 267.461 66.1328ZM265.312 70.7422C265.137 70.7422 264.967 70.7292 264.805 70.7031C264.642 70.6836 264.505 70.6608 264.395 70.6348V69.6582C264.525 69.6842 264.658 69.7038 264.795 69.7168C264.932 69.7298 265.052 69.7363 265.156 69.7363C265.514 69.7363 265.817 69.694 266.064 69.6094C266.312 69.5312 266.501 69.4076 266.631 69.2383C266.761 69.0755 266.826 68.8704 266.826 68.623C266.826 68.3301 266.699 68.112 266.445 67.9688C266.198 67.8255 265.863 67.7311 265.439 67.6855L266.406 65.9375H267.451L266.865 67.0996C267.191 67.1842 267.487 67.3372 267.754 67.5586C268.027 67.7865 268.164 68.1413 268.164 68.623C268.164 69.0267 268.053 69.388 267.832 69.707C267.611 70.026 267.285 70.2767 266.855 70.459C266.432 70.6478 265.918 70.7422 265.312 70.7422ZM275.449 66.1328C274.87 66.1328 274.362 65.9928 273.926 65.7129C273.49 65.4329 273.151 65.0195 272.91 64.4727C272.669 63.9258 272.549 63.2585 272.549 62.4707C272.549 61.6829 272.63 60.9245 272.793 60.1953C272.962 59.4661 273.2 58.7891 273.506 58.1641C273.812 57.5391 274.18 56.9922 274.609 56.5234C275.046 56.0547 275.534 55.6901 276.074 55.4297C276.615 55.1693 277.197 55.0391 277.822 55.0391C278.304 55.0391 278.721 55.1302 279.072 55.3125C279.43 55.4948 279.727 55.7357 279.961 56.0352C280.202 56.3281 280.391 56.6406 280.527 56.9727H280.625L281.25 55.2344H282.49L280.225 65.9375H278.926L279.219 63.8672H279.141C278.848 64.2578 278.512 64.6257 278.135 64.9707C277.757 65.3158 277.344 65.5957 276.895 65.8105C276.445 66.0254 275.964 66.1328 275.449 66.1328ZM275.977 64.7852C276.478 64.7852 276.973 64.6029 277.461 64.2383C277.956 63.8672 278.398 63.3691 278.789 62.7441C279.186 62.1126 279.489 61.403 279.697 60.6152C279.801 60.2311 279.87 59.8796 279.902 59.5605C279.941 59.235 279.961 58.9323 279.961 58.6523C279.961 57.9818 279.782 57.4414 279.424 57.0312C279.072 56.6146 278.59 56.4062 277.979 56.4062C277.542 56.4062 277.132 56.5169 276.748 56.7383C276.364 56.9531 276.016 57.2559 275.703 57.6465C275.397 58.0306 275.133 58.4798 274.912 58.9941C274.691 59.502 274.518 60.0553 274.395 60.6543C274.277 61.2533 274.219 61.8685 274.219 62.5C274.219 63.2487 274.372 63.8184 274.678 64.209C274.984 64.5931 275.417 64.7852 275.977 64.7852ZM275.293 53.7891C275.41 53.2487 275.573 52.793 275.781 52.4219C275.99 52.0508 276.24 51.7708 276.533 51.582C276.833 51.3932 277.174 51.2988 277.559 51.2988C277.852 51.2988 278.125 51.3574 278.379 51.4746C278.639 51.5853 278.883 51.7155 279.111 51.8652C279.339 52.015 279.551 52.1484 279.746 52.2656C279.948 52.3763 280.14 52.4316 280.322 52.4316C280.609 52.4316 280.837 52.347 281.006 52.1777C281.175 52.002 281.341 51.7025 281.504 51.2793H282.51C282.367 51.8197 282.188 52.2754 281.973 52.6465C281.758 53.0176 281.504 53.3008 281.211 53.4961C280.918 53.6849 280.583 53.7793 280.205 53.7793C279.938 53.7793 279.684 53.724 279.443 53.6133C279.202 53.4961 278.968 53.3626 278.74 53.2129C278.519 53.0566 278.301 52.9232 278.086 52.8125C277.871 52.6953 277.653 52.6367 277.432 52.6367C277.152 52.6367 276.927 52.7311 276.758 52.9199C276.589 53.1022 276.429 53.3919 276.279 53.7891H275.293ZM287.822 66.0938C287.002 66.0938 286.296 65.9277 285.703 65.5957C285.111 65.2572 284.655 64.7819 284.336 64.1699C284.023 63.5514 283.867 62.8223 283.867 61.9824C283.867 61.3053 283.942 60.638 284.092 59.9805C284.242 59.3164 284.463 58.6914 284.756 58.1055C285.049 57.513 285.41 56.9922 285.84 56.543C286.276 56.0872 286.777 55.7324 287.344 55.4785C287.91 55.2181 288.542 55.0879 289.238 55.0879C290.072 55.0879 290.781 55.2572 291.367 55.5957C291.96 55.9277 292.412 56.403 292.725 57.0215C293.044 57.64 293.203 58.3724 293.203 59.2188C293.203 59.8828 293.128 60.5436 292.979 61.2012C292.835 61.8587 292.617 62.4837 292.324 63.0762C292.038 63.6621 291.676 64.1829 291.24 64.6387C290.811 65.0879 290.309 65.4427 289.736 65.7031C289.17 65.9635 288.532 66.0938 287.822 66.0938ZM287.92 64.7461C288.324 64.7461 288.708 64.6615 289.072 64.4922C289.437 64.3229 289.769 64.0788 290.068 63.7598C290.368 63.4342 290.625 63.0404 290.84 62.5781C291.061 62.1094 291.23 61.5788 291.348 60.9863C291.471 60.3939 291.533 59.7428 291.533 59.0332C291.533 58.61 291.458 58.1999 291.309 57.8027C291.159 57.4056 290.918 57.0801 290.586 56.8262C290.254 56.5658 289.811 56.4355 289.258 56.4355C288.802 56.4355 288.379 56.5299 287.988 56.7188C287.604 56.9076 287.259 57.1745 286.953 57.5195C286.647 57.8646 286.387 58.2715 286.172 58.7402C285.964 59.209 285.801 59.7233 285.684 60.2832C285.573 60.8431 285.518 61.4323 285.518 62.0508C285.518 62.9036 285.726 63.5677 286.143 64.043C286.559 64.5117 287.152 64.7461 287.92 64.7461ZM50.6543 93.1328C50.0684 93.1328 49.5573 92.9961 49.1211 92.7227C48.6849 92.4492 48.3464 92.0423 48.1055 91.502C47.8646 90.9551 47.7441 90.278 47.7441 89.4707C47.7441 88.7025 47.8223 87.957 47.9785 87.2344C48.1348 86.5052 48.3594 85.8281 48.6523 85.2031C48.9518 84.5781 49.3164 84.0312 49.7461 83.5625C50.1758 83.0872 50.6641 82.7194 51.2109 82.459C51.7643 82.1921 52.3698 82.0586 53.0273 82.0586C53.5286 82.0586 53.9583 82.1497 54.3164 82.332C54.6745 82.5143 54.9707 82.752 55.2051 83.0449C55.446 83.3314 55.6348 83.6406 55.7715 83.9727H55.8691C55.9082 83.6732 55.9473 83.3835 55.9863 83.1035C56.0254 82.8171 56.071 82.5273 56.123 82.2344C56.1816 81.9414 56.2467 81.6387 56.3184 81.3262L57.0703 77.7422H58.6816L55.459 92.9375H54.1211L54.3848 90.8672H54.3164C54.0039 91.2708 53.6621 91.6452 53.291 91.9902C52.9264 92.3353 52.526 92.612 52.0898 92.8203C51.6536 93.0286 51.1751 93.1328 50.6543 93.1328ZM51.2012 91.7852C51.5072 91.7852 51.8164 91.7103 52.1289 91.5605C52.4479 91.4108 52.7572 91.1992 53.0566 90.9258C53.3561 90.6458 53.6361 90.3171 53.8965 89.9395C54.1569 89.5618 54.3848 89.1452 54.5801 88.6895C54.7819 88.2337 54.9382 87.752 55.0488 87.2441C55.1595 86.7363 55.2148 86.2122 55.2148 85.6719C55.2148 84.9818 55.0488 84.4316 54.7168 84.0215C54.3848 83.6113 53.8542 83.4062 53.125 83.4062C52.6758 83.4062 52.2591 83.5202 51.875 83.748C51.4974 83.9759 51.1556 84.2884 50.8496 84.6855C50.5436 85.0827 50.2832 85.5417 50.0684 86.0625C49.86 86.5768 49.6973 87.1302 49.5801 87.7227C49.4694 88.3086 49.4141 88.901 49.4141 89.5C49.4141 90.2487 49.5638 90.8184 49.8633 91.209C50.1628 91.5931 50.6087 91.7852 51.2012 91.7852ZM63.1934 93.1328C62.3926 93.1328 61.7025 92.9733 61.123 92.6543C60.5436 92.3288 60.0977 91.8665 59.7852 91.2676C59.4792 90.6621 59.3262 89.9395 59.3262 89.0996C59.3262 88.2337 59.4499 87.3841 59.6973 86.5508C59.9512 85.7109 60.3125 84.9525 60.7812 84.2754C61.25 83.5918 61.8132 83.0482 62.4707 82.6445C63.1348 82.2409 63.877 82.0391 64.6973 82.0391C65.6803 82.0391 66.4258 82.2604 66.9336 82.7031C67.4414 83.1393 67.6953 83.7415 67.6953 84.5098C67.6953 85.0501 67.5684 85.5482 67.3145 86.0039C67.0671 86.4596 66.6829 86.8568 66.1621 87.1953C65.6478 87.5273 64.9935 87.7878 64.1992 87.9766C63.4115 88.1589 62.4772 88.25 61.3965 88.25H61.0254C61.0124 88.3672 60.9993 88.4974 60.9863 88.6406C60.9798 88.7839 60.9766 88.9173 60.9766 89.041C60.9766 89.9004 61.1849 90.5742 61.6016 91.0625C62.0182 91.5443 62.6432 91.7852 63.4766 91.7852C63.9909 91.7852 64.4759 91.7135 64.9316 91.5703C65.3939 91.4206 65.8757 91.2253 66.377 90.9844V92.3809C65.8952 92.6022 65.4102 92.7845 64.9219 92.9277C64.4336 93.0645 63.8574 93.1328 63.1934 93.1328ZM61.2598 86.9219H61.4941C62.3275 86.9219 63.0924 86.8503 63.7891 86.707C64.4857 86.5573 65.0456 86.3164 65.4688 85.9844C65.8919 85.6458 66.1035 85.1966 66.1035 84.6367C66.1035 84.2721 65.9798 83.9727 65.7324 83.7383C65.485 83.5039 65.1074 83.3867 64.5996 83.3867C64.1504 83.3867 63.7077 83.5267 63.2715 83.8066C62.8353 84.0801 62.4382 84.4805 62.0801 85.0078C61.7285 85.5352 61.4551 86.1732 61.2598 86.9219ZM77.3633 93.1328C76.7839 93.1328 76.276 92.9928 75.8398 92.7129C75.4036 92.4329 75.0651 92.0195 74.8242 91.4727C74.5833 90.9258 74.4629 90.2585 74.4629 89.4707C74.4629 88.6829 74.5443 87.9245 74.707 87.1953C74.8763 86.4661 75.1139 85.7891 75.4199 85.1641C75.7259 84.5391 76.0938 83.9922 76.5234 83.5234C76.9596 83.0547 77.4479 82.6901 77.9883 82.4297C78.5286 82.1693 79.1113 82.0391 79.7363 82.0391C80.2181 82.0391 80.6348 82.1302 80.9863 82.3125C81.3444 82.4948 81.6406 82.7357 81.875 83.0352C82.1159 83.3281 82.3047 83.6406 82.4414 83.9727H82.5391L83.1641 82.2344H84.4043L82.1387 92.9375H80.8398L81.1328 90.8672H81.0547C80.7617 91.2578 80.4264 91.6257 80.0488 91.9707C79.6712 92.3158 79.2578 92.5957 78.8086 92.8105C78.3594 93.0254 77.8776 93.1328 77.3633 93.1328ZM77.8906 91.7852C78.3919 91.7852 78.8867 91.6029 79.375 91.2383C79.8698 90.8672 80.3125 90.3691 80.7031 89.7441C81.1003 89.1126 81.403 88.403 81.6113 87.6152C81.7155 87.2311 81.7839 86.8796 81.8164 86.5605C81.8555 86.235 81.875 85.9323 81.875 85.6523C81.875 84.9818 81.696 84.4414 81.3379 84.0312C80.9863 83.6146 80.5046 83.4062 79.8926 83.4062C79.4564 83.4062 79.0462 83.5169 78.6621 83.7383C78.278 83.9531 77.9297 84.2559 77.6172 84.6465C77.3112 85.0306 77.0475 85.4798 76.8262 85.9941C76.6048 86.502 76.4323 87.0553 76.3086 87.6543C76.1914 88.2533 76.1328 88.8685 76.1328 89.5C76.1328 90.2487 76.2858 90.8184 76.5918 91.209C76.8978 91.5931 77.3307 91.7852 77.8906 91.7852ZM85.3027 92.9375L87.5977 82.1855H89.0332L88.7793 84.2461H88.7988C89.0462 83.9076 89.3424 83.5658 89.6875 83.2207C90.0391 82.8691 90.446 82.5762 90.9082 82.3418C91.377 82.1009 91.9076 81.9805 92.5 81.9805C93.0729 81.9805 93.5645 82.0879 93.9746 82.3027C94.3848 82.5111 94.7005 82.8171 94.9219 83.2207C95.1432 83.6178 95.2539 84.0996 95.2539 84.666C95.2539 84.9655 95.2311 85.2682 95.1855 85.5742C95.14 85.8802 95.0911 86.1536 95.0391 86.3945L93.6133 92.9375H91.8848L93.3301 86.1797C93.3887 85.8867 93.4342 85.6361 93.4668 85.4277C93.5059 85.2194 93.5254 85.0241 93.5254 84.8418C93.5254 84.3861 93.4017 84.041 93.1543 83.8066C92.9069 83.5723 92.5423 83.4551 92.0605 83.4551C91.5853 83.4551 91.084 83.6178 90.5566 83.9434C90.0293 84.2689 89.541 84.7832 89.0918 85.4863C88.6426 86.1829 88.2943 87.0944 88.0469 88.2207L87.041 92.9375H85.3027ZM96.8945 92.9375L99.1699 82.2344H100.801L98.5254 92.9375H96.8945ZM100.537 80.3594C100.277 80.3594 100.059 80.2845 99.8828 80.1348C99.7135 79.9785 99.6289 79.7604 99.6289 79.4805C99.6289 79.2656 99.6712 79.0638 99.7559 78.875C99.847 78.6862 99.974 78.5365 100.137 78.4258C100.306 78.3086 100.511 78.25 100.752 78.25C101.038 78.25 101.253 78.3249 101.396 78.4746C101.54 78.6243 101.611 78.8327 101.611 79.0996C101.611 79.4837 101.501 79.7897 101.279 80.0176C101.058 80.2454 100.811 80.3594 100.537 80.3594ZM101.953 92.9375L104.229 82.2344H105.557L105.303 84.3047H105.4C105.635 83.9661 105.918 83.6243 106.25 83.2793C106.582 82.9277 106.966 82.6348 107.402 82.4004C107.845 82.1595 108.346 82.0391 108.906 82.0391C109.661 82.0391 110.234 82.2572 110.625 82.6934C111.016 83.1296 111.243 83.7253 111.309 84.4805H111.377C111.637 84.0833 111.95 83.6992 112.314 83.3281C112.679 82.9505 113.092 82.6413 113.555 82.4004C114.023 82.1595 114.538 82.0391 115.098 82.0391C115.924 82.0391 116.562 82.2637 117.012 82.7129C117.461 83.1621 117.686 83.8132 117.686 84.666C117.686 84.972 117.666 85.2617 117.627 85.5352C117.594 85.8086 117.542 86.0885 117.471 86.375L116.084 92.9375H114.443L115.889 86.1992C115.947 85.9062 115.99 85.6523 116.016 85.4375C116.048 85.2227 116.064 85.0176 116.064 84.8223C116.064 84.3861 115.947 84.041 115.713 83.7871C115.479 83.5332 115.117 83.4062 114.629 83.4062C114.284 83.4062 113.926 83.5007 113.555 83.6895C113.184 83.8783 112.822 84.1647 112.471 84.5488C112.126 84.9264 111.813 85.4049 111.533 85.9844C111.253 86.5638 111.029 87.2441 110.859 88.0254L109.814 92.9375H108.193L109.619 86.2285C109.678 85.929 109.72 85.6719 109.746 85.457C109.779 85.2357 109.795 85.0469 109.795 84.8906C109.795 84.4284 109.688 84.0671 109.473 83.8066C109.258 83.5397 108.906 83.4062 108.418 83.4062C108.073 83.4062 107.712 83.4974 107.334 83.6797C106.963 83.862 106.602 84.1484 106.25 84.5391C105.898 84.9297 105.576 85.4277 105.283 86.0332C104.99 86.6387 104.756 87.3678 104.58 88.2207L103.584 92.9375H101.953ZM122.695 93.1328C122.116 93.1328 121.608 92.9928 121.172 92.7129C120.736 92.4329 120.397 92.0195 120.156 91.4727C119.915 90.9258 119.795 90.2585 119.795 89.4707C119.795 88.6829 119.876 87.9245 120.039 87.1953C120.208 86.4661 120.446 85.7891 120.752 85.1641C121.058 84.5391 121.426 83.9922 121.855 83.5234C122.292 83.0547 122.78 82.6901 123.32 82.4297C123.861 82.1693 124.443 82.0391 125.068 82.0391C125.55 82.0391 125.967 82.1302 126.318 82.3125C126.676 82.4948 126.973 82.7357 127.207 83.0352C127.448 83.3281 127.637 83.6406 127.773 83.9727H127.871L128.496 82.2344H129.736L127.471 92.9375H126.172L126.465 90.8672H126.387C126.094 91.2578 125.758 91.6257 125.381 91.9707C125.003 92.3158 124.59 92.5957 124.141 92.8105C123.691 93.0254 123.21 93.1328 122.695 93.1328ZM123.223 91.7852C123.724 91.7852 124.219 91.6029 124.707 91.2383C125.202 90.8672 125.645 90.3691 126.035 89.7441C126.432 89.1126 126.735 88.403 126.943 87.6152C127.048 87.2311 127.116 86.8796 127.148 86.5605C127.188 86.235 127.207 85.9323 127.207 85.6523C127.207 84.9818 127.028 84.4414 126.67 84.0312C126.318 83.6146 125.837 83.4062 125.225 83.4062C124.788 83.4062 124.378 83.5169 123.994 83.7383C123.61 83.9531 123.262 84.2559 122.949 84.6465C122.643 85.0306 122.38 85.4798 122.158 85.9941C121.937 86.502 121.764 87.0553 121.641 87.6543C121.523 88.2533 121.465 88.8685 121.465 89.5C121.465 90.2487 121.618 90.8184 121.924 91.209C122.23 91.5931 122.663 91.7852 123.223 91.7852ZM135.078 93.1328C134.284 93.1328 133.587 92.9831 132.988 92.6836C132.396 92.3776 131.934 91.9284 131.602 91.3359C131.276 90.7435 131.113 90.0078 131.113 89.1289C131.113 88.3672 131.195 87.6348 131.357 86.9316C131.527 86.2285 131.771 85.5807 132.09 84.9883C132.409 84.3958 132.796 83.8783 133.252 83.4355C133.708 82.9928 134.225 82.651 134.805 82.4102C135.391 82.1628 136.029 82.0391 136.719 82.0391C137.181 82.0391 137.64 82.0846 138.096 82.1758C138.558 82.2604 138.975 82.3841 139.346 82.5469L138.887 83.9141C138.613 83.7839 138.291 83.6667 137.92 83.5625C137.549 83.4583 137.152 83.4062 136.729 83.4062C136.136 83.4062 135.596 83.556 135.107 83.8555C134.626 84.1549 134.209 84.5716 133.857 85.1055C133.512 85.6328 133.245 86.2383 133.057 86.9219C132.868 87.6055 132.773 88.3346 132.773 89.1094C132.773 89.6628 132.871 90.1413 133.066 90.5449C133.262 90.9421 133.542 91.248 133.906 91.4629C134.277 91.6777 134.72 91.7852 135.234 91.7852C135.71 91.7852 136.156 91.7201 136.572 91.5898C136.995 91.4596 137.409 91.3034 137.812 91.1211V92.5078C137.454 92.6901 137.044 92.8398 136.582 92.957C136.126 93.0742 135.625 93.1328 135.078 93.1328ZM132.93 97.7422C132.754 97.7422 132.585 97.7292 132.422 97.7031C132.259 97.6836 132.122 97.6608 132.012 97.6348V96.6582C132.142 96.6842 132.275 96.7038 132.412 96.7168C132.549 96.7298 132.669 96.7363 132.773 96.7363C133.132 96.7363 133.434 96.694 133.682 96.6094C133.929 96.5312 134.118 96.4076 134.248 96.2383C134.378 96.0755 134.443 95.8704 134.443 95.623C134.443 95.3301 134.316 95.112 134.062 94.9688C133.815 94.8255 133.48 94.7311 133.057 94.6855L134.023 92.9375H135.068L134.482 94.0996C134.808 94.1842 135.104 94.3372 135.371 94.5586C135.645 94.7865 135.781 95.1413 135.781 95.623C135.781 96.0267 135.671 96.388 135.449 96.707C135.228 97.026 134.902 97.2767 134.473 97.459C134.049 97.6478 133.535 97.7422 132.93 97.7422ZM144.131 93.0938C143.311 93.0938 142.604 92.9277 142.012 92.5957C141.419 92.2572 140.964 91.7819 140.645 91.1699C140.332 90.5514 140.176 89.8223 140.176 88.9824C140.176 88.3053 140.251 87.638 140.4 86.9805C140.55 86.3164 140.771 85.6914 141.064 85.1055C141.357 84.513 141.719 83.9922 142.148 83.543C142.585 83.0872 143.086 82.7324 143.652 82.4785C144.219 82.2181 144.85 82.0879 145.547 82.0879C146.38 82.0879 147.09 82.2572 147.676 82.5957C148.268 82.9277 148.721 83.403 149.033 84.0215C149.352 84.64 149.512 85.3724 149.512 86.2188C149.512 86.8828 149.437 87.5436 149.287 88.2012C149.144 88.8587 148.926 89.4837 148.633 90.0762C148.346 90.6621 147.985 91.1829 147.549 91.6387C147.119 92.0879 146.618 92.4427 146.045 92.7031C145.479 92.9635 144.84 93.0938 144.131 93.0938ZM144.229 91.7461C144.632 91.7461 145.016 91.6615 145.381 91.4922C145.745 91.3229 146.077 91.0788 146.377 90.7598C146.676 90.4342 146.934 90.0404 147.148 89.5781C147.37 89.1094 147.539 88.5788 147.656 87.9863C147.78 87.3939 147.842 86.7428 147.842 86.0332C147.842 85.61 147.767 85.1999 147.617 84.8027C147.467 84.4056 147.227 84.0801 146.895 83.8262C146.562 83.5658 146.12 83.4355 145.566 83.4355C145.111 83.4355 144.688 83.5299 144.297 83.7188C143.913 83.9076 143.568 84.1745 143.262 84.5195C142.956 84.8646 142.695 85.2715 142.48 85.7402C142.272 86.209 142.109 86.7233 141.992 87.2832C141.882 87.8431 141.826 88.4323 141.826 89.0508C141.826 89.9036 142.035 90.5677 142.451 91.043C142.868 91.5117 143.46 91.7461 144.229 91.7461ZM142.588 80.7891C142.705 80.2487 142.868 79.793 143.076 79.4219C143.285 79.0508 143.535 78.7708 143.828 78.582C144.128 78.3932 144.469 78.2988 144.854 78.2988C145.146 78.2988 145.42 78.3574 145.674 78.4746C145.934 78.5853 146.178 78.7155 146.406 78.8652C146.634 79.015 146.846 79.1484 147.041 79.2656C147.243 79.3763 147.435 79.4316 147.617 79.4316C147.904 79.4316 148.132 79.347 148.301 79.1777C148.47 79.002 148.636 78.7025 148.799 78.2793H149.805C149.661 78.8197 149.482 79.2754 149.268 79.6465C149.053 80.0176 148.799 80.3008 148.506 80.4961C148.213 80.6849 147.878 80.7793 147.5 80.7793C147.233 80.7793 146.979 80.724 146.738 80.6133C146.497 80.4961 146.263 80.3626 146.035 80.2129C145.814 80.0566 145.596 79.9232 145.381 79.8125C145.166 79.6953 144.948 79.6367 144.727 79.6367C144.447 79.6367 144.222 79.7311 144.053 79.9199C143.883 80.1022 143.724 80.3919 143.574 80.7891H142.588ZM155.322 93.1328C154.521 93.1328 153.831 92.9733 153.252 92.6543C152.673 92.3288 152.227 91.8665 151.914 91.2676C151.608 90.6621 151.455 89.9395 151.455 89.0996C151.455 88.2337 151.579 87.3841 151.826 86.5508C152.08 85.7109 152.441 84.9525 152.91 84.2754C153.379 83.5918 153.942 83.0482 154.6 82.6445C155.264 82.2409 156.006 82.0391 156.826 82.0391C157.809 82.0391 158.555 82.2604 159.062 82.7031C159.57 83.1393 159.824 83.7415 159.824 84.5098C159.824 85.0501 159.697 85.5482 159.443 86.0039C159.196 86.4596 158.812 86.8568 158.291 87.1953C157.777 87.5273 157.122 87.7878 156.328 87.9766C155.54 88.1589 154.606 88.25 153.525 88.25H153.154C153.141 88.3672 153.128 88.4974 153.115 88.6406C153.109 88.7839 153.105 88.9173 153.105 89.041C153.105 89.9004 153.314 90.5742 153.73 91.0625C154.147 91.5443 154.772 91.7852 155.605 91.7852C156.12 91.7852 156.605 91.7135 157.061 91.5703C157.523 91.4206 158.005 91.2253 158.506 90.9844V92.3809C158.024 92.6022 157.539 92.7845 157.051 92.9277C156.562 93.0645 155.986 93.1328 155.322 93.1328ZM153.389 86.9219H153.623C154.456 86.9219 155.221 86.8503 155.918 86.707C156.615 86.5573 157.174 86.3164 157.598 85.9844C158.021 85.6458 158.232 85.1966 158.232 84.6367C158.232 84.2721 158.109 83.9727 157.861 83.7383C157.614 83.5039 157.236 83.3867 156.729 83.3867C156.279 83.3867 155.837 83.5267 155.4 83.8066C154.964 84.0801 154.567 84.4805 154.209 85.0078C153.857 85.5352 153.584 86.1732 153.389 86.9219ZM163.545 93.1328C162.894 93.1328 162.321 93.0677 161.826 92.9375C161.338 92.8073 160.911 92.6445 160.547 92.4492V90.9453C160.892 91.1536 161.328 91.349 161.855 91.5312C162.389 91.7135 162.936 91.8047 163.496 91.8047C164.049 91.8047 164.508 91.7298 164.873 91.5801C165.244 91.4303 165.521 91.2253 165.703 90.9648C165.892 90.6979 165.986 90.3887 165.986 90.0371C165.986 89.7572 165.924 89.5163 165.801 89.3145C165.684 89.1061 165.488 88.9043 165.215 88.709C164.948 88.5137 164.59 88.2891 164.141 88.0352C163.639 87.7552 163.216 87.472 162.871 87.1855C162.526 86.8991 162.262 86.5866 162.08 86.248C161.904 85.903 161.816 85.5026 161.816 85.0469C161.816 84.4349 161.966 83.9043 162.266 83.4551C162.565 83.0059 162.985 82.6576 163.525 82.4102C164.072 82.1628 164.71 82.0391 165.439 82.0391C166.084 82.0391 166.68 82.1139 167.227 82.2637C167.773 82.4069 168.245 82.5729 168.643 82.7617L168.115 84.0605C167.777 83.8978 167.389 83.748 166.953 83.6113C166.517 83.4746 166.012 83.4062 165.439 83.4062C164.827 83.4062 164.339 83.5462 163.975 83.8262C163.617 84.1061 163.438 84.4837 163.438 84.959C163.438 85.2064 163.49 85.4277 163.594 85.623C163.704 85.8184 163.893 86.0137 164.16 86.209C164.427 86.3978 164.792 86.6191 165.254 86.873C165.703 87.1335 166.107 87.4004 166.465 87.6738C166.829 87.9408 167.116 88.25 167.324 88.6016C167.539 88.9466 167.646 89.373 167.646 89.8809C167.646 90.5775 167.48 91.1699 167.148 91.6582C166.816 92.14 166.341 92.5078 165.723 92.7617C165.111 93.0091 164.385 93.1328 163.545 93.1328ZM174.824 92.9375L177.1 82.2344H178.73L176.455 92.9375H174.824ZM178.467 80.3594C178.206 80.3594 177.988 80.2845 177.812 80.1348C177.643 79.9785 177.559 79.7604 177.559 79.4805C177.559 79.2656 177.601 79.0638 177.686 78.875C177.777 78.6862 177.904 78.5365 178.066 78.4258C178.236 78.3086 178.441 78.25 178.682 78.25C178.968 78.25 179.183 78.3249 179.326 78.4746C179.469 78.6243 179.541 78.8327 179.541 79.0996C179.541 79.4837 179.43 79.7897 179.209 80.0176C178.988 80.2454 178.74 80.3594 178.467 80.3594ZM179.814 92.9375L182.109 82.1855H183.545L183.291 84.2461H183.311C183.558 83.9076 183.854 83.5658 184.199 83.2207C184.551 82.8691 184.958 82.5762 185.42 82.3418C185.889 82.1009 186.419 81.9805 187.012 81.9805C187.585 81.9805 188.076 82.0879 188.486 82.3027C188.896 82.5111 189.212 82.8171 189.434 83.2207C189.655 83.6178 189.766 84.0996 189.766 84.666C189.766 84.9655 189.743 85.2682 189.697 85.5742C189.652 85.8802 189.603 86.1536 189.551 86.3945L188.125 92.9375H186.396L187.842 86.1797C187.9 85.8867 187.946 85.6361 187.979 85.4277C188.018 85.2194 188.037 85.0241 188.037 84.8418C188.037 84.3861 187.913 84.041 187.666 83.8066C187.419 83.5723 187.054 83.4551 186.572 83.4551C186.097 83.4551 185.596 83.6178 185.068 83.9434C184.541 84.2689 184.053 84.7832 183.604 85.4863C183.154 86.1829 182.806 87.0944 182.559 88.2207L181.553 92.9375H179.814ZM194.453 93.1328C193.743 93.1328 193.151 92.9635 192.676 92.625C192.207 92.2799 191.973 91.6908 191.973 90.8574C191.973 90.6556 191.986 90.4375 192.012 90.2031C192.038 89.9622 192.08 89.7148 192.139 89.4609L193.398 83.4746H191.748L191.904 82.7227L193.682 82.0391L194.854 79.7734H195.82L195.283 82.2344H198.037L197.783 83.4746H195.039L193.77 89.4805C193.724 89.6628 193.682 89.8581 193.643 90.0664C193.61 90.2747 193.594 90.4733 193.594 90.6621C193.594 90.9876 193.678 91.2611 193.848 91.4824C194.017 91.6973 194.3 91.8047 194.697 91.8047C194.945 91.8047 195.179 91.7819 195.4 91.7363C195.628 91.6908 195.869 91.6257 196.123 91.541V92.791C195.96 92.8691 195.713 92.944 195.381 93.0156C195.055 93.0938 194.746 93.1328 194.453 93.1328ZM202.295 93.1328C201.494 93.1328 200.804 92.9733 200.225 92.6543C199.645 92.3288 199.199 91.8665 198.887 91.2676C198.581 90.6621 198.428 89.9395 198.428 89.0996C198.428 88.2337 198.551 87.3841 198.799 86.5508C199.053 85.7109 199.414 84.9525 199.883 84.2754C200.352 83.5918 200.915 83.0482 201.572 82.6445C202.236 82.2409 202.979 82.0391 203.799 82.0391C204.782 82.0391 205.527 82.2604 206.035 82.7031C206.543 83.1393 206.797 83.7415 206.797 84.5098C206.797 85.0501 206.67 85.5482 206.416 86.0039C206.169 86.4596 205.785 86.8568 205.264 87.1953C204.749 87.5273 204.095 87.7878 203.301 87.9766C202.513 88.1589 201.579 88.25 200.498 88.25H200.127C200.114 88.3672 200.101 88.4974 200.088 88.6406C200.081 88.7839 200.078 88.9173 200.078 89.041C200.078 89.9004 200.286 90.5742 200.703 91.0625C201.12 91.5443 201.745 91.7852 202.578 91.7852C203.092 91.7852 203.577 91.7135 204.033 91.5703C204.495 91.4206 204.977 91.2253 205.479 90.9844V92.3809C204.997 92.6022 204.512 92.7845 204.023 92.9277C203.535 93.0645 202.959 93.1328 202.295 93.1328ZM200.361 86.9219H200.596C201.429 86.9219 202.194 86.8503 202.891 86.707C203.587 86.5573 204.147 86.3164 204.57 85.9844C204.993 85.6458 205.205 85.1966 205.205 84.6367C205.205 84.2721 205.081 83.9727 204.834 83.7383C204.587 83.5039 204.209 83.3867 203.701 83.3867C203.252 83.3867 202.809 83.5267 202.373 83.8066C201.937 84.0801 201.54 84.4805 201.182 85.0078C200.83 85.5352 200.557 86.1732 200.361 86.9219ZM207.969 92.9375L210.244 82.2344H211.572L211.318 84.3047H211.416C211.689 83.9336 211.982 83.5755 212.295 83.2305C212.607 82.8789 212.962 82.5924 213.359 82.3711C213.763 82.1497 214.225 82.0391 214.746 82.0391C214.941 82.0391 215.14 82.0521 215.342 82.0781C215.544 82.0977 215.732 82.1335 215.908 82.1855L215.557 83.6406C215.381 83.6016 215.208 83.5723 215.039 83.5527C214.876 83.5332 214.707 83.5234 214.531 83.5234C214.036 83.5234 213.577 83.6536 213.154 83.9141C212.731 84.168 212.35 84.5098 212.012 84.9395C211.68 85.3691 211.396 85.8477 211.162 86.375C210.934 86.9023 210.762 87.4395 210.645 87.9863L209.6 92.9375H207.969ZM219.18 93.1328C218.6 93.1328 218.092 92.9928 217.656 92.7129C217.22 92.4329 216.882 92.0195 216.641 91.4727C216.4 90.9258 216.279 90.2585 216.279 89.4707C216.279 88.6829 216.361 87.9245 216.523 87.1953C216.693 86.4661 216.93 85.7891 217.236 85.1641C217.542 84.5391 217.91 83.9922 218.34 83.5234C218.776 83.0547 219.264 82.6901 219.805 82.4297C220.345 82.1693 220.928 82.0391 221.553 82.0391C222.035 82.0391 222.451 82.1302 222.803 82.3125C223.161 82.4948 223.457 82.7357 223.691 83.0352C223.932 83.3281 224.121 83.6406 224.258 83.9727H224.355L224.98 82.2344H226.221L223.955 92.9375H222.656L222.949 90.8672H222.871C222.578 91.2578 222.243 91.6257 221.865 91.9707C221.488 92.3158 221.074 92.5957 220.625 92.8105C220.176 93.0254 219.694 93.1328 219.18 93.1328ZM219.707 91.7852C220.208 91.7852 220.703 91.6029 221.191 91.2383C221.686 90.8672 222.129 90.3691 222.52 89.7441C222.917 89.1126 223.219 88.403 223.428 87.6152C223.532 87.2311 223.6 86.8796 223.633 86.5605C223.672 86.235 223.691 85.9323 223.691 85.6523C223.691 84.9818 223.512 84.4414 223.154 84.0312C222.803 83.6146 222.321 83.4062 221.709 83.4062C221.273 83.4062 220.863 83.5169 220.479 83.7383C220.094 83.9531 219.746 84.2559 219.434 84.6465C219.128 85.0306 218.864 85.4798 218.643 85.9941C218.421 86.502 218.249 87.0553 218.125 87.6543C218.008 88.2533 217.949 88.8685 217.949 89.5C217.949 90.2487 218.102 90.8184 218.408 91.209C218.714 91.5931 219.147 91.7852 219.707 91.7852ZM230.234 93.1328C229.525 93.1328 228.932 92.9635 228.457 92.625C227.988 92.2799 227.754 91.6908 227.754 90.8574C227.754 90.6556 227.767 90.4375 227.793 90.2031C227.819 89.9622 227.861 89.7148 227.92 89.4609L229.18 83.4746H227.529L227.686 82.7227L229.463 82.0391L230.635 79.7734H231.602L231.064 82.2344H233.818L233.564 83.4746H230.82L229.551 89.4805C229.505 89.6628 229.463 89.8581 229.424 90.0664C229.391 90.2747 229.375 90.4733 229.375 90.6621C229.375 90.9876 229.46 91.2611 229.629 91.4824C229.798 91.6973 230.081 91.8047 230.479 91.8047C230.726 91.8047 230.96 91.7819 231.182 91.7363C231.41 91.6908 231.65 91.6257 231.904 91.541V92.791C231.742 92.8691 231.494 92.944 231.162 93.0156C230.837 93.0938 230.527 93.1328 230.234 93.1328ZM233.789 92.9375L236.064 82.2344H237.695L235.42 92.9375H233.789ZM237.432 80.3594C237.171 80.3594 236.953 80.2845 236.777 80.1348C236.608 79.9785 236.523 79.7604 236.523 79.4805C236.523 79.2656 236.566 79.0638 236.65 78.875C236.742 78.6862 236.868 78.5365 237.031 78.4258C237.201 78.3086 237.406 78.25 237.646 78.25C237.933 78.25 238.148 78.3249 238.291 78.4746C238.434 78.6243 238.506 78.8327 238.506 79.0996C238.506 79.4837 238.395 79.7897 238.174 80.0176C237.952 80.2454 237.705 80.3594 237.432 80.3594ZM240.527 92.9375L239.238 82.2344H240.879L241.533 88.3965C241.572 88.7415 241.608 89.1322 241.641 89.5684C241.673 90.0046 241.699 90.4147 241.719 90.7988C241.745 91.1829 241.758 91.4727 241.758 91.668H241.816C241.96 91.349 242.126 90.9876 242.314 90.584C242.51 90.1738 242.705 89.7702 242.9 89.373C243.096 88.9694 243.268 88.6243 243.418 88.3379L246.719 82.2344H248.457L242.627 92.9375H240.527ZM251.367 93.1328C250.788 93.1328 250.28 92.9928 249.844 92.7129C249.408 92.4329 249.069 92.0195 248.828 91.4727C248.587 90.9258 248.467 90.2585 248.467 89.4707C248.467 88.6829 248.548 87.9245 248.711 87.1953C248.88 86.4661 249.118 85.7891 249.424 85.1641C249.73 84.5391 250.098 83.9922 250.527 83.5234C250.964 83.0547 251.452 82.6901 251.992 82.4297C252.533 82.1693 253.115 82.0391 253.74 82.0391C254.222 82.0391 254.639 82.1302 254.99 82.3125C255.348 82.4948 255.645 82.7357 255.879 83.0352C256.12 83.3281 256.309 83.6406 256.445 83.9727H256.543L257.168 82.2344H258.408L256.143 92.9375H254.844L255.137 90.8672H255.059C254.766 91.2578 254.43 91.6257 254.053 91.9707C253.675 92.3158 253.262 92.5957 252.812 92.8105C252.363 93.0254 251.882 93.1328 251.367 93.1328ZM251.895 91.7852C252.396 91.7852 252.891 91.6029 253.379 91.2383C253.874 90.8672 254.316 90.3691 254.707 89.7441C255.104 89.1126 255.407 88.403 255.615 87.6152C255.719 87.2311 255.788 86.8796 255.82 86.5605C255.859 86.235 255.879 85.9323 255.879 85.6523C255.879 84.9818 255.7 84.4414 255.342 84.0312C254.99 83.6146 254.508 83.4062 253.896 83.4062C253.46 83.4062 253.05 83.5169 252.666 83.7383C252.282 83.9531 251.934 84.2559 251.621 84.6465C251.315 85.0306 251.051 85.4798 250.83 85.9941C250.609 86.502 250.436 87.0553 250.312 87.6543C250.195 88.2533 250.137 88.8685 250.137 89.5C250.137 90.2487 250.29 90.8184 250.596 91.209C250.902 91.5931 251.335 91.7852 251.895 91.7852ZM261.924 93.1328C261.273 93.1328 260.7 93.0677 260.205 92.9375C259.717 92.8073 259.29 92.6445 258.926 92.4492V90.9453C259.271 91.1536 259.707 91.349 260.234 91.5312C260.768 91.7135 261.315 91.8047 261.875 91.8047C262.428 91.8047 262.887 91.7298 263.252 91.5801C263.623 91.4303 263.9 91.2253 264.082 90.9648C264.271 90.6979 264.365 90.3887 264.365 90.0371C264.365 89.7572 264.303 89.5163 264.18 89.3145C264.062 89.1061 263.867 88.9043 263.594 88.709C263.327 88.5137 262.969 88.2891 262.52 88.0352C262.018 87.7552 261.595 87.472 261.25 87.1855C260.905 86.8991 260.641 86.5866 260.459 86.248C260.283 85.903 260.195 85.5026 260.195 85.0469C260.195 84.4349 260.345 83.9043 260.645 83.4551C260.944 83.0059 261.364 82.6576 261.904 82.4102C262.451 82.1628 263.089 82.0391 263.818 82.0391C264.463 82.0391 265.059 82.1139 265.605 82.2637C266.152 82.4069 266.624 82.5729 267.021 82.7617L266.494 84.0605C266.156 83.8978 265.768 83.748 265.332 83.6113C264.896 83.4746 264.391 83.4062 263.818 83.4062C263.206 83.4062 262.718 83.5462 262.354 83.8262C261.995 84.1061 261.816 84.4837 261.816 84.959C261.816 85.2064 261.868 85.4277 261.973 85.623C262.083 85.8184 262.272 86.0137 262.539 86.209C262.806 86.3978 263.171 86.6191 263.633 86.873C264.082 87.1335 264.486 87.4004 264.844 87.6738C265.208 87.9408 265.495 88.25 265.703 88.6016C265.918 88.9466 266.025 89.373 266.025 89.8809C266.025 90.5775 265.859 91.1699 265.527 91.6582C265.195 92.14 264.72 92.5078 264.102 92.7617C263.49 93.0091 262.764 93.1328 261.924 93.1328ZM276.514 93.1328C275.928 93.1328 275.417 92.9961 274.98 92.7227C274.544 92.4492 274.206 92.0423 273.965 91.502C273.724 90.9551 273.604 90.278 273.604 89.4707C273.604 88.7025 273.682 87.957 273.838 87.2344C273.994 86.5052 274.219 85.8281 274.512 85.2031C274.811 84.5781 275.176 84.0312 275.605 83.5625C276.035 83.0872 276.523 82.7194 277.07 82.459C277.624 82.1921 278.229 82.0586 278.887 82.0586C279.388 82.0586 279.818 82.1497 280.176 82.332C280.534 82.5143 280.83 82.752 281.064 83.0449C281.305 83.3314 281.494 83.6406 281.631 83.9727H281.729C281.768 83.6732 281.807 83.3835 281.846 83.1035C281.885 82.8171 281.93 82.5273 281.982 82.2344C282.041 81.9414 282.106 81.6387 282.178 81.3262L282.93 77.7422H284.541L281.318 92.9375H279.98L280.244 90.8672H280.176C279.863 91.2708 279.521 91.6452 279.15 91.9902C278.786 92.3353 278.385 92.612 277.949 92.8203C277.513 93.0286 277.035 93.1328 276.514 93.1328ZM277.061 91.7852C277.367 91.7852 277.676 91.7103 277.988 91.5605C278.307 91.4108 278.617 91.1992 278.916 90.9258C279.215 90.6458 279.495 90.3171 279.756 89.9395C280.016 89.5618 280.244 89.1452 280.439 88.6895C280.641 88.2337 280.798 87.752 280.908 87.2441C281.019 86.7363 281.074 86.2122 281.074 85.6719C281.074 84.9818 280.908 84.4316 280.576 84.0215C280.244 83.6113 279.714 83.4062 278.984 83.4062C278.535 83.4062 278.118 83.5202 277.734 83.748C277.357 83.9759 277.015 84.2884 276.709 84.6855C276.403 85.0827 276.143 85.5417 275.928 86.0625C275.719 86.5768 275.557 87.1302 275.439 87.7227C275.329 88.3086 275.273 88.901 275.273 89.5C275.273 90.2487 275.423 90.8184 275.723 91.209C276.022 91.5931 276.468 91.7852 277.061 91.7852ZM289.053 93.1328C288.252 93.1328 287.562 92.9733 286.982 92.6543C286.403 92.3288 285.957 91.8665 285.645 91.2676C285.339 90.6621 285.186 89.9395 285.186 89.0996C285.186 88.2337 285.309 87.3841 285.557 86.5508C285.811 85.7109 286.172 84.9525 286.641 84.2754C287.109 83.5918 287.673 83.0482 288.33 82.6445C288.994 82.2409 289.736 82.0391 290.557 82.0391C291.54 82.0391 292.285 82.2604 292.793 82.7031C293.301 83.1393 293.555 83.7415 293.555 84.5098C293.555 85.0501 293.428 85.5482 293.174 86.0039C292.926 86.4596 292.542 86.8568 292.021 87.1953C291.507 87.5273 290.853 87.7878 290.059 87.9766C289.271 88.1589 288.337 88.25 287.256 88.25H286.885C286.872 88.3672 286.859 88.4974 286.846 88.6406C286.839 88.7839 286.836 88.9173 286.836 89.041C286.836 89.9004 287.044 90.5742 287.461 91.0625C287.878 91.5443 288.503 91.7852 289.336 91.7852C289.85 91.7852 290.335 91.7135 290.791 91.5703C291.253 91.4206 291.735 91.2253 292.236 90.9844V92.3809C291.755 92.6022 291.27 92.7845 290.781 92.9277C290.293 93.0645 289.717 93.1328 289.053 93.1328ZM287.119 86.9219H287.354C288.187 86.9219 288.952 86.8503 289.648 86.707C290.345 86.5573 290.905 86.3164 291.328 85.9844C291.751 85.6458 291.963 85.1966 291.963 84.6367C291.963 84.2721 291.839 83.9727 291.592 83.7383C291.344 83.5039 290.967 83.3867 290.459 83.3867C290.01 83.3867 289.567 83.5267 289.131 83.8066C288.695 84.0801 288.298 84.4805 287.939 85.0078C287.588 85.5352 287.314 86.1732 287.119 86.9219ZM188.633 119.938L190.908 109.234H192.236L191.982 111.305H192.08C192.314 110.966 192.598 110.624 192.93 110.279C193.262 109.928 193.646 109.635 194.082 109.4C194.525 109.16 195.026 109.039 195.586 109.039C196.341 109.039 196.914 109.257 197.305 109.693C197.695 110.13 197.923 110.725 197.988 111.48H198.057C198.317 111.083 198.63 110.699 198.994 110.328C199.359 109.951 199.772 109.641 200.234 109.4C200.703 109.16 201.217 109.039 201.777 109.039C202.604 109.039 203.242 109.264 203.691 109.713C204.141 110.162 204.365 110.813 204.365 111.666C204.365 111.972 204.346 112.262 204.307 112.535C204.274 112.809 204.222 113.089 204.15 113.375L202.764 119.938H201.123L202.568 113.199C202.627 112.906 202.669 112.652 202.695 112.438C202.728 112.223 202.744 112.018 202.744 111.822C202.744 111.386 202.627 111.041 202.393 110.787C202.158 110.533 201.797 110.406 201.309 110.406C200.964 110.406 200.605 110.501 200.234 110.689C199.863 110.878 199.502 111.165 199.15 111.549C198.805 111.926 198.493 112.405 198.213 112.984C197.933 113.564 197.708 114.244 197.539 115.025L196.494 119.938H194.873L196.299 113.229C196.357 112.929 196.4 112.672 196.426 112.457C196.458 112.236 196.475 112.047 196.475 111.891C196.475 111.428 196.367 111.067 196.152 110.807C195.938 110.54 195.586 110.406 195.098 110.406C194.753 110.406 194.391 110.497 194.014 110.68C193.643 110.862 193.281 111.148 192.93 111.539C192.578 111.93 192.256 112.428 191.963 113.033C191.67 113.639 191.436 114.368 191.26 115.221L190.264 119.938H188.633ZM209.375 120.133C208.796 120.133 208.288 119.993 207.852 119.713C207.415 119.433 207.077 119.02 206.836 118.473C206.595 117.926 206.475 117.258 206.475 116.471C206.475 115.683 206.556 114.924 206.719 114.195C206.888 113.466 207.126 112.789 207.432 112.164C207.738 111.539 208.105 110.992 208.535 110.523C208.971 110.055 209.46 109.69 210 109.43C210.54 109.169 211.123 109.039 211.748 109.039C212.23 109.039 212.646 109.13 212.998 109.312C213.356 109.495 213.652 109.736 213.887 110.035C214.128 110.328 214.316 110.641 214.453 110.973H214.551L215.176 109.234H216.416L214.15 119.938H212.852L213.145 117.867H213.066C212.773 118.258 212.438 118.626 212.061 118.971C211.683 119.316 211.27 119.596 210.82 119.811C210.371 120.025 209.889 120.133 209.375 120.133ZM209.902 118.785C210.404 118.785 210.898 118.603 211.387 118.238C211.882 117.867 212.324 117.369 212.715 116.744C213.112 116.113 213.415 115.403 213.623 114.615C213.727 114.231 213.796 113.88 213.828 113.561C213.867 113.235 213.887 112.932 213.887 112.652C213.887 111.982 213.708 111.441 213.35 111.031C212.998 110.615 212.516 110.406 211.904 110.406C211.468 110.406 211.058 110.517 210.674 110.738C210.29 110.953 209.941 111.256 209.629 111.646C209.323 112.031 209.059 112.48 208.838 112.994C208.617 113.502 208.444 114.055 208.32 114.654C208.203 115.253 208.145 115.868 208.145 116.5C208.145 117.249 208.298 117.818 208.604 118.209C208.91 118.593 209.342 118.785 209.902 118.785ZM220.43 120.133C219.72 120.133 219.128 119.964 218.652 119.625C218.184 119.28 217.949 118.691 217.949 117.857C217.949 117.656 217.962 117.438 217.988 117.203C218.014 116.962 218.057 116.715 218.115 116.461L219.375 110.475H217.725L217.881 109.723L219.658 109.039L220.83 106.773H221.797L221.26 109.234H224.014L223.76 110.475H221.016L219.746 116.48C219.701 116.663 219.658 116.858 219.619 117.066C219.587 117.275 219.57 117.473 219.57 117.662C219.57 117.988 219.655 118.261 219.824 118.482C219.993 118.697 220.277 118.805 220.674 118.805C220.921 118.805 221.156 118.782 221.377 118.736C221.605 118.691 221.846 118.626 222.1 118.541V119.791C221.937 119.869 221.689 119.944 221.357 120.016C221.032 120.094 220.723 120.133 220.43 120.133ZM228.271 120.133C227.471 120.133 226.781 119.973 226.201 119.654C225.622 119.329 225.176 118.867 224.863 118.268C224.557 117.662 224.404 116.939 224.404 116.1C224.404 115.234 224.528 114.384 224.775 113.551C225.029 112.711 225.391 111.952 225.859 111.275C226.328 110.592 226.891 110.048 227.549 109.645C228.213 109.241 228.955 109.039 229.775 109.039C230.758 109.039 231.504 109.26 232.012 109.703C232.52 110.139 232.773 110.742 232.773 111.51C232.773 112.05 232.646 112.548 232.393 113.004C232.145 113.46 231.761 113.857 231.24 114.195C230.726 114.527 230.072 114.788 229.277 114.977C228.49 115.159 227.555 115.25 226.475 115.25H226.104C226.09 115.367 226.077 115.497 226.064 115.641C226.058 115.784 226.055 115.917 226.055 116.041C226.055 116.9 226.263 117.574 226.68 118.062C227.096 118.544 227.721 118.785 228.555 118.785C229.069 118.785 229.554 118.714 230.01 118.57C230.472 118.421 230.954 118.225 231.455 117.984V119.381C230.973 119.602 230.488 119.785 230 119.928C229.512 120.064 228.936 120.133 228.271 120.133ZM226.338 113.922H226.572C227.406 113.922 228.171 113.85 228.867 113.707C229.564 113.557 230.124 113.316 230.547 112.984C230.97 112.646 231.182 112.197 231.182 111.637C231.182 111.272 231.058 110.973 230.811 110.738C230.563 110.504 230.186 110.387 229.678 110.387C229.229 110.387 228.786 110.527 228.35 110.807C227.913 111.08 227.516 111.48 227.158 112.008C226.807 112.535 226.533 113.173 226.338 113.922ZM233.945 119.938L236.221 109.234H237.549L237.295 111.305H237.393C237.627 110.966 237.91 110.624 238.242 110.279C238.574 109.928 238.958 109.635 239.395 109.4C239.837 109.16 240.339 109.039 240.898 109.039C241.654 109.039 242.227 109.257 242.617 109.693C243.008 110.13 243.236 110.725 243.301 111.48H243.369C243.63 111.083 243.942 110.699 244.307 110.328C244.671 109.951 245.085 109.641 245.547 109.4C246.016 109.16 246.53 109.039 247.09 109.039C247.917 109.039 248.555 109.264 249.004 109.713C249.453 110.162 249.678 110.813 249.678 111.666C249.678 111.972 249.658 112.262 249.619 112.535C249.587 112.809 249.535 113.089 249.463 113.375L248.076 119.938H246.436L247.881 113.199C247.939 112.906 247.982 112.652 248.008 112.438C248.04 112.223 248.057 112.018 248.057 111.822C248.057 111.386 247.939 111.041 247.705 110.787C247.471 110.533 247.109 110.406 246.621 110.406C246.276 110.406 245.918 110.501 245.547 110.689C245.176 110.878 244.814 111.165 244.463 111.549C244.118 111.926 243.805 112.405 243.525 112.984C243.245 113.564 243.021 114.244 242.852 115.025L241.807 119.938H240.186L241.611 113.229C241.67 112.929 241.712 112.672 241.738 112.457C241.771 112.236 241.787 112.047 241.787 111.891C241.787 111.428 241.68 111.067 241.465 110.807C241.25 110.54 240.898 110.406 240.41 110.406C240.065 110.406 239.704 110.497 239.326 110.68C238.955 110.862 238.594 111.148 238.242 111.539C237.891 111.93 237.568 112.428 237.275 113.033C236.982 113.639 236.748 114.368 236.572 115.221L235.576 119.938H233.945ZM254.688 120.133C254.108 120.133 253.6 119.993 253.164 119.713C252.728 119.433 252.389 119.02 252.148 118.473C251.908 117.926 251.787 117.258 251.787 116.471C251.787 115.683 251.868 114.924 252.031 114.195C252.201 113.466 252.438 112.789 252.744 112.164C253.05 111.539 253.418 110.992 253.848 110.523C254.284 110.055 254.772 109.69 255.312 109.43C255.853 109.169 256.436 109.039 257.061 109.039C257.542 109.039 257.959 109.13 258.311 109.312C258.669 109.495 258.965 109.736 259.199 110.035C259.44 110.328 259.629 110.641 259.766 110.973H259.863L260.488 109.234H261.729L259.463 119.938H258.164L258.457 117.867H258.379C258.086 118.258 257.751 118.626 257.373 118.971C256.995 119.316 256.582 119.596 256.133 119.811C255.684 120.025 255.202 120.133 254.688 120.133ZM255.215 118.785C255.716 118.785 256.211 118.603 256.699 118.238C257.194 117.867 257.637 117.369 258.027 116.744C258.424 116.113 258.727 115.403 258.936 114.615C259.04 114.231 259.108 113.88 259.141 113.561C259.18 113.235 259.199 112.932 259.199 112.652C259.199 111.982 259.02 111.441 258.662 111.031C258.311 110.615 257.829 110.406 257.217 110.406C256.781 110.406 256.37 110.517 255.986 110.738C255.602 110.953 255.254 111.256 254.941 111.646C254.635 112.031 254.372 112.48 254.15 112.994C253.929 113.502 253.757 114.055 253.633 114.654C253.516 115.253 253.457 115.868 253.457 116.5C253.457 117.249 253.61 117.818 253.916 118.209C254.222 118.593 254.655 118.785 255.215 118.785ZM256.895 107.818V107.574C257.135 107.314 257.396 107.011 257.676 106.666C257.956 106.321 258.229 105.969 258.496 105.611C258.77 105.247 259.001 104.915 259.189 104.615H261.035V104.811C260.892 104.993 260.697 105.217 260.449 105.484C260.208 105.745 259.938 106.021 259.639 106.314C259.346 106.601 259.049 106.878 258.75 107.145C258.451 107.405 258.171 107.63 257.91 107.818H256.895ZM265.742 120.133C265.033 120.133 264.44 119.964 263.965 119.625C263.496 119.28 263.262 118.691 263.262 117.857C263.262 117.656 263.275 117.438 263.301 117.203C263.327 116.962 263.369 116.715 263.428 116.461L264.688 110.475H263.037L263.193 109.723L264.971 109.039L266.143 106.773H267.109L266.572 109.234H269.326L269.072 110.475H266.328L265.059 116.48C265.013 116.663 264.971 116.858 264.932 117.066C264.899 117.275 264.883 117.473 264.883 117.662C264.883 117.988 264.967 118.261 265.137 118.482C265.306 118.697 265.589 118.805 265.986 118.805C266.234 118.805 266.468 118.782 266.689 118.736C266.917 118.691 267.158 118.626 267.412 118.541V119.791C267.249 119.869 267.002 119.944 266.67 120.016C266.344 120.094 266.035 120.133 265.742 120.133ZM269.297 119.938L271.572 109.234H273.203L270.928 119.938H269.297ZM272.939 107.359C272.679 107.359 272.461 107.285 272.285 107.135C272.116 106.979 272.031 106.76 272.031 106.48C272.031 106.266 272.074 106.064 272.158 105.875C272.249 105.686 272.376 105.536 272.539 105.426C272.708 105.309 272.913 105.25 273.154 105.25C273.441 105.25 273.656 105.325 273.799 105.475C273.942 105.624 274.014 105.833 274.014 106.1C274.014 106.484 273.903 106.79 273.682 107.018C273.46 107.245 273.213 107.359 272.939 107.359ZM278.73 120.133C277.936 120.133 277.24 119.983 276.641 119.684C276.048 119.378 275.586 118.928 275.254 118.336C274.928 117.743 274.766 117.008 274.766 116.129C274.766 115.367 274.847 114.635 275.01 113.932C275.179 113.229 275.423 112.581 275.742 111.988C276.061 111.396 276.449 110.878 276.904 110.436C277.36 109.993 277.878 109.651 278.457 109.41C279.043 109.163 279.681 109.039 280.371 109.039C280.833 109.039 281.292 109.085 281.748 109.176C282.21 109.26 282.627 109.384 282.998 109.547L282.539 110.914C282.266 110.784 281.943 110.667 281.572 110.562C281.201 110.458 280.804 110.406 280.381 110.406C279.788 110.406 279.248 110.556 278.76 110.855C278.278 111.155 277.861 111.572 277.51 112.105C277.165 112.633 276.898 113.238 276.709 113.922C276.52 114.605 276.426 115.335 276.426 116.109C276.426 116.663 276.523 117.141 276.719 117.545C276.914 117.942 277.194 118.248 277.559 118.463C277.93 118.678 278.372 118.785 278.887 118.785C279.362 118.785 279.808 118.72 280.225 118.59C280.648 118.46 281.061 118.303 281.465 118.121V119.508C281.107 119.69 280.697 119.84 280.234 119.957C279.779 120.074 279.277 120.133 278.73 120.133ZM286.719 120.133C286.139 120.133 285.632 119.993 285.195 119.713C284.759 119.433 284.421 119.02 284.18 118.473C283.939 117.926 283.818 117.258 283.818 116.471C283.818 115.683 283.9 114.924 284.062 114.195C284.232 113.466 284.469 112.789 284.775 112.164C285.081 111.539 285.449 110.992 285.879 110.523C286.315 110.055 286.803 109.69 287.344 109.43C287.884 109.169 288.467 109.039 289.092 109.039C289.574 109.039 289.99 109.13 290.342 109.312C290.7 109.495 290.996 109.736 291.23 110.035C291.471 110.328 291.66 110.641 291.797 110.973H291.895L292.52 109.234H293.76L291.494 119.938H290.195L290.488 117.867H290.41C290.117 118.258 289.782 118.626 289.404 118.971C289.027 119.316 288.613 119.596 288.164 119.811C287.715 120.025 287.233 120.133 286.719 120.133ZM287.246 118.785C287.747 118.785 288.242 118.603 288.73 118.238C289.225 117.867 289.668 117.369 290.059 116.744C290.456 116.113 290.758 115.403 290.967 114.615C291.071 114.231 291.139 113.88 291.172 113.561C291.211 113.235 291.23 112.932 291.23 112.652C291.23 111.982 291.051 111.441 290.693 111.031C290.342 110.615 289.86 110.406 289.248 110.406C288.812 110.406 288.402 110.517 288.018 110.738C287.633 110.953 287.285 111.256 286.973 111.646C286.667 112.031 286.403 112.48 286.182 112.994C285.96 113.502 285.788 114.055 285.664 114.654C285.547 115.253 285.488 115.868 285.488 116.5C285.488 117.249 285.641 117.818 285.947 118.209C286.253 118.593 286.686 118.785 287.246 118.785Z" fill="white"/>
</svg>
