<svg width="306" height="121" viewBox="0 0 306 121" fill="none" xmlns="http://www.w3.org/2000/svg">
<path d="M229.709 22.8438H224.865V4.03125H218.662V0H235.912V4.03125H229.709V22.8438ZM236.553 5.375H241.771L245.068 15.2031C245.173 15.5156 245.261 15.8333 245.334 16.1562C245.407 16.4792 245.469 16.8125 245.521 17.1562C245.574 17.5 245.615 17.8594 245.646 18.2344H245.74C245.803 17.6719 245.886 17.1458 245.99 16.6562C246.105 16.1667 246.245 15.6823 246.412 15.2031L249.646 5.375H254.756L247.365 25.0781C246.917 26.2865 246.334 27.2917 245.615 28.0938C244.896 28.9062 244.068 29.5156 243.131 29.9219C242.204 30.3281 241.183 30.5312 240.068 30.5312C239.527 30.5312 239.058 30.5 238.662 30.4375C238.266 30.3854 237.928 30.3281 237.646 30.2656V26.4844C237.865 26.5365 238.141 26.5833 238.475 26.625C238.808 26.6667 239.157 26.6875 239.521 26.6875C240.188 26.6875 240.761 26.5469 241.24 26.2656C241.719 25.9844 242.12 25.6042 242.443 25.125C242.766 24.6562 243.021 24.1406 243.209 23.5781L243.49 22.7188L236.553 5.375ZM266.99 5.04688C268.959 5.04688 270.548 5.8125 271.756 7.34375C272.975 8.875 273.584 11.1198 273.584 14.0781C273.584 16.0573 273.298 17.724 272.725 19.0781C272.152 20.4219 271.36 21.4375 270.35 22.125C269.339 22.8125 268.178 23.1562 266.865 23.1562C266.021 23.1562 265.298 23.0521 264.693 22.8438C264.089 22.625 263.574 22.349 263.146 22.0156C262.719 21.6719 262.35 21.3073 262.037 20.9219H261.787C261.87 21.3385 261.933 21.7656 261.975 22.2031C262.016 22.6406 262.037 23.0677 262.037 23.4844V30.5312H257.271V5.375H261.146L261.818 7.64062H262.037C262.35 7.17188 262.73 6.73958 263.178 6.34375C263.626 5.94792 264.162 5.63542 264.787 5.40625C265.423 5.16667 266.157 5.04688 266.99 5.04688ZM265.459 8.85938C264.626 8.85938 263.964 9.03125 263.475 9.375C262.985 9.71875 262.626 10.2344 262.396 10.9219C262.178 11.6094 262.058 12.4792 262.037 13.5312V14.0469C262.037 15.1719 262.141 16.125 262.35 16.9062C262.568 17.6875 262.928 18.2812 263.428 18.6875C263.938 19.0938 264.636 19.2969 265.521 19.2969C266.251 19.2969 266.85 19.0938 267.318 18.6875C267.787 18.2812 268.136 17.6875 268.365 16.9062C268.605 16.1146 268.725 15.151 268.725 14.0156C268.725 12.3073 268.459 11.0208 267.928 10.1562C267.396 9.29167 266.574 8.85938 265.459 8.85938ZM289.709 17.6562C289.709 18.8438 289.428 19.849 288.865 20.6719C288.313 21.4844 287.485 22.1042 286.381 22.5312C285.277 22.9479 283.902 23.1562 282.256 23.1562C281.037 23.1562 279.99 23.0781 279.115 22.9219C278.251 22.7656 277.376 22.5052 276.49 22.1406V18.2031C277.438 18.6302 278.454 18.9844 279.537 19.2656C280.631 19.5365 281.589 19.6719 282.412 19.6719C283.339 19.6719 284.001 19.5365 284.396 19.2656C284.803 18.9844 285.006 18.6198 285.006 18.1719C285.006 17.8802 284.923 17.6198 284.756 17.3906C284.6 17.151 284.256 16.8854 283.725 16.5938C283.193 16.2917 282.36 15.901 281.225 15.4219C280.131 14.9635 279.23 14.5 278.521 14.0312C277.824 13.5625 277.303 13.0104 276.959 12.375C276.626 11.7292 276.459 10.9115 276.459 9.92188C276.459 8.30729 277.084 7.09375 278.334 6.28125C279.594 5.45833 281.277 5.04688 283.381 5.04688C284.464 5.04688 285.495 5.15625 286.475 5.375C287.464 5.59375 288.48 5.94271 289.521 6.42188L288.084 9.85938C287.219 9.48438 286.402 9.17708 285.631 8.9375C284.87 8.69792 284.094 8.57812 283.303 8.57812C282.605 8.57812 282.079 8.67188 281.725 8.85938C281.37 9.04688 281.193 9.33333 281.193 9.71875C281.193 10 281.282 10.25 281.459 10.4688C281.646 10.6875 282.001 10.9323 282.521 11.2031C283.053 11.4635 283.829 11.8021 284.85 12.2188C285.839 12.625 286.699 13.0521 287.428 13.5C288.157 13.9375 288.719 14.4844 289.115 15.1406C289.511 15.7865 289.709 16.625 289.709 17.6562ZM300.787 19.3594C301.308 19.3594 301.813 19.3073 302.303 19.2031C302.803 19.099 303.298 18.9688 303.787 18.8125V22.3594C303.277 22.5885 302.641 22.776 301.881 22.9219C301.131 23.0781 300.308 23.1562 299.412 23.1562C298.37 23.1562 297.433 22.9896 296.6 22.6562C295.777 22.3125 295.126 21.724 294.646 20.8906C294.178 20.0469 293.943 18.875 293.943 17.375V8.95312H291.662V6.9375L294.287 5.34375L295.662 1.65625H298.709V5.375H303.6V8.95312H298.709V17.375C298.709 18.0417 298.896 18.5417 299.271 18.875C299.657 19.1979 300.162 19.3594 300.787 19.3594ZM177.398 38.8438L178.775 32.3926H179.637L179.484 33.6289H179.496C179.645 33.4258 179.822 33.2207 180.029 33.0137C180.24 32.8027 180.484 32.627 180.762 32.4863C181.043 32.3418 181.361 32.2695 181.717 32.2695C182.061 32.2695 182.355 32.334 182.602 32.4629C182.848 32.5879 183.037 32.7715 183.17 33.0137C183.303 33.252 183.369 33.541 183.369 33.8809C183.369 34.0605 183.355 34.2422 183.328 34.4258C183.301 34.6094 183.271 34.7734 183.24 34.918L182.385 38.8438H181.348L182.215 34.7891C182.25 34.6133 182.277 34.4629 182.297 34.3379C182.32 34.2129 182.332 34.0957 182.332 33.9863C182.332 33.7129 182.258 33.5059 182.109 33.3652C181.961 33.2246 181.742 33.1543 181.453 33.1543C181.168 33.1543 180.867 33.252 180.551 33.4473C180.234 33.6426 179.941 33.9512 179.672 34.373C179.402 34.791 179.193 35.3379 179.045 36.0137L178.441 38.8438H177.398ZM186.973 38.9375C186.48 38.9375 186.057 38.8379 185.701 38.6387C185.346 38.4355 185.072 38.1504 184.881 37.7832C184.693 37.4121 184.6 36.9746 184.6 36.4707C184.6 36.0645 184.645 35.6641 184.734 35.2695C184.824 34.8711 184.957 34.4961 185.133 34.1445C185.309 33.7891 185.525 33.4766 185.783 33.207C186.045 32.9336 186.346 32.7207 186.686 32.5684C187.025 32.4121 187.404 32.334 187.822 32.334C188.322 32.334 188.748 32.4355 189.1 32.6387C189.455 32.8379 189.727 33.123 189.914 33.4941C190.105 33.8652 190.201 34.3047 190.201 34.8125C190.201 35.2109 190.156 35.6074 190.066 36.002C189.98 36.3965 189.85 36.7715 189.674 37.127C189.502 37.4785 189.285 37.791 189.023 38.0645C188.766 38.334 188.465 38.5469 188.121 38.7031C187.781 38.8594 187.398 38.9375 186.973 38.9375ZM187.031 38.1289C187.273 38.1289 187.504 38.0781 187.723 37.9766C187.941 37.875 188.141 37.7285 188.32 37.5371C188.5 37.3418 188.654 37.1055 188.783 36.8281C188.916 36.5469 189.018 36.2285 189.088 35.873C189.162 35.5176 189.199 35.127 189.199 34.7012C189.199 34.4473 189.154 34.2012 189.064 33.9629C188.975 33.7246 188.83 33.5293 188.631 33.377C188.432 33.2207 188.166 33.1426 187.834 33.1426C187.561 33.1426 187.307 33.1992 187.072 33.3125C186.842 33.4258 186.635 33.5859 186.451 33.793C186.268 34 186.111 34.2441 185.982 34.5254C185.857 34.8066 185.76 35.1152 185.689 35.4512C185.623 35.7871 185.59 36.1406 185.59 36.5117C185.59 37.0234 185.715 37.4219 185.965 37.707C186.215 37.9883 186.57 38.1289 187.031 38.1289ZM192.645 38.9609C192.254 38.9609 191.91 38.9219 191.613 38.8438C191.32 38.7656 191.064 38.668 190.846 38.5508V37.6484C191.053 37.7734 191.314 37.8906 191.631 38C191.951 38.1094 192.279 38.1641 192.615 38.1641C192.947 38.1641 193.223 38.1191 193.441 38.0293C193.664 37.9395 193.83 37.8164 193.939 37.6602C194.053 37.5 194.109 37.3145 194.109 37.1035C194.109 36.9355 194.072 36.791 193.998 36.6699C193.928 36.5449 193.811 36.4238 193.646 36.3066C193.486 36.1895 193.271 36.0547 193.002 35.9023C192.701 35.7344 192.447 35.5645 192.24 35.3926C192.033 35.2207 191.875 35.0332 191.766 34.8301C191.66 34.623 191.607 34.3828 191.607 34.1094C191.607 33.7422 191.697 33.4238 191.877 33.1543C192.057 32.8848 192.309 32.6758 192.633 32.5273C192.961 32.3789 193.344 32.3047 193.781 32.3047C194.168 32.3047 194.525 32.3496 194.854 32.4395C195.182 32.5254 195.465 32.625 195.703 32.7383L195.387 33.5176C195.184 33.4199 194.951 33.3301 194.689 33.248C194.428 33.166 194.125 33.125 193.781 33.125C193.414 33.125 193.121 33.209 192.902 33.377C192.688 33.5449 192.58 33.7715 192.58 34.0566C192.58 34.2051 192.611 34.3379 192.674 34.4551C192.74 34.5723 192.854 34.6895 193.014 34.8066C193.174 34.9199 193.393 35.0527 193.67 35.2051C193.939 35.3613 194.182 35.5215 194.396 35.6855C194.615 35.8457 194.787 36.0312 194.912 36.2422C195.041 36.4492 195.105 36.7051 195.105 37.0098C195.105 37.4277 195.006 37.7832 194.807 38.0762C194.607 38.3652 194.322 38.5859 193.951 38.7383C193.584 38.8867 193.148 38.9609 192.645 38.9609ZM197.824 38.9609C197.434 38.9609 197.09 38.9219 196.793 38.8438C196.5 38.7656 196.244 38.668 196.025 38.5508V37.6484C196.232 37.7734 196.494 37.8906 196.811 38C197.131 38.1094 197.459 38.1641 197.795 38.1641C198.127 38.1641 198.402 38.1191 198.621 38.0293C198.844 37.9395 199.01 37.8164 199.119 37.6602C199.232 37.5 199.289 37.3145 199.289 37.1035C199.289 36.9355 199.252 36.791 199.178 36.6699C199.107 36.5449 198.99 36.4238 198.826 36.3066C198.666 36.1895 198.451 36.0547 198.182 35.9023C197.881 35.7344 197.627 35.5645 197.42 35.3926C197.213 35.2207 197.055 35.0332 196.945 34.8301C196.84 34.623 196.787 34.3828 196.787 34.1094C196.787 33.7422 196.877 33.4238 197.057 33.1543C197.236 32.8848 197.488 32.6758 197.812 32.5273C198.141 32.3789 198.523 32.3047 198.961 32.3047C199.348 32.3047 199.705 32.3496 200.033 32.4395C200.361 32.5254 200.645 32.625 200.883 32.7383L200.566 33.5176C200.363 33.4199 200.131 33.3301 199.869 33.248C199.607 33.166 199.305 33.125 198.961 33.125C198.594 33.125 198.301 33.209 198.082 33.377C197.867 33.5449 197.76 33.7715 197.76 34.0566C197.76 34.2051 197.791 34.3379 197.854 34.4551C197.92 34.5723 198.033 34.6895 198.193 34.8066C198.354 34.9199 198.572 35.0527 198.85 35.2051C199.119 35.3613 199.361 35.5215 199.576 35.6855C199.795 35.8457 199.967 36.0312 200.092 36.2422C200.221 36.4492 200.285 36.7051 200.285 37.0098C200.285 37.4277 200.186 37.7832 199.986 38.0762C199.787 38.3652 199.502 38.5859 199.131 38.7383C198.764 38.8867 198.328 38.9609 197.824 38.9609ZM203.455 38.9609C203.107 38.9609 202.803 38.877 202.541 38.709C202.279 38.541 202.076 38.293 201.932 37.9648C201.787 37.6367 201.715 37.2363 201.715 36.7637C201.715 36.291 201.764 35.8359 201.861 35.3984C201.963 34.9609 202.105 34.5547 202.289 34.1797C202.473 33.8047 202.693 33.4766 202.951 33.1953C203.213 32.9141 203.506 32.6953 203.83 32.5391C204.154 32.3828 204.504 32.3047 204.879 32.3047C205.168 32.3047 205.418 32.3594 205.629 32.4688C205.844 32.5781 206.021 32.7227 206.162 32.9023C206.307 33.0781 206.42 33.2656 206.502 33.4648H206.561L206.936 32.4219H207.68L206.32 38.8438H205.541L205.717 37.6016H205.67C205.494 37.8359 205.293 38.0566 205.066 38.2637C204.84 38.4707 204.592 38.6387 204.322 38.7676C204.053 38.8965 203.764 38.9609 203.455 38.9609ZM203.771 38.1523C204.072 38.1523 204.369 38.043 204.662 37.8242C204.959 37.6016 205.225 37.3027 205.459 36.9277C205.697 36.5488 205.879 36.123 206.004 35.6504C206.066 35.4199 206.107 35.209 206.127 35.0176C206.15 34.8223 206.162 34.6406 206.162 34.4727C206.162 34.0703 206.055 33.7461 205.84 33.5C205.629 33.25 205.34 33.125 204.973 33.125C204.711 33.125 204.465 33.1914 204.234 33.3242C204.004 33.4531 203.795 33.6348 203.607 33.8691C203.424 34.0996 203.266 34.3691 203.133 34.6777C203 34.9824 202.896 35.3145 202.822 35.6738C202.752 36.0332 202.717 36.4023 202.717 36.7812C202.717 37.2305 202.809 37.5723 202.992 37.8066C203.176 38.0371 203.436 38.1523 203.771 38.1523ZM215.074 38.9609C214.387 38.9609 213.807 38.8242 213.334 38.5508C212.865 38.2773 212.512 37.8906 212.273 37.3906C212.035 36.8906 211.916 36.3027 211.916 35.627C211.916 35.1387 211.959 34.666 212.045 34.209C212.135 33.752 212.264 33.3203 212.432 32.9141C212.6 32.5039 212.807 32.1309 213.053 31.7949C213.303 31.4551 213.588 31.1621 213.908 30.916C214.229 30.6699 214.582 30.4805 214.969 30.3477C215.359 30.2109 215.781 30.1426 216.234 30.1426C217.195 30.1426 217.945 30.4414 218.484 31.0391C219.027 31.6328 219.299 32.459 219.299 33.5176C219.299 33.9902 219.26 34.4531 219.182 34.9062C219.104 35.3555 218.986 35.7832 218.83 36.1895C218.674 36.5957 218.479 36.9688 218.244 37.3086C218.01 37.6445 217.736 37.9355 217.424 38.1816C217.111 38.4277 216.76 38.6191 216.369 38.7559C215.979 38.8926 215.547 38.9609 215.074 38.9609ZM215.109 38.0879C215.445 38.0879 215.756 38.0293 216.041 37.9121C216.326 37.7949 216.584 37.6309 216.814 37.4199C217.049 37.209 217.254 36.9609 217.43 36.6758C217.609 36.3906 217.76 36.0781 217.881 35.7383C218.002 35.3945 218.094 35.0332 218.156 34.6543C218.219 34.2754 218.25 33.8887 218.25 33.4941C218.25 32.7129 218.064 32.1055 217.693 31.6719C217.326 31.2383 216.816 31.0215 216.164 31.0215C215.828 31.0215 215.516 31.0781 215.227 31.1914C214.938 31.3008 214.674 31.459 214.436 31.666C214.197 31.8691 213.986 32.1113 213.803 32.3926C213.623 32.6738 213.471 32.9863 213.346 33.3301C213.221 33.6699 213.125 34.0312 213.059 34.4141C212.996 34.7969 212.965 35.1934 212.965 35.6035C212.965 36.1191 213.049 36.5625 213.217 36.9336C213.385 37.3047 213.629 37.5898 213.949 37.7891C214.27 37.9883 214.656 38.0879 215.109 38.0879ZM220.014 38.8438L221.959 29.7266H222.932L220.992 38.8438H220.014ZM223.061 38.8438L224.426 32.4219H225.404L224.039 38.8438H223.061ZM225.246 31.2969C225.09 31.2969 224.959 31.252 224.854 31.1621C224.752 31.0684 224.701 30.9375 224.701 30.7695C224.701 30.6406 224.727 30.5195 224.777 30.4062C224.832 30.293 224.908 30.2031 225.006 30.1367C225.107 30.0664 225.23 30.0312 225.375 30.0312C225.547 30.0312 225.676 30.0762 225.762 30.166C225.848 30.2559 225.891 30.3809 225.891 30.541C225.891 30.7715 225.824 30.9551 225.691 31.0918C225.559 31.2285 225.41 31.2969 225.246 31.2969ZM227.104 38.8438L226.33 32.4219H227.314L227.707 36.1191C227.73 36.3262 227.752 36.5605 227.771 36.8223C227.791 37.084 227.807 37.3301 227.818 37.5605C227.834 37.791 227.842 37.9648 227.842 38.082H227.877C227.963 37.8906 228.062 37.6738 228.176 37.4316C228.293 37.1855 228.41 36.9434 228.527 36.7051C228.645 36.4629 228.748 36.2559 228.838 36.084L230.818 32.4219H231.861L228.363 38.8438H227.104ZM234.199 38.9609C233.719 38.9609 233.305 38.8652 232.957 38.6738C232.609 38.4785 232.342 38.2012 232.154 37.8418C231.971 37.4785 231.879 37.0449 231.879 36.541C231.879 36.0215 231.953 35.5117 232.102 35.0117C232.254 34.5078 232.471 34.0527 232.752 33.6465C233.033 33.2363 233.371 32.9102 233.766 32.668C234.164 32.4258 234.609 32.3047 235.102 32.3047C235.691 32.3047 236.139 32.4375 236.443 32.7031C236.748 32.9648 236.9 33.3262 236.9 33.7871C236.9 34.1113 236.824 34.4102 236.672 34.6836C236.523 34.957 236.293 35.1953 235.98 35.3984C235.672 35.5977 235.279 35.7539 234.803 35.8672C234.33 35.9766 233.77 36.0312 233.121 36.0312H232.898C232.891 36.1016 232.883 36.1797 232.875 36.2656C232.871 36.3516 232.869 36.4316 232.869 36.5059C232.869 37.0215 232.994 37.4258 233.244 37.7188C233.494 38.0078 233.869 38.1523 234.369 38.1523C234.678 38.1523 234.969 38.1094 235.242 38.0234C235.52 37.9336 235.809 37.8164 236.109 37.6719V38.5098C235.82 38.6426 235.529 38.752 235.236 38.8379C234.943 38.9199 234.598 38.9609 234.199 38.9609ZM233.039 35.2344H233.18C233.68 35.2344 234.139 35.1914 234.557 35.1055C234.975 35.0156 235.311 34.8711 235.564 34.6719C235.818 34.4688 235.945 34.1992 235.945 33.8633C235.945 33.6445 235.871 33.4648 235.723 33.3242C235.574 33.1836 235.348 33.1133 235.043 33.1133C234.773 33.1133 234.508 33.1973 234.246 33.3652C233.984 33.5293 233.746 33.7695 233.531 34.0859C233.32 34.4023 233.156 34.7852 233.039 35.2344ZM239.432 38.9609C239.006 38.9609 238.65 38.8594 238.365 38.6562C238.084 38.4492 237.943 38.0957 237.943 37.5957C237.943 37.4746 237.951 37.3438 237.967 37.2031C237.982 37.0586 238.008 36.9102 238.043 36.7578L238.799 33.166H237.809L237.902 32.7148L238.969 32.3047L239.672 30.9453H240.252L239.93 32.4219H241.582L241.43 33.166H239.783L239.021 36.7695C238.994 36.8789 238.969 36.9961 238.945 37.1211C238.926 37.2461 238.916 37.3652 238.916 37.4785C238.916 37.6738 238.967 37.8379 239.068 37.9707C239.17 38.0996 239.34 38.1641 239.578 38.1641C239.727 38.1641 239.867 38.1504 240 38.123C240.137 38.0957 240.281 38.0566 240.434 38.0059V38.7559C240.336 38.8027 240.188 38.8477 239.988 38.8906C239.793 38.9375 239.607 38.9609 239.432 38.9609ZM243.393 38.9609C242.967 38.9609 242.611 38.8594 242.326 38.6562C242.045 38.4492 241.904 38.0957 241.904 37.5957C241.904 37.4746 241.912 37.3438 241.928 37.2031C241.943 37.0586 241.969 36.9102 242.004 36.7578L242.76 33.166H241.77L241.863 32.7148L242.93 32.3047L243.633 30.9453H244.213L243.891 32.4219H245.543L245.391 33.166H243.744L242.982 36.7695C242.955 36.8789 242.93 36.9961 242.906 37.1211C242.887 37.2461 242.877 37.3652 242.877 37.4785C242.877 37.6738 242.928 37.8379 243.029 37.9707C243.131 38.0996 243.301 38.1641 243.539 38.1641C243.688 38.1641 243.828 38.1504 243.961 38.123C244.098 38.0957 244.242 38.0566 244.395 38.0059V38.7559C244.297 38.8027 244.148 38.8477 243.949 38.8906C243.754 38.9375 243.568 38.9609 243.393 38.9609ZM245.525 38.8438L246.891 32.4219H247.869L246.504 38.8438H245.525ZM247.711 31.2969C247.555 31.2969 247.424 31.252 247.318 31.1621C247.217 31.0684 247.166 30.9375 247.166 30.7695C247.166 30.6406 247.191 30.5195 247.242 30.4062C247.297 30.293 247.373 30.2031 247.471 30.1367C247.572 30.0664 247.695 30.0312 247.84 30.0312C248.012 30.0312 248.141 30.0762 248.227 30.166C248.312 30.2559 248.355 30.3809 248.355 30.541C248.355 30.7715 248.289 30.9551 248.156 31.0918C248.023 31.2285 247.875 31.2969 247.711 31.2969ZM251.842 38.8438L253.652 30.2773H254.637L253.008 37.9531H256.365L256.178 38.8438H251.842ZM260.004 38.9609C259.523 38.9609 259.109 38.8652 258.762 38.6738C258.414 38.4785 258.146 38.2012 257.959 37.8418C257.775 37.4785 257.684 37.0449 257.684 36.541C257.684 36.0215 257.758 35.5117 257.906 35.0117C258.059 34.5078 258.275 34.0527 258.557 33.6465C258.838 33.2363 259.176 32.9102 259.57 32.668C259.969 32.4258 260.414 32.3047 260.906 32.3047C261.496 32.3047 261.943 32.4375 262.248 32.7031C262.553 32.9648 262.705 33.3262 262.705 33.7871C262.705 34.1113 262.629 34.4102 262.477 34.6836C262.328 34.957 262.098 35.1953 261.785 35.3984C261.477 35.5977 261.084 35.7539 260.607 35.8672C260.135 35.9766 259.574 36.0312 258.926 36.0312H258.703C258.695 36.1016 258.688 36.1797 258.68 36.2656C258.676 36.3516 258.674 36.4316 258.674 36.5059C258.674 37.0215 258.799 37.4258 259.049 37.7188C259.299 38.0078 259.674 38.1523 260.174 38.1523C260.482 38.1523 260.773 38.1094 261.047 38.0234C261.324 37.9336 261.613 37.8164 261.914 37.6719V38.5098C261.625 38.6426 261.334 38.752 261.041 38.8379C260.748 38.9199 260.402 38.9609 260.004 38.9609ZM258.844 35.2344H258.984C259.484 35.2344 259.943 35.1914 260.361 35.1055C260.779 35.0156 261.115 34.8711 261.369 34.6719C261.623 34.4688 261.75 34.1992 261.75 33.8633C261.75 33.6445 261.676 33.4648 261.527 33.3242C261.379 33.1836 261.152 33.1133 260.848 33.1133C260.578 33.1133 260.312 33.1973 260.051 33.3652C259.789 33.5293 259.551 33.7695 259.336 34.0859C259.125 34.4023 258.961 34.7852 258.844 35.2344ZM265.236 38.9609C264.811 38.9609 264.455 38.8594 264.17 38.6562C263.889 38.4492 263.748 38.0957 263.748 37.5957C263.748 37.4746 263.756 37.3438 263.771 37.2031C263.787 37.0586 263.812 36.9102 263.848 36.7578L264.604 33.166H263.613L263.707 32.7148L264.773 32.3047L265.477 30.9453H266.057L265.734 32.4219H267.387L267.234 33.166H265.588L264.826 36.7695C264.799 36.8789 264.773 36.9961 264.75 37.1211C264.73 37.2461 264.721 37.3652 264.721 37.4785C264.721 37.6738 264.771 37.8379 264.873 37.9707C264.975 38.0996 265.145 38.1641 265.383 38.1641C265.531 38.1641 265.672 38.1504 265.805 38.123C265.941 38.0957 266.086 38.0566 266.238 38.0059V38.7559C266.141 38.8027 265.992 38.8477 265.793 38.8906C265.598 38.9375 265.412 38.9609 265.236 38.9609ZM269.197 38.9609C268.771 38.9609 268.416 38.8594 268.131 38.6562C267.85 38.4492 267.709 38.0957 267.709 37.5957C267.709 37.4746 267.717 37.3438 267.732 37.2031C267.748 37.0586 267.773 36.9102 267.809 36.7578L268.564 33.166H267.574L267.668 32.7148L268.734 32.3047L269.438 30.9453H270.018L269.695 32.4219H271.348L271.195 33.166H269.549L268.787 36.7695C268.76 36.8789 268.734 36.9961 268.711 37.1211C268.691 37.2461 268.682 37.3652 268.682 37.4785C268.682 37.6738 268.732 37.8379 268.834 37.9707C268.936 38.0996 269.105 38.1641 269.344 38.1641C269.492 38.1641 269.633 38.1504 269.766 38.123C269.902 38.0957 270.047 38.0566 270.199 38.0059V38.7559C270.102 38.8027 269.953 38.8477 269.754 38.8906C269.559 38.9375 269.373 38.9609 269.197 38.9609ZM273.902 38.9609C273.422 38.9609 273.008 38.8652 272.66 38.6738C272.312 38.4785 272.045 38.2012 271.857 37.8418C271.674 37.4785 271.582 37.0449 271.582 36.541C271.582 36.0215 271.656 35.5117 271.805 35.0117C271.957 34.5078 272.174 34.0527 272.455 33.6465C272.736 33.2363 273.074 32.9102 273.469 32.668C273.867 32.4258 274.312 32.3047 274.805 32.3047C275.395 32.3047 275.842 32.4375 276.146 32.7031C276.451 32.9648 276.604 33.3262 276.604 33.7871C276.604 34.1113 276.527 34.4102 276.375 34.6836C276.227 34.957 275.996 35.1953 275.684 35.3984C275.375 35.5977 274.982 35.7539 274.506 35.8672C274.033 35.9766 273.473 36.0312 272.824 36.0312H272.602C272.594 36.1016 272.586 36.1797 272.578 36.2656C272.574 36.3516 272.572 36.4316 272.572 36.5059C272.572 37.0215 272.697 37.4258 272.947 37.7188C273.197 38.0078 273.572 38.1523 274.072 38.1523C274.381 38.1523 274.672 38.1094 274.945 38.0234C275.223 37.9336 275.512 37.8164 275.812 37.6719V38.5098C275.523 38.6426 275.232 38.752 274.939 38.8379C274.646 38.9199 274.301 38.9609 273.902 38.9609ZM272.742 35.2344H272.883C273.383 35.2344 273.842 35.1914 274.26 35.1055C274.678 35.0156 275.014 34.8711 275.268 34.6719C275.521 34.4688 275.648 34.1992 275.648 33.8633C275.648 33.6445 275.574 33.4648 275.426 33.3242C275.277 33.1836 275.051 33.1133 274.746 33.1133C274.477 33.1133 274.211 33.1973 273.949 33.3652C273.688 33.5293 273.449 33.7695 273.234 34.0859C273.023 34.4023 272.859 34.7852 272.742 35.2344ZM277.307 38.8438L278.672 32.4219H279.469L279.316 33.6641H279.375C279.539 33.4414 279.715 33.2266 279.902 33.0195C280.09 32.8086 280.303 32.6367 280.541 32.5039C280.783 32.3711 281.061 32.3047 281.373 32.3047C281.49 32.3047 281.609 32.3125 281.73 32.3281C281.852 32.3398 281.965 32.3613 282.07 32.3926L281.859 33.2656C281.754 33.2422 281.65 33.2246 281.549 33.2129C281.451 33.2012 281.35 33.1953 281.244 33.1953C280.947 33.1953 280.672 33.2734 280.418 33.4297C280.164 33.582 279.936 33.7871 279.732 34.0449C279.533 34.3027 279.363 34.5898 279.223 34.9062C279.086 35.2227 278.982 35.5449 278.912 35.873L278.285 38.8438H277.307ZM284.033 38.9609C283.686 38.9609 283.381 38.877 283.119 38.709C282.857 38.541 282.654 38.293 282.51 37.9648C282.365 37.6367 282.293 37.2363 282.293 36.7637C282.293 36.291 282.342 35.8359 282.439 35.3984C282.541 34.9609 282.684 34.5547 282.867 34.1797C283.051 33.8047 283.271 33.4766 283.529 33.1953C283.791 32.9141 284.084 32.6953 284.408 32.5391C284.732 32.3828 285.082 32.3047 285.457 32.3047C285.746 32.3047 285.996 32.3594 286.207 32.4688C286.422 32.5781 286.6 32.7227 286.74 32.9023C286.885 33.0781 286.998 33.2656 287.08 33.4648H287.139L287.514 32.4219H288.258L286.898 38.8438H286.119L286.295 37.6016H286.248C286.072 37.8359 285.871 38.0566 285.645 38.2637C285.418 38.4707 285.17 38.6387 284.9 38.7676C284.631 38.8965 284.342 38.9609 284.033 38.9609ZM284.35 38.1523C284.65 38.1523 284.947 38.043 285.24 37.8242C285.537 37.6016 285.803 37.3027 286.037 36.9277C286.275 36.5488 286.457 36.123 286.582 35.6504C286.645 35.4199 286.686 35.209 286.705 35.0176C286.729 34.8223 286.74 34.6406 286.74 34.4727C286.74 34.0703 286.633 33.7461 286.418 33.5C286.207 33.25 285.918 33.125 285.551 33.125C285.289 33.125 285.043 33.1914 284.812 33.3242C284.582 33.4531 284.373 33.6348 284.186 33.8691C284.002 34.0996 283.844 34.3691 283.711 34.6777C283.578 34.9824 283.475 35.3145 283.4 35.6738C283.33 36.0332 283.295 36.4023 283.295 36.7812C283.295 37.2305 283.387 37.5723 283.57 37.8066C283.754 38.0371 284.014 38.1523 284.35 38.1523ZM294.135 38.9609C293.67 38.9609 293.254 38.9199 292.887 38.8379C292.523 38.752 292.188 38.6367 291.879 38.4922V37.5488C292.156 37.7051 292.498 37.8438 292.904 37.9648C293.314 38.082 293.729 38.1406 294.146 38.1406C294.479 38.1406 294.773 38.0996 295.031 38.0176C295.289 37.9316 295.506 37.8125 295.682 37.6602C295.861 37.5039 295.996 37.3164 296.086 37.0977C296.18 36.8789 296.227 36.6348 296.227 36.3652C296.227 36.0293 296.156 35.748 296.016 35.5215C295.875 35.291 295.672 35.1172 295.406 35C295.145 34.8828 294.824 34.8242 294.445 34.8242H293.66L293.824 34.0156H294.627C294.928 34.0156 295.215 33.9746 295.488 33.8926C295.766 33.8105 296.012 33.6914 296.227 33.5352C296.441 33.375 296.609 33.1797 296.73 32.9492C296.855 32.7188 296.918 32.4551 296.918 32.1582C296.918 31.7832 296.799 31.4941 296.561 31.291C296.326 31.084 296.023 30.9805 295.652 30.9805C295.277 30.9805 294.93 31.0449 294.609 31.1738C294.293 31.3027 293.979 31.4766 293.666 31.6953L293.209 31.0039C293.545 30.7617 293.916 30.5605 294.322 30.4004C294.732 30.2363 295.203 30.1543 295.734 30.1543C296.203 30.1543 296.6 30.2344 296.924 30.3945C297.248 30.5508 297.494 30.7715 297.662 31.0566C297.83 31.3379 297.914 31.666 297.914 32.041C297.914 32.4512 297.824 32.8203 297.645 33.1484C297.465 33.4766 297.209 33.75 296.877 33.9688C296.549 34.1875 296.156 34.3379 295.699 34.4199V34.4727C296.156 34.5547 296.529 34.7559 296.818 35.0762C297.111 35.3926 297.258 35.8086 297.258 36.3242C297.258 36.668 297.195 36.998 297.07 37.3145C296.949 37.6309 296.762 37.9121 296.508 38.1582C296.254 38.4043 295.93 38.5996 295.535 38.7441C295.141 38.8887 294.674 38.9609 294.135 38.9609ZM298.271 38.8438L298.447 38.0117L301.219 35.5098C301.602 35.1621 301.936 34.8516 302.221 34.5781C302.51 34.3047 302.75 34.0469 302.941 33.8047C303.133 33.5586 303.275 33.3105 303.369 33.0605C303.467 32.8105 303.516 32.5371 303.516 32.2402C303.516 31.8691 303.402 31.5684 303.176 31.3379C302.949 31.1074 302.629 30.9922 302.215 30.9922C301.98 30.9922 301.758 31.0254 301.547 31.0918C301.336 31.1543 301.131 31.2422 300.932 31.3555C300.736 31.4648 300.541 31.5918 300.346 31.7363L299.883 31.0684C300.223 30.8027 300.59 30.584 300.984 30.4121C301.379 30.2402 301.824 30.1543 302.32 30.1543C302.793 30.1543 303.193 30.2363 303.521 30.4004C303.85 30.5645 304.1 30.791 304.271 31.0801C304.443 31.3691 304.529 31.7051 304.529 32.0879C304.529 32.5566 304.438 32.9883 304.254 33.3828C304.07 33.7734 303.781 34.1777 303.387 34.5957C302.992 35.0137 302.477 35.502 301.84 36.0605L299.725 37.9121V37.9531H303.697L303.527 38.8438H298.271ZM31.5918 66.0391C30.6152 66.0391 29.8014 65.8861 29.1504 65.5801C28.4993 65.2741 28.0111 64.8281 27.6855 64.2422C27.36 63.6562 27.1973 62.9401 27.1973 62.0938C27.1973 61.8659 27.2168 61.5924 27.2559 61.2734C27.2949 60.9544 27.3503 60.6126 27.4219 60.248L29.2773 51.5664H30.9277L29.0625 60.3359C28.9909 60.6354 28.9355 60.9479 28.8965 61.2734C28.8574 61.599 28.8379 61.8659 28.8379 62.0742C28.8379 62.862 29.0788 63.4772 29.5605 63.9199C30.0423 64.3626 30.752 64.584 31.6895 64.584C32.4902 64.584 33.1576 64.444 33.6914 64.1641C34.2253 63.8776 34.6549 63.4577 34.9805 62.9043C35.3125 62.3444 35.5664 61.651 35.7422 60.8242L37.7246 51.5664H39.3652L37.373 60.9609C37.1517 62.0221 36.8066 62.9336 36.3379 63.6953C35.8691 64.4505 35.2474 65.0299 34.4727 65.4336C33.6979 65.8372 32.7376 66.0391 31.5918 66.0391ZM39.7363 65.8438L42.0117 55.1406H43.3398L43.0859 57.2109H43.1836C43.418 56.8724 43.7012 56.5306 44.0332 56.1855C44.3652 55.834 44.7493 55.541 45.1855 55.3066C45.6283 55.0658 46.1296 54.9453 46.6895 54.9453C47.4447 54.9453 48.0176 55.1634 48.4082 55.5996C48.7988 56.0358 49.0267 56.6315 49.0918 57.3867H49.1602C49.4206 56.9896 49.7331 56.6055 50.0977 56.2344C50.4622 55.8568 50.8757 55.5475 51.3379 55.3066C51.8066 55.0658 52.321 54.9453 52.8809 54.9453C53.7077 54.9453 54.3457 55.1699 54.7949 55.6191C55.2441 56.0684 55.4688 56.7194 55.4688 57.5723C55.4688 57.8783 55.4492 58.168 55.4102 58.4414C55.3776 58.7148 55.3255 58.9948 55.2539 59.2812L53.8672 65.8438H52.2266L53.6719 59.1055C53.7305 58.8125 53.7728 58.5586 53.7988 58.3438C53.8314 58.1289 53.8477 57.9238 53.8477 57.7285C53.8477 57.2923 53.7305 56.9473 53.4961 56.6934C53.2617 56.4395 52.9004 56.3125 52.4121 56.3125C52.0671 56.3125 51.709 56.4069 51.3379 56.5957C50.9668 56.7845 50.6055 57.071 50.2539 57.4551C49.9089 57.8327 49.5964 58.3112 49.3164 58.8906C49.0365 59.4701 48.8118 60.1504 48.6426 60.9316L47.5977 65.8438H45.9766L47.4023 59.1348C47.4609 58.8353 47.5033 58.5781 47.5293 58.3633C47.5618 58.1419 47.5781 57.9531 47.5781 57.7969C47.5781 57.3346 47.4707 56.9733 47.2559 56.7129C47.041 56.446 46.6895 56.3125 46.2012 56.3125C45.8561 56.3125 45.4948 56.4036 45.1172 56.5859C44.7461 56.7682 44.3848 57.0547 44.0332 57.4453C43.6816 57.8359 43.3594 58.334 43.0664 58.9395C42.7734 59.5449 42.5391 60.2741 42.3633 61.127L41.3672 65.8438H39.7363ZM66.6602 66.0391C65.8594 66.0391 65.1693 65.8796 64.5898 65.5605C64.0104 65.235 63.5645 64.7728 63.252 64.1738C62.946 63.5684 62.793 62.8457 62.793 62.0059C62.793 61.14 62.9167 60.2904 63.1641 59.457C63.418 58.6172 63.7793 57.8587 64.248 57.1816C64.7168 56.498 65.2799 55.9544 65.9375 55.5508C66.6016 55.1471 67.3438 54.9453 68.1641 54.9453C69.1471 54.9453 69.8926 55.1667 70.4004 55.6094C70.9082 56.0456 71.1621 56.6478 71.1621 57.416C71.1621 57.9564 71.0352 58.4544 70.7812 58.9102C70.5339 59.3659 70.1497 59.763 69.6289 60.1016C69.1146 60.4336 68.4603 60.694 67.666 60.8828C66.8783 61.0651 65.944 61.1562 64.8633 61.1562H64.4922C64.4792 61.2734 64.4661 61.4036 64.4531 61.5469C64.4466 61.6901 64.4434 61.8236 64.4434 61.9473C64.4434 62.8066 64.6517 63.4805 65.0684 63.9688C65.485 64.4505 66.11 64.6914 66.9434 64.6914C67.4577 64.6914 67.9427 64.6198 68.3984 64.4766C68.8607 64.3268 69.3424 64.1315 69.8438 63.8906V65.2871C69.362 65.5085 68.877 65.6908 68.3887 65.834C67.9004 65.9707 67.3242 66.0391 66.6602 66.0391ZM64.7266 59.8281H64.9609C65.7943 59.8281 66.5592 59.7565 67.2559 59.6133C67.9525 59.4635 68.5124 59.2227 68.9355 58.8906C69.3587 58.5521 69.5703 58.1029 69.5703 57.543C69.5703 57.1784 69.4466 56.8789 69.1992 56.6445C68.9518 56.4102 68.5742 56.293 68.0664 56.293C67.6172 56.293 67.1745 56.4329 66.7383 56.7129C66.3021 56.9863 65.9049 57.3867 65.5469 57.9141C65.1953 58.4414 64.9219 59.0794 64.7266 59.8281ZM75.6445 66.0391C75.0586 66.0391 74.5475 65.9023 74.1113 65.6289C73.6751 65.3555 73.3366 64.9486 73.0957 64.4082C72.8548 63.8613 72.7344 63.1842 72.7344 62.377C72.7344 61.6087 72.8125 60.8633 72.9688 60.1406C73.125 59.4115 73.3496 58.7344 73.6426 58.1094C73.9421 57.4844 74.3066 56.9375 74.7363 56.4688C75.166 55.9935 75.6543 55.6257 76.2012 55.3652C76.7546 55.0983 77.36 54.9648 78.0176 54.9648C78.5189 54.9648 78.9486 55.056 79.3066 55.2383C79.6647 55.4206 79.9609 55.6582 80.1953 55.9512C80.4362 56.2376 80.625 56.5469 80.7617 56.8789H80.8594C80.8984 56.5794 80.9375 56.2897 80.9766 56.0098C81.0156 55.7233 81.0612 55.4336 81.1133 55.1406C81.1719 54.8477 81.237 54.5449 81.3086 54.2324L82.0605 50.6484H83.6719L80.4492 65.8438H79.1113L79.375 63.7734H79.3066C78.9941 64.1771 78.6523 64.5514 78.2812 64.8965C77.9167 65.2415 77.5163 65.5182 77.0801 65.7266C76.6439 65.9349 76.1654 66.0391 75.6445 66.0391ZM76.1914 64.6914C76.4974 64.6914 76.8066 64.6165 77.1191 64.4668C77.4382 64.3171 77.7474 64.1055 78.0469 63.832C78.3464 63.5521 78.6263 63.2233 78.8867 62.8457C79.1471 62.4681 79.375 62.0514 79.5703 61.5957C79.7721 61.14 79.9284 60.6582 80.0391 60.1504C80.1497 59.6426 80.2051 59.1185 80.2051 58.5781C80.2051 57.888 80.0391 57.3379 79.707 56.9277C79.375 56.5176 78.8444 56.3125 78.1152 56.3125C77.666 56.3125 77.2493 56.4264 76.8652 56.6543C76.4876 56.8822 76.1458 57.1947 75.8398 57.5918C75.5339 57.9889 75.2734 58.4479 75.0586 58.9688C74.8503 59.4831 74.6875 60.0365 74.5703 60.6289C74.4596 61.2148 74.4043 61.8073 74.4043 62.4062C74.4043 63.1549 74.554 63.7246 74.8535 64.1152C75.153 64.4993 75.599 64.6914 76.1914 64.6914ZM83.8965 65.8438L86.1719 55.1406H87.8027L85.5273 65.8438H83.8965ZM87.5391 53.2656C87.2786 53.2656 87.0605 53.1908 86.8848 53.041C86.7155 52.8848 86.6309 52.6667 86.6309 52.3867C86.6309 52.1719 86.6732 51.9701 86.7578 51.7812C86.849 51.5924 86.9759 51.4427 87.1387 51.332C87.3079 51.2148 87.513 51.1562 87.7539 51.1562C88.0404 51.1562 88.2552 51.2311 88.3984 51.3809C88.5417 51.5306 88.6133 51.7389 88.6133 52.0059C88.6133 52.39 88.5026 52.696 88.2812 52.9238C88.0599 53.1517 87.8125 53.2656 87.5391 53.2656ZM92.002 66.0391C91.2923 66.0391 90.6999 65.8698 90.2246 65.5312C89.7559 65.1862 89.5215 64.597 89.5215 63.7637C89.5215 63.5618 89.5345 63.3438 89.5605 63.1094C89.5866 62.8685 89.6289 62.6211 89.6875 62.3672L90.9473 56.3809H89.2969L89.4531 55.6289L91.2305 54.9453L92.4023 52.6797H93.3691L92.832 55.1406H95.5859L95.332 56.3809H92.5879L91.3184 62.3867C91.2728 62.569 91.2305 62.7643 91.1914 62.9727C91.1589 63.181 91.1426 63.3796 91.1426 63.5684C91.1426 63.8939 91.2272 64.1673 91.3965 64.3887C91.5658 64.6035 91.849 64.7109 92.2461 64.7109C92.4935 64.7109 92.7279 64.6882 92.9492 64.6426C93.1771 64.597 93.418 64.5319 93.6719 64.4473V65.6973C93.5091 65.7754 93.2617 65.8503 92.9297 65.9219C92.6042 66 92.2949 66.0391 92.002 66.0391ZM99.9219 66C99.1016 66 98.3952 65.834 97.8027 65.502C97.2103 65.1634 96.7546 64.6882 96.4355 64.0762C96.123 63.4577 95.9668 62.7285 95.9668 61.8887C95.9668 61.2116 96.0417 60.5443 96.1914 59.8867C96.3411 59.2227 96.5625 58.5977 96.8555 58.0117C97.1484 57.4193 97.5098 56.8984 97.9395 56.4492C98.3757 55.9935 98.877 55.6387 99.4434 55.3848C100.01 55.1243 100.641 54.9941 101.338 54.9941C102.171 54.9941 102.881 55.1634 103.467 55.502C104.059 55.834 104.512 56.3092 104.824 56.9277C105.143 57.5462 105.303 58.2786 105.303 59.125C105.303 59.7891 105.228 60.4499 105.078 61.1074C104.935 61.765 104.717 62.39 104.424 62.9824C104.137 63.5684 103.776 64.0892 103.34 64.5449C102.91 64.9941 102.409 65.349 101.836 65.6094C101.27 65.8698 100.632 66 99.9219 66ZM100.02 64.6523C100.423 64.6523 100.807 64.5677 101.172 64.3984C101.536 64.2292 101.868 63.985 102.168 63.666C102.467 63.3405 102.725 62.9466 102.939 62.4844C103.161 62.0156 103.33 61.485 103.447 60.8926C103.571 60.3001 103.633 59.6491 103.633 58.9395C103.633 58.5163 103.558 58.1061 103.408 57.709C103.258 57.3118 103.018 56.9863 102.686 56.7324C102.354 56.472 101.911 56.3418 101.357 56.3418C100.902 56.3418 100.479 56.4362 100.088 56.625C99.7038 56.8138 99.3587 57.0807 99.0527 57.4258C98.7467 57.7708 98.4863 58.1777 98.2715 58.6465C98.0632 59.1152 97.9004 59.6296 97.7832 60.1895C97.6725 60.7493 97.6172 61.3385 97.6172 61.957C97.6172 62.8099 97.8255 63.474 98.2422 63.9492C98.6589 64.418 99.2513 64.6523 100.02 64.6523ZM106.826 65.8438L109.102 55.1406H110.43L110.176 57.2109H110.273C110.547 56.8398 110.84 56.4818 111.152 56.1367C111.465 55.7852 111.82 55.4987 112.217 55.2773C112.62 55.056 113.083 54.9453 113.604 54.9453C113.799 54.9453 113.997 54.9583 114.199 54.9844C114.401 55.0039 114.59 55.0397 114.766 55.0918L114.414 56.5469C114.238 56.5078 114.066 56.4785 113.896 56.459C113.734 56.4395 113.564 56.4297 113.389 56.4297C112.894 56.4297 112.435 56.5599 112.012 56.8203C111.589 57.0742 111.208 57.416 110.869 57.8457C110.537 58.2754 110.254 58.7539 110.02 59.2812C109.792 59.8086 109.619 60.3457 109.502 60.8926L108.457 65.8438H106.826ZM124.297 66C123.477 66 122.77 65.834 122.178 65.502C121.585 65.1634 121.13 64.6882 120.811 64.0762C120.498 63.4577 120.342 62.7285 120.342 61.8887C120.342 61.2116 120.417 60.5443 120.566 59.8867C120.716 59.2227 120.938 58.5977 121.23 58.0117C121.523 57.4193 121.885 56.8984 122.314 56.4492C122.751 55.9935 123.252 55.6387 123.818 55.3848C124.385 55.1243 125.016 54.9941 125.713 54.9941C126.546 54.9941 127.256 55.1634 127.842 55.502C128.434 55.834 128.887 56.3092 129.199 56.9277C129.518 57.5462 129.678 58.2786 129.678 59.125C129.678 59.7891 129.603 60.4499 129.453 61.1074C129.31 61.765 129.092 62.39 128.799 62.9824C128.512 63.5684 128.151 64.0892 127.715 64.5449C127.285 64.9941 126.784 65.349 126.211 65.6094C125.645 65.8698 125.007 66 124.297 66ZM124.395 64.6523C124.798 64.6523 125.182 64.5677 125.547 64.3984C125.911 64.2292 126.243 63.985 126.543 63.666C126.842 63.3405 127.1 62.9466 127.314 62.4844C127.536 62.0156 127.705 61.485 127.822 60.8926C127.946 60.3001 128.008 59.6491 128.008 58.9395C128.008 58.5163 127.933 58.1061 127.783 57.709C127.633 57.3118 127.393 56.9863 127.061 56.7324C126.729 56.472 126.286 56.3418 125.732 56.3418C125.277 56.3418 124.854 56.4362 124.463 56.625C124.079 56.8138 123.734 57.0807 123.428 57.4258C123.122 57.7708 122.861 58.1777 122.646 58.6465C122.438 59.1152 122.275 59.6296 122.158 60.1895C122.048 60.7493 121.992 61.3385 121.992 61.957C121.992 62.8099 122.201 63.474 122.617 63.9492C123.034 64.418 123.626 64.6523 124.395 64.6523ZM130.205 70.6289L133.477 55.1406H134.805L134.541 57.2207H134.609C134.915 56.8171 135.251 56.446 135.615 56.1074C135.986 55.7624 136.39 55.4857 136.826 55.2773C137.269 55.069 137.751 54.9648 138.271 54.9648C138.857 54.9648 139.368 55.1048 139.805 55.3848C140.241 55.6582 140.579 56.0684 140.82 56.6152C141.068 57.1556 141.191 57.8294 141.191 58.6367C141.191 59.4049 141.113 60.1536 140.957 60.8828C140.807 61.6055 140.586 62.2793 140.293 62.9043C140 63.5228 139.639 64.0697 139.209 64.5449C138.786 65.0137 138.301 65.3815 137.754 65.6484C137.207 65.9089 136.605 66.0391 135.947 66.0391C135.446 66.0391 135.013 65.9512 134.648 65.7754C134.29 65.5931 133.988 65.3555 133.74 65.0625C133.499 64.7695 133.307 64.4538 133.164 64.1152H133.076C133.05 64.3561 133.008 64.6719 132.949 65.0625C132.897 65.4466 132.842 65.7689 132.783 66.0293L131.807 70.6289H130.205ZM135.83 64.6914C136.286 64.6914 136.702 64.5775 137.08 64.3496C137.464 64.1217 137.806 63.8125 138.105 63.4219C138.411 63.0247 138.669 62.5658 138.877 62.0449C139.092 61.5241 139.255 60.9707 139.365 60.3848C139.476 59.7988 139.531 59.2031 139.531 58.5977C139.531 57.8424 139.378 57.2728 139.072 56.8887C138.773 56.5046 138.324 56.3125 137.725 56.3125C137.412 56.3125 137.096 56.3906 136.777 56.5469C136.458 56.6966 136.149 56.9115 135.85 57.1914C135.55 57.4648 135.27 57.7904 135.01 58.168C134.749 58.5456 134.521 58.9622 134.326 59.418C134.137 59.8737 133.988 60.3555 133.877 60.8633C133.766 61.3711 133.711 61.8919 133.711 62.4258C133.711 63.1094 133.883 63.6595 134.229 64.0762C134.58 64.4863 135.114 64.6914 135.83 64.6914ZM147.051 66.0391C146.25 66.0391 145.56 65.8796 144.98 65.5605C144.401 65.235 143.955 64.7728 143.643 64.1738C143.337 63.5684 143.184 62.8457 143.184 62.0059C143.184 61.14 143.307 60.2904 143.555 59.457C143.809 58.6172 144.17 57.8587 144.639 57.1816C145.107 56.498 145.671 55.9544 146.328 55.5508C146.992 55.1471 147.734 54.9453 148.555 54.9453C149.538 54.9453 150.283 55.1667 150.791 55.6094C151.299 56.0456 151.553 56.6478 151.553 57.416C151.553 57.9564 151.426 58.4544 151.172 58.9102C150.924 59.3659 150.54 59.763 150.02 60.1016C149.505 60.4336 148.851 60.694 148.057 60.8828C147.269 61.0651 146.335 61.1562 145.254 61.1562H144.883C144.87 61.2734 144.857 61.4036 144.844 61.5469C144.837 61.6901 144.834 61.8236 144.834 61.9473C144.834 62.8066 145.042 63.4805 145.459 63.9688C145.876 64.4505 146.501 64.6914 147.334 64.6914C147.848 64.6914 148.333 64.6198 148.789 64.4766C149.251 64.3268 149.733 64.1315 150.234 63.8906V65.2871C149.753 65.5085 149.268 65.6908 148.779 65.834C148.291 65.9707 147.715 66.0391 147.051 66.0391ZM145.117 59.8281H145.352C146.185 59.8281 146.95 59.7565 147.646 59.6133C148.343 59.4635 148.903 59.2227 149.326 58.8906C149.749 58.5521 149.961 58.1029 149.961 57.543C149.961 57.1784 149.837 56.8789 149.59 56.6445C149.342 56.4102 148.965 56.293 148.457 56.293C148.008 56.293 147.565 56.4329 147.129 56.7129C146.693 56.9863 146.296 57.3867 145.938 57.9141C145.586 58.4414 145.312 59.0794 145.117 59.8281ZM152.656 65.8438L154.951 55.0918H156.387L156.133 57.1523H156.152C156.4 56.8138 156.696 56.472 157.041 56.127C157.393 55.7754 157.799 55.4824 158.262 55.248C158.73 55.0072 159.261 54.8867 159.854 54.8867C160.426 54.8867 160.918 54.9941 161.328 55.209C161.738 55.4173 162.054 55.7233 162.275 56.127C162.497 56.5241 162.607 57.0059 162.607 57.5723C162.607 57.8717 162.585 58.1745 162.539 58.4805C162.493 58.7865 162.445 59.0599 162.393 59.3008L160.967 65.8438H159.238L160.684 59.0859C160.742 58.793 160.788 58.5423 160.82 58.334C160.859 58.1257 160.879 57.9303 160.879 57.748C160.879 57.2923 160.755 56.9473 160.508 56.7129C160.26 56.4785 159.896 56.3613 159.414 56.3613C158.939 56.3613 158.438 56.5241 157.91 56.8496C157.383 57.1751 156.895 57.6895 156.445 58.3926C155.996 59.0892 155.648 60.0007 155.4 61.127L154.395 65.8438H152.656ZM171.992 66.0391C171.341 66.0391 170.768 65.974 170.273 65.8438C169.785 65.7135 169.359 65.5508 168.994 65.3555V63.8516C169.339 64.0599 169.775 64.2552 170.303 64.4375C170.837 64.6198 171.383 64.7109 171.943 64.7109C172.497 64.7109 172.956 64.6361 173.32 64.4863C173.691 64.3366 173.968 64.1315 174.15 63.8711C174.339 63.6042 174.434 63.2949 174.434 62.9434C174.434 62.6634 174.372 62.4225 174.248 62.2207C174.131 62.0124 173.936 61.8105 173.662 61.6152C173.395 61.4199 173.037 61.1953 172.588 60.9414C172.087 60.6615 171.663 60.3783 171.318 60.0918C170.973 59.8053 170.71 59.4928 170.527 59.1543C170.352 58.8092 170.264 58.4089 170.264 57.9531C170.264 57.3411 170.413 56.8105 170.713 56.3613C171.012 55.9121 171.432 55.5638 171.973 55.3164C172.52 55.069 173.158 54.9453 173.887 54.9453C174.531 54.9453 175.127 55.0202 175.674 55.1699C176.221 55.3132 176.693 55.4792 177.09 55.668L176.562 56.9668C176.224 56.804 175.837 56.6543 175.4 56.5176C174.964 56.3809 174.46 56.3125 173.887 56.3125C173.275 56.3125 172.786 56.4525 172.422 56.7324C172.064 57.0124 171.885 57.39 171.885 57.8652C171.885 58.1126 171.937 58.334 172.041 58.5293C172.152 58.7246 172.34 58.9199 172.607 59.1152C172.874 59.304 173.239 59.5254 173.701 59.7793C174.15 60.0397 174.554 60.3066 174.912 60.5801C175.277 60.847 175.563 61.1562 175.771 61.5078C175.986 61.8529 176.094 62.2793 176.094 62.7871C176.094 63.4837 175.928 64.0762 175.596 64.5645C175.264 65.0462 174.788 65.4141 174.17 65.668C173.558 65.9154 172.832 66.0391 171.992 66.0391ZM182.441 66C181.621 66 180.915 65.834 180.322 65.502C179.73 65.1634 179.274 64.6882 178.955 64.0762C178.643 63.4577 178.486 62.7285 178.486 61.8887C178.486 61.2116 178.561 60.5443 178.711 59.8867C178.861 59.2227 179.082 58.5977 179.375 58.0117C179.668 57.4193 180.029 56.8984 180.459 56.4492C180.895 55.9935 181.396 55.6387 181.963 55.3848C182.529 55.1243 183.161 54.9941 183.857 54.9941C184.691 54.9941 185.4 55.1634 185.986 55.502C186.579 55.834 187.031 56.3092 187.344 56.9277C187.663 57.5462 187.822 58.2786 187.822 59.125C187.822 59.7891 187.747 60.4499 187.598 61.1074C187.454 61.765 187.236 62.39 186.943 62.9824C186.657 63.5684 186.296 64.0892 185.859 64.5449C185.43 64.9941 184.928 65.349 184.355 65.6094C183.789 65.8698 183.151 66 182.441 66ZM182.539 64.6523C182.943 64.6523 183.327 64.5677 183.691 64.3984C184.056 64.2292 184.388 63.985 184.688 63.666C184.987 63.3405 185.244 62.9466 185.459 62.4844C185.68 62.0156 185.85 61.485 185.967 60.8926C186.09 60.3001 186.152 59.6491 186.152 58.9395C186.152 58.5163 186.077 58.1061 185.928 57.709C185.778 57.3118 185.537 56.9863 185.205 56.7324C184.873 56.472 184.43 56.3418 183.877 56.3418C183.421 56.3418 182.998 56.4362 182.607 56.625C182.223 56.8138 181.878 57.0807 181.572 57.4258C181.266 57.7708 181.006 58.1777 180.791 58.6465C180.583 59.1152 180.42 59.6296 180.303 60.1895C180.192 60.7493 180.137 61.3385 180.137 61.957C180.137 62.8099 180.345 63.474 180.762 63.9492C181.178 64.418 181.771 64.6523 182.539 64.6523ZM192.559 66.0391C192.018 66.0391 191.546 65.9382 191.143 65.7363C190.739 65.5345 190.426 65.2383 190.205 64.8477C189.99 64.4505 189.883 63.9655 189.883 63.3926C189.883 63.1061 189.902 62.8294 189.941 62.5625C189.987 62.2891 190.036 62.0059 190.088 61.7129L191.504 55.1406H193.145L191.689 61.8984C191.637 62.1784 191.595 62.429 191.562 62.6504C191.536 62.8652 191.523 63.0573 191.523 63.2266C191.523 63.6888 191.641 64.0501 191.875 64.3105C192.116 64.5645 192.497 64.6914 193.018 64.6914C193.506 64.6914 194.017 64.5254 194.551 64.1934C195.091 63.8613 195.589 63.3405 196.045 62.6309C196.507 61.9147 196.859 60.987 197.1 59.8477L198.096 55.1406H199.697L197.432 65.8438H196.094L196.357 63.7734H196.27C196.022 64.112 195.723 64.457 195.371 64.8086C195.02 65.1536 194.613 65.4466 194.15 65.6875C193.688 65.9219 193.158 66.0391 192.559 66.0391ZM200.869 65.8438L203.145 55.1406H204.473L204.219 57.2109H204.316C204.59 56.8398 204.883 56.4818 205.195 56.1367C205.508 55.7852 205.863 55.4987 206.26 55.2773C206.663 55.056 207.126 54.9453 207.646 54.9453C207.842 54.9453 208.04 54.9583 208.242 54.9844C208.444 55.0039 208.633 55.0397 208.809 55.0918L208.457 56.5469C208.281 56.5078 208.109 56.4785 207.939 56.459C207.777 56.4395 207.607 56.4297 207.432 56.4297C206.937 56.4297 206.478 56.5599 206.055 56.8203C205.632 57.0742 205.251 57.416 204.912 57.8457C204.58 58.2754 204.297 58.7539 204.062 59.2812C203.835 59.8086 203.662 60.3457 203.545 60.8926L202.5 65.8438H200.869ZM213.154 66.0391C212.36 66.0391 211.663 65.8893 211.064 65.5898C210.472 65.2839 210.01 64.8346 209.678 64.2422C209.352 63.6497 209.189 62.9141 209.189 62.0352C209.189 61.2734 209.271 60.541 209.434 59.8379C209.603 59.1348 209.847 58.487 210.166 57.8945C210.485 57.3021 210.872 56.7845 211.328 56.3418C211.784 55.8991 212.301 55.5573 212.881 55.3164C213.467 55.069 214.105 54.9453 214.795 54.9453C215.257 54.9453 215.716 54.9909 216.172 55.082C216.634 55.1667 217.051 55.2904 217.422 55.4531L216.963 56.8203C216.689 56.6901 216.367 56.5729 215.996 56.4688C215.625 56.3646 215.228 56.3125 214.805 56.3125C214.212 56.3125 213.672 56.4622 213.184 56.7617C212.702 57.0612 212.285 57.4779 211.934 58.0117C211.589 58.5391 211.322 59.1445 211.133 59.8281C210.944 60.5117 210.85 61.2409 210.85 62.0156C210.85 62.569 210.947 63.0475 211.143 63.4512C211.338 63.8483 211.618 64.1543 211.982 64.3691C212.354 64.584 212.796 64.6914 213.311 64.6914C213.786 64.6914 214.232 64.6263 214.648 64.4961C215.072 64.3659 215.485 64.2096 215.889 64.0273V65.4141C215.531 65.5964 215.12 65.7461 214.658 65.8633C214.202 65.9805 213.701 66.0391 213.154 66.0391ZM222.129 66.0391C221.328 66.0391 220.638 65.8796 220.059 65.5605C219.479 65.235 219.033 64.7728 218.721 64.1738C218.415 63.5684 218.262 62.8457 218.262 62.0059C218.262 61.14 218.385 60.2904 218.633 59.457C218.887 58.6172 219.248 57.8587 219.717 57.1816C220.186 56.498 220.749 55.9544 221.406 55.5508C222.07 55.1471 222.812 54.9453 223.633 54.9453C224.616 54.9453 225.361 55.1667 225.869 55.6094C226.377 56.0456 226.631 56.6478 226.631 57.416C226.631 57.9564 226.504 58.4544 226.25 58.9102C226.003 59.3659 225.618 59.763 225.098 60.1016C224.583 60.4336 223.929 60.694 223.135 60.8828C222.347 61.0651 221.413 61.1562 220.332 61.1562H219.961C219.948 61.2734 219.935 61.4036 219.922 61.5469C219.915 61.6901 219.912 61.8236 219.912 61.9473C219.912 62.8066 220.12 63.4805 220.537 63.9688C220.954 64.4505 221.579 64.6914 222.412 64.6914C222.926 64.6914 223.411 64.6198 223.867 64.4766C224.329 64.3268 224.811 64.1315 225.312 63.8906V65.2871C224.831 65.5085 224.346 65.6908 223.857 65.834C223.369 65.9707 222.793 66.0391 222.129 66.0391ZM220.195 59.8281H220.43C221.263 59.8281 222.028 59.7565 222.725 59.6133C223.421 59.4635 223.981 59.2227 224.404 58.8906C224.827 58.5521 225.039 58.1029 225.039 57.543C225.039 57.1784 224.915 56.8789 224.668 56.6445C224.421 56.4102 224.043 56.293 223.535 56.293C223.086 56.293 222.643 56.4329 222.207 56.7129C221.771 56.9863 221.374 57.3867 221.016 57.9141C220.664 58.4414 220.391 59.0794 220.195 59.8281ZM236.309 66.0391C235.723 66.0391 235.212 65.9023 234.775 65.6289C234.339 65.3555 234.001 64.9486 233.76 64.4082C233.519 63.8613 233.398 63.1842 233.398 62.377C233.398 61.6087 233.477 60.8633 233.633 60.1406C233.789 59.4115 234.014 58.7344 234.307 58.1094C234.606 57.4844 234.971 56.9375 235.4 56.4688C235.83 55.9935 236.318 55.6257 236.865 55.3652C237.419 55.0983 238.024 54.9648 238.682 54.9648C239.183 54.9648 239.613 55.056 239.971 55.2383C240.329 55.4206 240.625 55.6582 240.859 55.9512C241.1 56.2376 241.289 56.5469 241.426 56.8789H241.523C241.562 56.5794 241.602 56.2897 241.641 56.0098C241.68 55.7233 241.725 55.4336 241.777 55.1406C241.836 54.8477 241.901 54.5449 241.973 54.2324L242.725 50.6484H244.336L241.113 65.8438H239.775L240.039 63.7734H239.971C239.658 64.1771 239.316 64.5514 238.945 64.8965C238.581 65.2415 238.18 65.5182 237.744 65.7266C237.308 65.9349 236.829 66.0391 236.309 66.0391ZM236.855 64.6914C237.161 64.6914 237.471 64.6165 237.783 64.4668C238.102 64.3171 238.411 64.1055 238.711 63.832C239.01 63.5521 239.29 63.2233 239.551 62.8457C239.811 62.4681 240.039 62.0514 240.234 61.5957C240.436 61.14 240.592 60.6582 240.703 60.1504C240.814 59.6426 240.869 59.1185 240.869 58.5781C240.869 57.888 240.703 57.3379 240.371 56.9277C240.039 56.5176 239.508 56.3125 238.779 56.3125C238.33 56.3125 237.913 56.4264 237.529 56.6543C237.152 56.8822 236.81 57.1947 236.504 57.5918C236.198 57.9889 235.938 58.4479 235.723 58.9688C235.514 59.4831 235.352 60.0365 235.234 60.6289C235.124 61.2148 235.068 61.8073 235.068 62.4062C235.068 63.1549 235.218 63.7246 235.518 64.1152C235.817 64.4993 236.263 64.6914 236.855 64.6914ZM248.848 66.0391C248.047 66.0391 247.357 65.8796 246.777 65.5605C246.198 65.235 245.752 64.7728 245.439 64.1738C245.133 63.5684 244.98 62.8457 244.98 62.0059C244.98 61.14 245.104 60.2904 245.352 59.457C245.605 58.6172 245.967 57.8587 246.436 57.1816C246.904 56.498 247.467 55.9544 248.125 55.5508C248.789 55.1471 249.531 54.9453 250.352 54.9453C251.335 54.9453 252.08 55.1667 252.588 55.6094C253.096 56.0456 253.35 56.6478 253.35 57.416C253.35 57.9564 253.223 58.4544 252.969 58.9102C252.721 59.3659 252.337 59.763 251.816 60.1016C251.302 60.4336 250.648 60.694 249.854 60.8828C249.066 61.0651 248.132 61.1562 247.051 61.1562H246.68C246.667 61.2734 246.654 61.4036 246.641 61.5469C246.634 61.6901 246.631 61.8236 246.631 61.9473C246.631 62.8066 246.839 63.4805 247.256 63.9688C247.673 64.4505 248.298 64.6914 249.131 64.6914C249.645 64.6914 250.13 64.6198 250.586 64.4766C251.048 64.3268 251.53 64.1315 252.031 63.8906V65.2871C251.549 65.5085 251.064 65.6908 250.576 65.834C250.088 65.9707 249.512 66.0391 248.848 66.0391ZM246.914 59.8281H247.148C247.982 59.8281 248.747 59.7565 249.443 59.6133C250.14 59.4635 250.7 59.2227 251.123 58.8906C251.546 58.5521 251.758 58.1029 251.758 57.543C251.758 57.1784 251.634 56.8789 251.387 56.6445C251.139 56.4102 250.762 56.293 250.254 56.293C249.805 56.293 249.362 56.4329 248.926 56.7129C248.49 56.9863 248.092 57.3867 247.734 57.9141C247.383 58.4414 247.109 59.0794 246.914 59.8281ZM259.717 65.8438L261.992 55.1406H263.32L263.066 57.2109H263.164C263.398 56.8724 263.682 56.5306 264.014 56.1855C264.346 55.834 264.73 55.541 265.166 55.3066C265.609 55.0658 266.11 54.9453 266.67 54.9453C267.425 54.9453 267.998 55.1634 268.389 55.5996C268.779 56.0358 269.007 56.6315 269.072 57.3867H269.141C269.401 56.9896 269.714 56.6055 270.078 56.2344C270.443 55.8568 270.856 55.5475 271.318 55.3066C271.787 55.0658 272.301 54.9453 272.861 54.9453C273.688 54.9453 274.326 55.1699 274.775 55.6191C275.225 56.0684 275.449 56.7194 275.449 57.5723C275.449 57.8783 275.43 58.168 275.391 58.4414C275.358 58.7148 275.306 58.9948 275.234 59.2812L273.848 65.8438H272.207L273.652 59.1055C273.711 58.8125 273.753 58.5586 273.779 58.3438C273.812 58.1289 273.828 57.9238 273.828 57.7285C273.828 57.2923 273.711 56.9473 273.477 56.6934C273.242 56.4395 272.881 56.3125 272.393 56.3125C272.048 56.3125 271.689 56.4069 271.318 56.5957C270.947 56.7845 270.586 57.071 270.234 57.4551C269.889 57.8327 269.577 58.3112 269.297 58.8906C269.017 59.4701 268.792 60.1504 268.623 60.9316L267.578 65.8438H265.957L267.383 59.1348C267.441 58.8353 267.484 58.5781 267.51 58.3633C267.542 58.1419 267.559 57.9531 267.559 57.7969C267.559 57.3346 267.451 56.9733 267.236 56.7129C267.021 56.446 266.67 56.3125 266.182 56.3125C265.837 56.3125 265.475 56.4036 265.098 56.5859C264.727 56.7682 264.365 57.0547 264.014 57.4453C263.662 57.8359 263.34 58.334 263.047 58.9395C262.754 59.5449 262.52 60.2741 262.344 61.127L261.348 65.8438H259.717ZM280.371 66.0391C279.831 66.0391 279.359 65.9382 278.955 65.7363C278.551 65.5345 278.239 65.2383 278.018 64.8477C277.803 64.4505 277.695 63.9655 277.695 63.3926C277.695 63.1061 277.715 62.8294 277.754 62.5625C277.799 62.2891 277.848 62.0059 277.9 61.7129L279.316 55.1406H280.957L279.502 61.8984C279.45 62.1784 279.408 62.429 279.375 62.6504C279.349 62.8652 279.336 63.0573 279.336 63.2266C279.336 63.6888 279.453 64.0501 279.688 64.3105C279.928 64.5645 280.309 64.6914 280.83 64.6914C281.318 64.6914 281.829 64.5254 282.363 64.1934C282.904 63.8613 283.402 63.3405 283.857 62.6309C284.32 61.9147 284.671 60.987 284.912 59.8477L285.908 55.1406H287.51L285.244 65.8438H283.906L284.17 63.7734H284.082C283.835 64.112 283.535 64.457 283.184 64.8086C282.832 65.1536 282.425 65.4466 281.963 65.6875C281.501 65.9219 280.97 66.0391 280.371 66.0391ZM288.662 65.8438L291.904 50.6484H293.525L290.293 65.8438H288.662ZM296.787 66.0391C296.077 66.0391 295.485 65.8698 295.01 65.5312C294.541 65.1862 294.307 64.597 294.307 63.7637C294.307 63.5618 294.32 63.3438 294.346 63.1094C294.372 62.8685 294.414 62.6211 294.473 62.3672L295.732 56.3809H294.082L294.238 55.6289L296.016 54.9453L297.188 52.6797H298.154L297.617 55.1406H300.371L300.117 56.3809H297.373L296.104 62.3867C296.058 62.569 296.016 62.7643 295.977 62.9727C295.944 63.181 295.928 63.3796 295.928 63.5684C295.928 63.8939 296.012 64.1673 296.182 64.3887C296.351 64.6035 296.634 64.7109 297.031 64.7109C297.279 64.7109 297.513 64.6882 297.734 64.6426C297.962 64.597 298.203 64.5319 298.457 64.4473V65.6973C298.294 65.7754 298.047 65.8503 297.715 65.9219C297.389 66 297.08 66.0391 296.787 66.0391ZM300.342 65.8438L302.617 55.1406H304.248L301.973 65.8438H300.342ZM303.984 53.2656C303.724 53.2656 303.506 53.1908 303.33 53.041C303.161 52.8848 303.076 52.6667 303.076 52.3867C303.076 52.1719 303.118 51.9701 303.203 51.7812C303.294 51.5924 303.421 51.4427 303.584 51.332C303.753 51.2148 303.958 51.1562 304.199 51.1562C304.486 51.1562 304.701 51.2311 304.844 51.3809C304.987 51.5306 305.059 51.7389 305.059 52.0059C305.059 52.39 304.948 52.696 304.727 52.9238C304.505 53.1517 304.258 53.2656 303.984 53.2656ZM2.91016 93.0391C2.32422 93.0391 1.81315 92.9023 1.37695 92.6289C0.940755 92.3555 0.602214 91.9486 0.361328 91.4082C0.120443 90.8613 0 90.1842 0 89.377C0 88.6087 0.078125 87.8633 0.234375 87.1406C0.390625 86.4115 0.615234 85.7344 0.908203 85.1094C1.20768 84.4844 1.57227 83.9375 2.00195 83.4688C2.43164 82.9935 2.91992 82.6257 3.4668 82.3652C4.02018 82.0983 4.62565 81.9648 5.2832 81.9648C5.78451 81.9648 6.21419 82.056 6.57227 82.2383C6.93034 82.4206 7.22656 82.6582 7.46094 82.9512C7.70182 83.2376 7.89062 83.5469 8.02734 83.8789H8.125C8.16406 83.5794 8.20312 83.2897 8.24219 83.0098C8.28125 82.7233 8.32682 82.4336 8.37891 82.1406C8.4375 81.8477 8.5026 81.5449 8.57422 81.2324L9.32617 77.6484H10.9375L7.71484 92.8438H6.37695L6.64062 90.7734H6.57227C6.25977 91.1771 5.91797 91.5514 5.54688 91.8965C5.18229 92.2415 4.7819 92.5182 4.3457 92.7266C3.90951 92.9349 3.43099 93.0391 2.91016 93.0391ZM3.45703 91.6914C3.76302 91.6914 4.07227 91.6165 4.38477 91.4668C4.70378 91.3171 5.01302 91.1055 5.3125 90.832C5.61198 90.5521 5.89193 90.2233 6.15234 89.8457C6.41276 89.4681 6.64062 89.0514 6.83594 88.5957C7.03776 88.14 7.19401 87.6582 7.30469 87.1504C7.41536 86.6426 7.4707 86.1185 7.4707 85.5781C7.4707 84.888 7.30469 84.3379 6.97266 83.9277C6.64062 83.5176 6.11003 83.3125 5.38086 83.3125C4.93164 83.3125 4.51497 83.4264 4.13086 83.6543C3.75326 83.8822 3.41146 84.1947 3.10547 84.5918C2.79948 84.9889 2.53906 85.4479 2.32422 85.9688C2.11589 86.4831 1.95312 87.0365 1.83594 87.6289C1.72526 88.2148 1.66992 88.8073 1.66992 89.4062C1.66992 90.1549 1.81966 90.7246 2.11914 91.1152C2.41862 91.4993 2.86458 91.6914 3.45703 91.6914ZM15.5273 93C14.707 93 14.0007 92.834 13.4082 92.502C12.8158 92.1634 12.36 91.6882 12.041 91.0762C11.7285 90.4577 11.5723 89.7285 11.5723 88.8887C11.5723 88.2116 11.6471 87.5443 11.7969 86.8867C11.9466 86.2227 12.168 85.5977 12.4609 85.0117C12.7539 84.4193 13.1152 83.8984 13.5449 83.4492C13.9811 82.9935 14.4824 82.6387 15.0488 82.3848C15.6152 82.1243 16.2467 81.9941 16.9434 81.9941C17.7767 81.9941 18.4863 82.1634 19.0723 82.502C19.6647 82.834 20.1172 83.3092 20.4297 83.9277C20.7487 84.5462 20.9082 85.2786 20.9082 86.125C20.9082 86.7891 20.8333 87.4499 20.6836 88.1074C20.5404 88.765 20.3223 89.39 20.0293 89.9824C19.7428 90.5684 19.3815 91.0892 18.9453 91.5449C18.5156 91.9941 18.0143 92.349 17.4414 92.6094C16.875 92.8698 16.237 93 15.5273 93ZM15.625 91.6523C16.0286 91.6523 16.4128 91.5677 16.7773 91.3984C17.1419 91.2292 17.474 90.985 17.7734 90.666C18.0729 90.3405 18.3301 89.9466 18.5449 89.4844C18.7663 89.0156 18.9355 88.485 19.0527 87.8926C19.1764 87.3001 19.2383 86.6491 19.2383 85.9395C19.2383 85.5163 19.1634 85.1061 19.0137 84.709C18.8639 84.3118 18.623 83.9863 18.291 83.7324C17.959 83.472 17.5163 83.3418 16.9629 83.3418C16.5072 83.3418 16.084 83.4362 15.6934 83.625C15.3092 83.8138 14.9642 84.0807 14.6582 84.4258C14.3522 84.7708 14.0918 85.1777 13.877 85.6465C13.6686 86.1152 13.5059 86.6296 13.3887 87.1895C13.278 87.7493 13.2227 88.3385 13.2227 88.957C13.2227 89.8099 13.431 90.474 13.8477 90.9492C14.2643 91.418 14.8568 91.6523 15.625 91.6523ZM26.8066 93.0391C26.0124 93.0391 25.3158 92.8893 24.7168 92.5898C24.1243 92.2839 23.6621 91.8346 23.3301 91.2422C23.0046 90.6497 22.8418 89.9141 22.8418 89.0352C22.8418 88.2734 22.9232 87.541 23.0859 86.8379C23.2552 86.1348 23.4993 85.487 23.8184 84.8945C24.1374 84.3021 24.5247 83.7845 24.9805 83.3418C25.4362 82.8991 25.9538 82.5573 26.5332 82.3164C27.1191 82.069 27.7572 81.9453 28.4473 81.9453C28.9095 81.9453 29.3685 81.9909 29.8242 82.082C30.2865 82.1667 30.7031 82.2904 31.0742 82.4531L30.6152 83.8203C30.3418 83.6901 30.0195 83.5729 29.6484 83.4688C29.2773 83.3646 28.8802 83.3125 28.457 83.3125C27.8646 83.3125 27.3242 83.4622 26.8359 83.7617C26.3542 84.0612 25.9375 84.4779 25.5859 85.0117C25.2409 85.5391 24.974 86.1445 24.7852 86.8281C24.5964 87.5117 24.502 88.2409 24.502 89.0156C24.502 89.569 24.5996 90.0475 24.7949 90.4512C24.9902 90.8483 25.2702 91.1543 25.6348 91.3691C26.0059 91.584 26.4486 91.6914 26.9629 91.6914C27.4382 91.6914 27.8841 91.6263 28.3008 91.4961C28.724 91.3659 29.1374 91.2096 29.541 91.0273V92.4141C29.1829 92.5964 28.7728 92.7461 28.3105 92.8633C27.8548 92.9805 27.3535 93.0391 26.8066 93.0391ZM34.707 93.0391C34.1667 93.0391 33.6947 92.9382 33.291 92.7363C32.8874 92.5345 32.5749 92.2383 32.3535 91.8477C32.1387 91.4505 32.0312 90.9655 32.0312 90.3926C32.0312 90.1061 32.0508 89.8294 32.0898 89.5625C32.1354 89.2891 32.1842 89.0059 32.2363 88.7129L33.6523 82.1406H35.293L33.8379 88.8984C33.7858 89.1784 33.7435 89.429 33.7109 89.6504C33.6849 89.8652 33.6719 90.0573 33.6719 90.2266C33.6719 90.6888 33.7891 91.0501 34.0234 91.3105C34.2643 91.5645 34.6452 91.6914 35.166 91.6914C35.6543 91.6914 36.1654 91.5254 36.6992 91.1934C37.2396 90.8613 37.7376 90.3405 38.1934 89.6309C38.6556 88.9147 39.0072 87.987 39.248 86.8477L40.2441 82.1406H41.8457L39.5801 92.8438H38.2422L38.5059 90.7734H38.418C38.1706 91.112 37.8711 91.457 37.5195 91.8086C37.168 92.1536 36.7611 92.4466 36.2988 92.6875C35.8366 92.9219 35.306 93.0391 34.707 93.0391ZM43.0176 92.8438L45.293 82.1406H46.6211L46.3672 84.2109H46.4648C46.6992 83.8724 46.9824 83.5306 47.3145 83.1855C47.6465 82.834 48.0306 82.541 48.4668 82.3066C48.9095 82.0658 49.4108 81.9453 49.9707 81.9453C50.7259 81.9453 51.2988 82.1634 51.6895 82.5996C52.0801 83.0358 52.3079 83.6315 52.373 84.3867H52.4414C52.7018 83.9896 53.0143 83.6055 53.3789 83.2344C53.7435 82.8568 54.1569 82.5475 54.6191 82.3066C55.0879 82.0658 55.6022 81.9453 56.1621 81.9453C56.9889 81.9453 57.627 82.1699 58.0762 82.6191C58.5254 83.0684 58.75 83.7194 58.75 84.5723C58.75 84.8783 58.7305 85.168 58.6914 85.4414C58.6589 85.7148 58.6068 85.9948 58.5352 86.2812L57.1484 92.8438H55.5078L56.9531 86.1055C57.0117 85.8125 57.054 85.5586 57.0801 85.3438C57.1126 85.1289 57.1289 84.9238 57.1289 84.7285C57.1289 84.2923 57.0117 83.9473 56.7773 83.6934C56.543 83.4395 56.1816 83.3125 55.6934 83.3125C55.3483 83.3125 54.9902 83.4069 54.6191 83.5957C54.248 83.7845 53.8867 84.071 53.5352 84.4551C53.1901 84.8327 52.8776 85.3112 52.5977 85.8906C52.3177 86.4701 52.0931 87.1504 51.9238 87.9316L50.8789 92.8438H49.2578L50.6836 86.1348C50.7422 85.8353 50.7845 85.5781 50.8105 85.3633C50.8431 85.1419 50.8594 84.9531 50.8594 84.7969C50.8594 84.3346 50.752 83.9733 50.5371 83.7129C50.3223 83.446 49.9707 83.3125 49.4824 83.3125C49.1374 83.3125 48.776 83.4036 48.3984 83.5859C48.0273 83.7682 47.666 84.0547 47.3145 84.4453C46.9629 84.8359 46.6406 85.334 46.3477 85.9395C46.0547 86.5449 45.8203 87.2741 45.6445 88.127L44.6484 92.8438H43.0176ZM64.7461 93.0391C63.9453 93.0391 63.2552 92.8796 62.6758 92.5605C62.0964 92.235 61.6504 91.7728 61.3379 91.1738C61.0319 90.5684 60.8789 89.8457 60.8789 89.0059C60.8789 88.14 61.0026 87.2904 61.25 86.457C61.5039 85.6172 61.8652 84.8587 62.334 84.1816C62.8027 83.498 63.3659 82.9544 64.0234 82.5508C64.6875 82.1471 65.4297 81.9453 66.25 81.9453C67.2331 81.9453 67.9785 82.1667 68.4863 82.6094C68.9941 83.0456 69.248 83.6478 69.248 84.416C69.248 84.9564 69.1211 85.4544 68.8672 85.9102C68.6198 86.3659 68.2357 86.763 67.7148 87.1016C67.2005 87.4336 66.5462 87.694 65.752 87.8828C64.9642 88.0651 64.0299 88.1562 62.9492 88.1562H62.5781C62.5651 88.2734 62.5521 88.4036 62.5391 88.5469C62.5326 88.6901 62.5293 88.8236 62.5293 88.9473C62.5293 89.8066 62.7376 90.4805 63.1543 90.9688C63.571 91.4505 64.196 91.6914 65.0293 91.6914C65.5436 91.6914 66.0286 91.6198 66.4844 91.4766C66.9466 91.3268 67.4284 91.1315 67.9297 90.8906V92.2871C67.4479 92.5085 66.9629 92.6908 66.4746 92.834C65.9863 92.9707 65.4102 93.0391 64.7461 93.0391ZM62.8125 86.8281H63.0469C63.8802 86.8281 64.6452 86.7565 65.3418 86.6133C66.0384 86.4635 66.5983 86.2227 67.0215 85.8906C67.4447 85.5521 67.6562 85.1029 67.6562 84.543C67.6562 84.1784 67.5326 83.8789 67.2852 83.6445C67.0378 83.4102 66.6602 83.293 66.1523 83.293C65.7031 83.293 65.2604 83.4329 64.8242 83.7129C64.388 83.9863 63.9909 84.3867 63.6328 84.9141C63.2812 85.4414 63.0078 86.0794 62.8125 86.8281ZM70.3516 92.8438L72.6465 82.0918H74.082L73.8281 84.1523H73.8477C74.0951 83.8138 74.3913 83.472 74.7363 83.127C75.0879 82.7754 75.4948 82.4824 75.957 82.248C76.4258 82.0072 76.9564 81.8867 77.5488 81.8867C78.1217 81.8867 78.6133 81.9941 79.0234 82.209C79.4336 82.4173 79.7493 82.7233 79.9707 83.127C80.1921 83.5241 80.3027 84.0059 80.3027 84.5723C80.3027 84.8717 80.2799 85.1745 80.2344 85.4805C80.1888 85.7865 80.14 86.0599 80.0879 86.3008L78.6621 92.8438H76.9336L78.3789 86.0859C78.4375 85.793 78.4831 85.5423 78.5156 85.334C78.5547 85.1257 78.5742 84.9303 78.5742 84.748C78.5742 84.2923 78.4505 83.9473 78.2031 83.7129C77.9557 83.4785 77.5911 83.3613 77.1094 83.3613C76.6341 83.3613 76.1328 83.5241 75.6055 83.8496C75.0781 84.1751 74.5898 84.6895 74.1406 85.3926C73.6914 86.0892 73.3431 87.0007 73.0957 88.127L72.0898 92.8438H70.3516ZM84.9902 93.0391C84.2806 93.0391 83.6882 92.8698 83.2129 92.5312C82.7441 92.1862 82.5098 91.597 82.5098 90.7637C82.5098 90.5618 82.5228 90.3438 82.5488 90.1094C82.5749 89.8685 82.6172 89.6211 82.6758 89.3672L83.9355 83.3809H82.2852L82.4414 82.6289L84.2188 81.9453L85.3906 79.6797H86.3574L85.8203 82.1406H88.5742L88.3203 83.3809H85.5762L84.3066 89.3867C84.2611 89.569 84.2188 89.7643 84.1797 89.9727C84.1471 90.181 84.1309 90.3796 84.1309 90.5684C84.1309 90.8939 84.2155 91.1673 84.3848 91.3887C84.554 91.6035 84.8372 91.7109 85.2344 91.7109C85.4818 91.7109 85.7161 91.6882 85.9375 91.6426C86.1654 91.597 86.4062 91.5319 86.6602 91.4473V92.6973C86.4974 92.7754 86.25 92.8503 85.918 92.9219C85.5924 93 85.2832 93.0391 84.9902 93.0391ZM92.9102 93C92.0898 93 91.3835 92.834 90.791 92.502C90.1986 92.1634 89.7428 91.6882 89.4238 91.0762C89.1113 90.4577 88.9551 89.7285 88.9551 88.8887C88.9551 88.2116 89.0299 87.5443 89.1797 86.8867C89.3294 86.2227 89.5508 85.5977 89.8438 85.0117C90.1367 84.4193 90.498 83.8984 90.9277 83.4492C91.3639 82.9935 91.8652 82.6387 92.4316 82.3848C92.998 82.1243 93.6296 81.9941 94.3262 81.9941C95.1595 81.9941 95.8691 82.1634 96.4551 82.502C97.0475 82.834 97.5 83.3092 97.8125 83.9277C98.1315 84.5462 98.291 85.2786 98.291 86.125C98.291 86.7891 98.2161 87.4499 98.0664 88.1074C97.9232 88.765 97.7051 89.39 97.4121 89.9824C97.1257 90.5684 96.7643 91.0892 96.3281 91.5449C95.8984 91.9941 95.3971 92.349 94.8242 92.6094C94.2578 92.8698 93.6198 93 92.9102 93ZM93.0078 91.6523C93.4115 91.6523 93.7956 91.5677 94.1602 91.3984C94.5247 91.2292 94.8568 90.985 95.1562 90.666C95.4557 90.3405 95.7129 89.9466 95.9277 89.4844C96.1491 89.0156 96.3184 88.485 96.4355 87.8926C96.5592 87.3001 96.6211 86.6491 96.6211 85.9395C96.6211 85.5163 96.5462 85.1061 96.3965 84.709C96.2467 84.3118 96.0059 83.9863 95.6738 83.7324C95.3418 83.472 94.8991 83.3418 94.3457 83.3418C93.89 83.3418 93.4668 83.4362 93.0762 83.625C92.6921 83.8138 92.347 84.0807 92.041 84.4258C91.735 84.7708 91.4746 85.1777 91.2598 85.6465C91.0514 86.1152 90.8887 86.6296 90.7715 87.1895C90.6608 87.7493 90.6055 88.3385 90.6055 88.957C90.6055 89.8099 90.8138 90.474 91.2305 90.9492C91.6471 91.418 92.2396 91.6523 93.0078 91.6523ZM102.363 93.0391C101.712 93.0391 101.139 92.974 100.645 92.8438C100.156 92.7135 99.7298 92.5508 99.3652 92.3555V90.8516C99.7103 91.0599 100.146 91.2552 100.674 91.4375C101.208 91.6198 101.755 91.7109 102.314 91.7109C102.868 91.7109 103.327 91.6361 103.691 91.4863C104.062 91.3366 104.339 91.1315 104.521 90.8711C104.71 90.6042 104.805 90.2949 104.805 89.9434C104.805 89.6634 104.743 89.4225 104.619 89.2207C104.502 89.0124 104.307 88.8105 104.033 88.6152C103.766 88.4199 103.408 88.1953 102.959 87.9414C102.458 87.6615 102.035 87.3783 101.689 87.0918C101.344 86.8053 101.081 86.4928 100.898 86.1543C100.723 85.8092 100.635 85.4089 100.635 84.9531C100.635 84.3411 100.785 83.8105 101.084 83.3613C101.383 82.9121 101.803 82.5638 102.344 82.3164C102.891 82.069 103.529 81.9453 104.258 81.9453C104.902 81.9453 105.498 82.0202 106.045 82.1699C106.592 82.3132 107.064 82.4792 107.461 82.668L106.934 83.9668C106.595 83.804 106.208 83.6543 105.771 83.5176C105.335 83.3809 104.831 83.3125 104.258 83.3125C103.646 83.3125 103.158 83.4525 102.793 83.7324C102.435 84.0124 102.256 84.39 102.256 84.8652C102.256 85.1126 102.308 85.334 102.412 85.5293C102.523 85.7246 102.712 85.9199 102.979 86.1152C103.245 86.304 103.61 86.5254 104.072 86.7793C104.521 87.0397 104.925 87.3066 105.283 87.5801C105.648 87.847 105.934 88.1562 106.143 88.5078C106.357 88.8529 106.465 89.2793 106.465 89.7871C106.465 90.4837 106.299 91.0762 105.967 91.5645C105.635 92.0462 105.16 92.4141 104.541 92.668C103.929 92.9154 103.203 93.0391 102.363 93.0391ZM107.021 95.4219C107.269 94.8815 107.513 94.3216 107.754 93.7422C107.995 93.1693 108.223 92.6061 108.438 92.0527C108.652 91.4993 108.844 90.9883 109.014 90.5195H110.771L110.85 90.7441C110.635 91.2194 110.384 91.7272 110.098 92.2676C109.818 92.8079 109.518 93.3483 109.199 93.8887C108.887 94.429 108.574 94.9401 108.262 95.4219H107.021ZM121.65 93.0391C120.941 93.0391 120.348 92.8698 119.873 92.5312C119.404 92.1862 119.17 91.597 119.17 90.7637C119.17 90.5618 119.183 90.3438 119.209 90.1094C119.235 89.8685 119.277 89.6211 119.336 89.3672L120.596 83.3809H118.945L119.102 82.6289L120.879 81.9453L122.051 79.6797H123.018L122.48 82.1406H125.234L124.98 83.3809H122.236L120.967 89.3867C120.921 89.569 120.879 89.7643 120.84 89.9727C120.807 90.181 120.791 90.3796 120.791 90.5684C120.791 90.8939 120.876 91.1673 121.045 91.3887C121.214 91.6035 121.497 91.7109 121.895 91.7109C122.142 91.7109 122.376 91.6882 122.598 91.6426C122.826 91.597 123.066 91.5319 123.32 91.4473V92.6973C123.158 92.7754 122.91 92.8503 122.578 92.9219C122.253 93 121.943 93.0391 121.65 93.0391ZM128.506 93.0391C127.926 93.0391 127.419 92.8991 126.982 92.6191C126.546 92.3392 126.208 91.9258 125.967 91.3789C125.726 90.832 125.605 90.1647 125.605 89.377C125.605 88.5892 125.687 87.8307 125.85 87.1016C126.019 86.3724 126.257 85.6953 126.562 85.0703C126.868 84.4453 127.236 83.8984 127.666 83.4297C128.102 82.9609 128.59 82.5964 129.131 82.3359C129.671 82.0755 130.254 81.9453 130.879 81.9453C131.361 81.9453 131.777 82.0365 132.129 82.2188C132.487 82.401 132.783 82.6419 133.018 82.9414C133.258 83.2344 133.447 83.5469 133.584 83.8789H133.682L134.307 82.1406H135.547L133.281 92.8438H131.982L132.275 90.7734H132.197C131.904 91.1641 131.569 91.5319 131.191 91.877C130.814 92.222 130.4 92.502 129.951 92.7168C129.502 92.9316 129.02 93.0391 128.506 93.0391ZM129.033 91.6914C129.535 91.6914 130.029 91.5091 130.518 91.1445C131.012 90.7734 131.455 90.2754 131.846 89.6504C132.243 89.0189 132.546 88.3092 132.754 87.5215C132.858 87.1374 132.926 86.7858 132.959 86.4668C132.998 86.1413 133.018 85.8385 133.018 85.5586C133.018 84.888 132.839 84.3477 132.48 83.9375C132.129 83.5208 131.647 83.3125 131.035 83.3125C130.599 83.3125 130.189 83.4232 129.805 83.6445C129.421 83.8594 129.072 84.1621 128.76 84.5527C128.454 84.9368 128.19 85.3861 127.969 85.9004C127.747 86.4082 127.575 86.9616 127.451 87.5605C127.334 88.1595 127.275 88.7747 127.275 89.4062C127.275 90.1549 127.428 90.7246 127.734 91.1152C128.04 91.4993 128.473 91.6914 129.033 91.6914ZM128.35 80.6953C128.467 80.1549 128.63 79.6992 128.838 79.3281C129.046 78.957 129.297 78.6771 129.59 78.4883C129.889 78.2995 130.231 78.2051 130.615 78.2051C130.908 78.2051 131.182 78.2637 131.436 78.3809C131.696 78.4915 131.94 78.6217 132.168 78.7715C132.396 78.9212 132.607 79.0547 132.803 79.1719C133.005 79.2826 133.197 79.3379 133.379 79.3379C133.665 79.3379 133.893 79.2533 134.062 79.084C134.232 78.9082 134.398 78.6087 134.561 78.1855H135.566C135.423 78.7259 135.244 79.1816 135.029 79.5527C134.814 79.9238 134.561 80.207 134.268 80.4023C133.975 80.5911 133.639 80.6855 133.262 80.6855C132.995 80.6855 132.741 80.6302 132.5 80.5195C132.259 80.4023 132.025 80.2689 131.797 80.1191C131.576 79.9629 131.357 79.8294 131.143 79.7188C130.928 79.6016 130.71 79.543 130.488 79.543C130.208 79.543 129.984 79.6374 129.814 79.8262C129.645 80.0085 129.486 80.2982 129.336 80.6953H128.35ZM140.879 93C140.059 93 139.352 92.834 138.76 92.502C138.167 92.1634 137.712 91.6882 137.393 91.0762C137.08 90.4577 136.924 89.7285 136.924 88.8887C136.924 88.2116 136.999 87.5443 137.148 86.8867C137.298 86.2227 137.52 85.5977 137.812 85.0117C138.105 84.4193 138.467 83.8984 138.896 83.4492C139.333 82.9935 139.834 82.6387 140.4 82.3848C140.967 82.1243 141.598 81.9941 142.295 81.9941C143.128 81.9941 143.838 82.1634 144.424 82.502C145.016 82.834 145.469 83.3092 145.781 83.9277C146.1 84.5462 146.26 85.2786 146.26 86.125C146.26 86.7891 146.185 87.4499 146.035 88.1074C145.892 88.765 145.674 89.39 145.381 89.9824C145.094 90.5684 144.733 91.0892 144.297 91.5449C143.867 91.9941 143.366 92.349 142.793 92.6094C142.227 92.8698 141.589 93 140.879 93ZM140.977 91.6523C141.38 91.6523 141.764 91.5677 142.129 91.3984C142.493 91.2292 142.826 90.985 143.125 90.666C143.424 90.3405 143.682 89.9466 143.896 89.4844C144.118 89.0156 144.287 88.485 144.404 87.8926C144.528 87.3001 144.59 86.6491 144.59 85.9395C144.59 85.5163 144.515 85.1061 144.365 84.709C144.215 84.3118 143.975 83.9863 143.643 83.7324C143.311 83.472 142.868 83.3418 142.314 83.3418C141.859 83.3418 141.436 83.4362 141.045 83.625C140.661 83.8138 140.316 84.0807 140.01 84.4258C139.704 84.7708 139.443 85.1777 139.229 85.6465C139.02 86.1152 138.857 86.6296 138.74 87.1895C138.63 87.7493 138.574 88.3385 138.574 88.957C138.574 89.8099 138.783 90.474 139.199 90.9492C139.616 91.418 140.208 91.6523 140.977 91.6523ZM151.982 97.6289L155.254 82.1406H156.582L156.318 84.2207H156.387C156.693 83.8171 157.028 83.446 157.393 83.1074C157.764 82.7624 158.167 82.4857 158.604 82.2773C159.046 82.069 159.528 81.9648 160.049 81.9648C160.635 81.9648 161.146 82.1048 161.582 82.3848C162.018 82.6582 162.357 83.0684 162.598 83.6152C162.845 84.1556 162.969 84.8294 162.969 85.6367C162.969 86.4049 162.891 87.1536 162.734 87.8828C162.585 88.6055 162.363 89.2793 162.07 89.9043C161.777 90.5228 161.416 91.0697 160.986 91.5449C160.563 92.0137 160.078 92.3815 159.531 92.6484C158.984 92.9089 158.382 93.0391 157.725 93.0391C157.223 93.0391 156.79 92.9512 156.426 92.7754C156.068 92.5931 155.765 92.3555 155.518 92.0625C155.277 91.7695 155.085 91.4538 154.941 91.1152H154.854C154.827 91.3561 154.785 91.6719 154.727 92.0625C154.674 92.4466 154.619 92.7689 154.561 93.0293L153.584 97.6289H151.982ZM157.607 91.6914C158.063 91.6914 158.48 91.5775 158.857 91.3496C159.242 91.1217 159.583 90.8125 159.883 90.4219C160.189 90.0247 160.446 89.5658 160.654 89.0449C160.869 88.5241 161.032 87.9707 161.143 87.3848C161.253 86.7988 161.309 86.2031 161.309 85.5977C161.309 84.8424 161.156 84.2728 160.85 83.8887C160.55 83.5046 160.101 83.3125 159.502 83.3125C159.189 83.3125 158.874 83.3906 158.555 83.5469C158.236 83.6966 157.926 83.9115 157.627 84.1914C157.327 84.4648 157.048 84.7904 156.787 85.168C156.527 85.5456 156.299 85.9622 156.104 86.418C155.915 86.8737 155.765 87.3555 155.654 87.8633C155.544 88.3711 155.488 88.8919 155.488 89.4258C155.488 90.1094 155.661 90.6595 156.006 91.0762C156.357 91.4863 156.891 91.6914 157.607 91.6914ZM168.906 93C168.086 93 167.38 92.834 166.787 92.502C166.195 92.1634 165.739 91.6882 165.42 91.0762C165.107 90.4577 164.951 89.7285 164.951 88.8887C164.951 88.2116 165.026 87.5443 165.176 86.8867C165.326 86.2227 165.547 85.5977 165.84 85.0117C166.133 84.4193 166.494 83.8984 166.924 83.4492C167.36 82.9935 167.861 82.6387 168.428 82.3848C168.994 82.1243 169.626 81.9941 170.322 81.9941C171.156 81.9941 171.865 82.1634 172.451 82.502C173.044 82.834 173.496 83.3092 173.809 83.9277C174.128 84.5462 174.287 85.2786 174.287 86.125C174.287 86.7891 174.212 87.4499 174.062 88.1074C173.919 88.765 173.701 89.39 173.408 89.9824C173.122 90.5684 172.76 91.0892 172.324 91.5449C171.895 91.9941 171.393 92.349 170.82 92.6094C170.254 92.8698 169.616 93 168.906 93ZM169.004 91.6523C169.408 91.6523 169.792 91.5677 170.156 91.3984C170.521 91.2292 170.853 90.985 171.152 90.666C171.452 90.3405 171.709 89.9466 171.924 89.4844C172.145 89.0156 172.314 88.485 172.432 87.8926C172.555 87.3001 172.617 86.6491 172.617 85.9395C172.617 85.5163 172.542 85.1061 172.393 84.709C172.243 84.3118 172.002 83.9863 171.67 83.7324C171.338 83.472 170.895 83.3418 170.342 83.3418C169.886 83.3418 169.463 83.4362 169.072 83.625C168.688 83.8138 168.343 84.0807 168.037 84.4258C167.731 84.7708 167.471 85.1777 167.256 85.6465C167.048 86.1152 166.885 86.6296 166.768 87.1895C166.657 87.7493 166.602 88.3385 166.602 88.957C166.602 89.8099 166.81 90.474 167.227 90.9492C167.643 91.418 168.236 91.6523 169.004 91.6523ZM179.121 93.0391C178.535 93.0391 178.024 92.9023 177.588 92.6289C177.152 92.3555 176.813 91.9486 176.572 91.4082C176.331 90.8613 176.211 90.1842 176.211 89.377C176.211 88.6087 176.289 87.8633 176.445 87.1406C176.602 86.4115 176.826 85.7344 177.119 85.1094C177.419 84.4844 177.783 83.9375 178.213 83.4688C178.643 82.9935 179.131 82.6257 179.678 82.3652C180.231 82.0983 180.837 81.9648 181.494 81.9648C181.995 81.9648 182.425 82.056 182.783 82.2383C183.141 82.4206 183.438 82.6582 183.672 82.9512C183.913 83.2376 184.102 83.5469 184.238 83.8789H184.336C184.375 83.5794 184.414 83.2897 184.453 83.0098C184.492 82.7233 184.538 82.4336 184.59 82.1406C184.648 81.8477 184.714 81.5449 184.785 81.2324L185.537 77.6484H187.148L183.926 92.8438H182.588L182.852 90.7734H182.783C182.471 91.1771 182.129 91.5514 181.758 91.8965C181.393 92.2415 180.993 92.5182 180.557 92.7266C180.12 92.9349 179.642 93.0391 179.121 93.0391ZM179.668 91.6914C179.974 91.6914 180.283 91.6165 180.596 91.4668C180.915 91.3171 181.224 91.1055 181.523 90.832C181.823 90.5521 182.103 90.2233 182.363 89.8457C182.624 89.4681 182.852 89.0514 183.047 88.5957C183.249 88.14 183.405 87.6582 183.516 87.1504C183.626 86.6426 183.682 86.1185 183.682 85.5781C183.682 84.888 183.516 84.3379 183.184 83.9277C182.852 83.5176 182.321 83.3125 181.592 83.3125C181.143 83.3125 180.726 83.4264 180.342 83.6543C179.964 83.8822 179.622 84.1947 179.316 84.5918C179.01 84.9889 178.75 85.4479 178.535 85.9688C178.327 86.4831 178.164 87.0365 178.047 87.6289C177.936 88.2148 177.881 88.8073 177.881 89.4062C177.881 90.1549 178.031 90.7246 178.33 91.1152C178.63 91.4993 179.076 91.6914 179.668 91.6914ZM191.66 93.0391C190.859 93.0391 190.169 92.8796 189.59 92.5605C189.01 92.235 188.564 91.7728 188.252 91.1738C187.946 90.5684 187.793 89.8457 187.793 89.0059C187.793 88.14 187.917 87.2904 188.164 86.457C188.418 85.6172 188.779 84.8587 189.248 84.1816C189.717 83.498 190.28 82.9544 190.938 82.5508C191.602 82.1471 192.344 81.9453 193.164 81.9453C194.147 81.9453 194.893 82.1667 195.4 82.6094C195.908 83.0456 196.162 83.6478 196.162 84.416C196.162 84.9564 196.035 85.4544 195.781 85.9102C195.534 86.3659 195.15 86.763 194.629 87.1016C194.115 87.4336 193.46 87.694 192.666 87.8828C191.878 88.0651 190.944 88.1562 189.863 88.1562H189.492C189.479 88.2734 189.466 88.4036 189.453 88.5469C189.447 88.6901 189.443 88.8236 189.443 88.9473C189.443 89.8066 189.652 90.4805 190.068 90.9688C190.485 91.4505 191.11 91.6914 191.943 91.6914C192.458 91.6914 192.943 91.6198 193.398 91.4766C193.861 91.3268 194.342 91.1315 194.844 90.8906V92.2871C194.362 92.5085 193.877 92.6908 193.389 92.834C192.9 92.9707 192.324 93.0391 191.66 93.0391ZM189.727 86.8281H189.961C190.794 86.8281 191.559 86.7565 192.256 86.6133C192.952 86.4635 193.512 86.2227 193.936 85.8906C194.359 85.5521 194.57 85.1029 194.57 84.543C194.57 84.1784 194.447 83.8789 194.199 83.6445C193.952 83.4102 193.574 83.293 193.066 83.293C192.617 83.293 192.174 83.4329 191.738 83.7129C191.302 83.9863 190.905 84.3867 190.547 84.9141C190.195 85.4414 189.922 86.0794 189.727 86.8281ZM197.334 92.8438L199.609 82.1406H200.938L200.684 84.2109H200.781C201.055 83.8398 201.348 83.4818 201.66 83.1367C201.973 82.7852 202.327 82.4987 202.725 82.2773C203.128 82.056 203.59 81.9453 204.111 81.9453C204.307 81.9453 204.505 81.9583 204.707 81.9844C204.909 82.0039 205.098 82.0397 205.273 82.0918L204.922 83.5469C204.746 83.5078 204.574 83.4785 204.404 83.459C204.242 83.4395 204.072 83.4297 203.896 83.4297C203.402 83.4297 202.943 83.5599 202.52 83.8203C202.096 84.0742 201.715 84.416 201.377 84.8457C201.045 85.2754 200.762 85.7539 200.527 86.2812C200.299 86.8086 200.127 87.3457 200.01 87.8926L198.965 92.8438H197.334ZM209.609 93C208.789 93 208.083 92.834 207.49 92.502C206.898 92.1634 206.442 91.6882 206.123 91.0762C205.811 90.4577 205.654 89.7285 205.654 88.8887C205.654 88.2116 205.729 87.5443 205.879 86.8867C206.029 86.2227 206.25 85.5977 206.543 85.0117C206.836 84.4193 207.197 83.8984 207.627 83.4492C208.063 82.9935 208.564 82.6387 209.131 82.3848C209.697 82.1243 210.329 81.9941 211.025 81.9941C211.859 81.9941 212.568 82.1634 213.154 82.502C213.747 82.834 214.199 83.3092 214.512 83.9277C214.831 84.5462 214.99 85.2786 214.99 86.125C214.99 86.7891 214.915 87.4499 214.766 88.1074C214.622 88.765 214.404 89.39 214.111 89.9824C213.825 90.5684 213.464 91.0892 213.027 91.5449C212.598 91.9941 212.096 92.349 211.523 92.6094C210.957 92.8698 210.319 93 209.609 93ZM209.707 91.6523C210.111 91.6523 210.495 91.5677 210.859 91.3984C211.224 91.2292 211.556 90.985 211.855 90.666C212.155 90.3405 212.412 89.9466 212.627 89.4844C212.848 89.0156 213.018 88.485 213.135 87.8926C213.258 87.3001 213.32 86.6491 213.32 85.9395C213.32 85.5163 213.245 85.1061 213.096 84.709C212.946 84.3118 212.705 83.9863 212.373 83.7324C212.041 83.472 211.598 83.3418 211.045 83.3418C210.589 83.3418 210.166 83.4362 209.775 83.625C209.391 83.8138 209.046 84.0807 208.74 84.4258C208.434 84.7708 208.174 85.1777 207.959 85.6465C207.751 86.1152 207.588 86.6296 207.471 87.1895C207.36 87.7493 207.305 88.3385 207.305 88.957C207.305 89.8099 207.513 90.474 207.93 90.9492C208.346 91.418 208.939 91.6523 209.707 91.6523ZM219.062 93.0391C218.411 93.0391 217.839 92.974 217.344 92.8438C216.855 92.7135 216.429 92.5508 216.064 92.3555V90.8516C216.41 91.0599 216.846 91.2552 217.373 91.4375C217.907 91.6198 218.454 91.7109 219.014 91.7109C219.567 91.7109 220.026 91.6361 220.391 91.4863C220.762 91.3366 221.038 91.1315 221.221 90.8711C221.41 90.6042 221.504 90.2949 221.504 89.9434C221.504 89.6634 221.442 89.4225 221.318 89.2207C221.201 89.0124 221.006 88.8105 220.732 88.6152C220.465 88.4199 220.107 88.1953 219.658 87.9414C219.157 87.6615 218.734 87.3783 218.389 87.0918C218.044 86.8053 217.78 86.4928 217.598 86.1543C217.422 85.8092 217.334 85.4089 217.334 84.9531C217.334 84.3411 217.484 83.8105 217.783 83.3613C218.083 82.9121 218.503 82.5638 219.043 82.3164C219.59 82.069 220.228 81.9453 220.957 81.9453C221.602 81.9453 222.197 82.0202 222.744 82.1699C223.291 82.3132 223.763 82.4792 224.16 82.668L223.633 83.9668C223.294 83.804 222.907 83.6543 222.471 83.5176C222.035 83.3809 221.53 83.3125 220.957 83.3125C220.345 83.3125 219.857 83.4525 219.492 83.7324C219.134 84.0124 218.955 84.39 218.955 84.8652C218.955 85.1126 219.007 85.334 219.111 85.5293C219.222 85.7246 219.411 85.9199 219.678 86.1152C219.945 86.304 220.309 86.5254 220.771 86.7793C221.221 87.0397 221.624 87.3066 221.982 87.5801C222.347 87.847 222.633 88.1562 222.842 88.5078C223.057 88.8529 223.164 89.2793 223.164 89.7871C223.164 90.4837 222.998 91.0762 222.666 91.5645C222.334 92.0462 221.859 92.4141 221.24 92.668C220.628 92.9154 219.902 93.0391 219.062 93.0391ZM229.512 93C228.691 93 227.985 92.834 227.393 92.502C226.8 92.1634 226.344 91.6882 226.025 91.0762C225.713 90.4577 225.557 89.7285 225.557 88.8887C225.557 88.2116 225.632 87.5443 225.781 86.8867C225.931 86.2227 226.152 85.5977 226.445 85.0117C226.738 84.4193 227.1 83.8984 227.529 83.4492C227.965 82.9935 228.467 82.6387 229.033 82.3848C229.6 82.1243 230.231 81.9941 230.928 81.9941C231.761 81.9941 232.471 82.1634 233.057 82.502C233.649 82.834 234.102 83.3092 234.414 83.9277C234.733 84.5462 234.893 85.2786 234.893 86.125C234.893 86.7891 234.818 87.4499 234.668 88.1074C234.525 88.765 234.307 89.39 234.014 89.9824C233.727 90.5684 233.366 91.0892 232.93 91.5449C232.5 91.9941 231.999 92.349 231.426 92.6094C230.859 92.8698 230.221 93 229.512 93ZM229.609 91.6523C230.013 91.6523 230.397 91.5677 230.762 91.3984C231.126 91.2292 231.458 90.985 231.758 90.666C232.057 90.3405 232.314 89.9466 232.529 89.4844C232.751 89.0156 232.92 88.485 233.037 87.8926C233.161 87.3001 233.223 86.6491 233.223 85.9395C233.223 85.5163 233.148 85.1061 232.998 84.709C232.848 84.3118 232.607 83.9863 232.275 83.7324C231.943 83.472 231.501 83.3418 230.947 83.3418C230.492 83.3418 230.068 83.4362 229.678 83.625C229.294 83.8138 228.949 84.0807 228.643 84.4258C228.337 84.7708 228.076 85.1777 227.861 85.6465C227.653 86.1152 227.49 86.6296 227.373 87.1895C227.262 87.7493 227.207 88.3385 227.207 88.957C227.207 89.8099 227.415 90.474 227.832 90.9492C228.249 91.418 228.841 91.6523 229.609 91.6523ZM247.1 97.6289L248.066 93.0977C248.112 92.9154 248.167 92.6875 248.232 92.4141C248.304 92.1341 248.379 91.8477 248.457 91.5547C248.535 91.2617 248.604 90.998 248.662 90.7637H248.584C248.285 91.1608 247.949 91.5352 247.578 91.8867C247.214 92.2318 246.813 92.5117 246.377 92.7266C245.941 92.9349 245.462 93.0391 244.941 93.0391C244.349 93.0391 243.831 92.9023 243.389 92.6289C242.952 92.349 242.614 91.9388 242.373 91.3984C242.132 90.8516 242.012 90.1777 242.012 89.377C242.012 88.6152 242.09 87.873 242.246 87.1504C242.402 86.4212 242.627 85.7441 242.92 85.1191C243.219 84.4876 243.584 83.9342 244.014 83.459C244.45 82.9837 244.941 82.6126 245.488 82.3457C246.042 82.0788 246.65 81.9453 247.314 81.9453C247.809 81.9453 248.232 82.0365 248.584 82.2188C248.942 82.401 249.242 82.6387 249.482 82.9316C249.723 83.2246 249.909 83.5404 250.039 83.8789H250.137L250.781 82.1406H252.002L248.711 97.6289H247.1ZM245.469 91.6914C245.781 91.6914 246.094 91.6165 246.406 91.4668C246.725 91.3105 247.035 91.0924 247.334 90.8125C247.633 90.526 247.91 90.194 248.164 89.8164C248.424 89.4323 248.652 89.0124 248.848 88.5566C249.043 88.1009 249.196 87.6224 249.307 87.1211C249.417 86.6133 249.473 86.099 249.473 85.5781C249.473 84.9401 249.307 84.403 248.975 83.9668C248.643 83.5306 248.122 83.3125 247.412 83.3125C246.963 83.3125 246.546 83.4264 246.162 83.6543C245.778 83.8822 245.433 84.1947 245.127 84.5918C244.821 84.9889 244.561 85.4479 244.346 85.9688C244.131 86.4831 243.965 87.0365 243.848 87.6289C243.737 88.2148 243.682 88.8073 243.682 89.4062C243.682 90.1549 243.828 90.7246 244.121 91.1152C244.421 91.4993 244.87 91.6914 245.469 91.6914ZM256.387 93.0391C255.846 93.0391 255.374 92.9382 254.971 92.7363C254.567 92.5345 254.255 92.2383 254.033 91.8477C253.818 91.4505 253.711 90.9655 253.711 90.3926C253.711 90.1061 253.73 89.8294 253.77 89.5625C253.815 89.2891 253.864 89.0059 253.916 88.7129L255.332 82.1406H256.973L255.518 88.8984C255.465 89.1784 255.423 89.429 255.391 89.6504C255.365 89.8652 255.352 90.0573 255.352 90.2266C255.352 90.6888 255.469 91.0501 255.703 91.3105C255.944 91.5645 256.325 91.6914 256.846 91.6914C257.334 91.6914 257.845 91.5254 258.379 91.1934C258.919 90.8613 259.417 90.3405 259.873 89.6309C260.335 88.9147 260.687 87.987 260.928 86.8477L261.924 82.1406H263.525L261.26 92.8438H259.922L260.186 90.7734H260.098C259.85 91.112 259.551 91.457 259.199 91.8086C258.848 92.1536 258.441 92.4466 257.979 92.6875C257.516 92.9219 256.986 93.0391 256.387 93.0391ZM267.998 93.0391C267.419 93.0391 266.911 92.8991 266.475 92.6191C266.038 92.3392 265.7 91.9258 265.459 91.3789C265.218 90.832 265.098 90.1647 265.098 89.377C265.098 88.5892 265.179 87.8307 265.342 87.1016C265.511 86.3724 265.749 85.6953 266.055 85.0703C266.361 84.4453 266.729 83.8984 267.158 83.4297C267.594 82.9609 268.083 82.5964 268.623 82.3359C269.163 82.0755 269.746 81.9453 270.371 81.9453C270.853 81.9453 271.27 82.0365 271.621 82.2188C271.979 82.401 272.275 82.6419 272.51 82.9414C272.751 83.2344 272.939 83.5469 273.076 83.8789H273.174L273.799 82.1406H275.039L272.773 92.8438H271.475L271.768 90.7734H271.689C271.396 91.1641 271.061 91.5319 270.684 91.877C270.306 92.222 269.893 92.502 269.443 92.7168C268.994 92.9316 268.512 93.0391 267.998 93.0391ZM268.525 91.6914C269.027 91.6914 269.521 91.5091 270.01 91.1445C270.505 90.7734 270.947 90.2754 271.338 89.6504C271.735 89.0189 272.038 88.3092 272.246 87.5215C272.35 87.1374 272.419 86.7858 272.451 86.4668C272.49 86.1413 272.51 85.8385 272.51 85.5586C272.51 84.888 272.331 84.3477 271.973 83.9375C271.621 83.5208 271.139 83.3125 270.527 83.3125C270.091 83.3125 269.681 83.4232 269.297 83.6445C268.913 83.8594 268.564 84.1621 268.252 84.5527C267.946 84.9368 267.682 85.3861 267.461 85.9004C267.24 86.4082 267.067 86.9616 266.943 87.5605C266.826 88.1595 266.768 88.7747 266.768 89.4062C266.768 90.1549 266.921 90.7246 267.227 91.1152C267.533 91.4993 267.965 91.6914 268.525 91.6914ZM275.938 92.8438L278.232 82.0918H279.668L279.414 84.1523H279.434C279.681 83.8138 279.977 83.472 280.322 83.127C280.674 82.7754 281.081 82.4824 281.543 82.248C282.012 82.0072 282.542 81.8867 283.135 81.8867C283.708 81.8867 284.199 81.9941 284.609 82.209C285.02 82.4173 285.335 82.7233 285.557 83.127C285.778 83.5241 285.889 84.0059 285.889 84.5723C285.889 84.8717 285.866 85.1745 285.82 85.4805C285.775 85.7865 285.726 86.0599 285.674 86.3008L284.248 92.8438H282.52L283.965 86.0859C284.023 85.793 284.069 85.5423 284.102 85.334C284.141 85.1257 284.16 84.9303 284.16 84.748C284.16 84.2923 284.036 83.9473 283.789 83.7129C283.542 83.4785 283.177 83.3613 282.695 83.3613C282.22 83.3613 281.719 83.5241 281.191 83.8496C280.664 84.1751 280.176 84.6895 279.727 85.3926C279.277 86.0892 278.929 87.0007 278.682 88.127L277.676 92.8438H275.938ZM290.576 93.0391C289.867 93.0391 289.274 92.8698 288.799 92.5312C288.33 92.1862 288.096 91.597 288.096 90.7637C288.096 90.5618 288.109 90.3438 288.135 90.1094C288.161 89.8685 288.203 89.6211 288.262 89.3672L289.521 83.3809H287.871L288.027 82.6289L289.805 81.9453L290.977 79.6797H291.943L291.406 82.1406H294.16L293.906 83.3809H291.162L289.893 89.3867C289.847 89.569 289.805 89.7643 289.766 89.9727C289.733 90.181 289.717 90.3796 289.717 90.5684C289.717 90.8939 289.801 91.1673 289.971 91.3887C290.14 91.6035 290.423 91.7109 290.82 91.7109C291.068 91.7109 291.302 91.6882 291.523 91.6426C291.751 91.597 291.992 91.5319 292.246 91.4473V92.6973C292.083 92.7754 291.836 92.8503 291.504 92.9219C291.178 93 290.869 93.0391 290.576 93.0391ZM298.496 93C297.676 93 296.969 92.834 296.377 92.502C295.785 92.1634 295.329 91.6882 295.01 91.0762C294.697 90.4577 294.541 89.7285 294.541 88.8887C294.541 88.2116 294.616 87.5443 294.766 86.8867C294.915 86.2227 295.137 85.5977 295.43 85.0117C295.723 84.4193 296.084 83.8984 296.514 83.4492C296.95 82.9935 297.451 82.6387 298.018 82.3848C298.584 82.1243 299.215 81.9941 299.912 81.9941C300.745 81.9941 301.455 82.1634 302.041 82.502C302.633 82.834 303.086 83.3092 303.398 83.9277C303.717 84.5462 303.877 85.2786 303.877 86.125C303.877 86.7891 303.802 87.4499 303.652 88.1074C303.509 88.765 303.291 89.39 302.998 89.9824C302.712 90.5684 302.35 91.0892 301.914 91.5449C301.484 91.9941 300.983 92.349 300.41 92.6094C299.844 92.8698 299.206 93 298.496 93ZM298.594 91.6523C298.997 91.6523 299.382 91.5677 299.746 91.3984C300.111 91.2292 300.443 90.985 300.742 90.666C301.042 90.3405 301.299 89.9466 301.514 89.4844C301.735 89.0156 301.904 88.485 302.021 87.8926C302.145 87.3001 302.207 86.6491 302.207 85.9395C302.207 85.5163 302.132 85.1061 301.982 84.709C301.833 84.3118 301.592 83.9863 301.26 83.7324C300.928 83.472 300.485 83.3418 299.932 83.3418C299.476 83.3418 299.053 83.4362 298.662 83.625C298.278 83.8138 297.933 84.0807 297.627 84.4258C297.321 84.7708 297.061 85.1777 296.846 85.6465C296.637 86.1152 296.475 86.6296 296.357 87.1895C296.247 87.7493 296.191 88.3385 296.191 88.957C296.191 89.8099 296.4 90.474 296.816 90.9492C297.233 91.418 297.826 91.6523 298.594 91.6523ZM242.852 120C242.031 120 241.325 119.834 240.732 119.502C240.14 119.163 239.684 118.688 239.365 118.076C239.053 117.458 238.896 116.729 238.896 115.889C238.896 115.212 238.971 114.544 239.121 113.887C239.271 113.223 239.492 112.598 239.785 112.012C240.078 111.419 240.439 110.898 240.869 110.449C241.305 109.993 241.807 109.639 242.373 109.385C242.939 109.124 243.571 108.994 244.268 108.994C245.101 108.994 245.811 109.163 246.396 109.502C246.989 109.834 247.441 110.309 247.754 110.928C248.073 111.546 248.232 112.279 248.232 113.125C248.232 113.789 248.158 114.45 248.008 115.107C247.865 115.765 247.646 116.39 247.354 116.982C247.067 117.568 246.706 118.089 246.27 118.545C245.84 118.994 245.339 119.349 244.766 119.609C244.199 119.87 243.561 120 242.852 120ZM242.949 118.652C243.353 118.652 243.737 118.568 244.102 118.398C244.466 118.229 244.798 117.985 245.098 117.666C245.397 117.34 245.654 116.947 245.869 116.484C246.09 116.016 246.26 115.485 246.377 114.893C246.501 114.3 246.562 113.649 246.562 112.939C246.562 112.516 246.488 112.106 246.338 111.709C246.188 111.312 245.947 110.986 245.615 110.732C245.283 110.472 244.84 110.342 244.287 110.342C243.831 110.342 243.408 110.436 243.018 110.625C242.633 110.814 242.288 111.081 241.982 111.426C241.676 111.771 241.416 112.178 241.201 112.646C240.993 113.115 240.83 113.63 240.713 114.189C240.602 114.749 240.547 115.339 240.547 115.957C240.547 116.81 240.755 117.474 241.172 117.949C241.589 118.418 242.181 118.652 242.949 118.652ZM255.225 119.844L258.242 105.566H259.883L257.168 118.359H262.764L262.451 119.844H255.225ZM267.842 120.039C267.262 120.039 266.755 119.899 266.318 119.619C265.882 119.339 265.544 118.926 265.303 118.379C265.062 117.832 264.941 117.165 264.941 116.377C264.941 115.589 265.023 114.831 265.186 114.102C265.355 113.372 265.592 112.695 265.898 112.07C266.204 111.445 266.572 110.898 267.002 110.43C267.438 109.961 267.926 109.596 268.467 109.336C269.007 109.076 269.59 108.945 270.215 108.945C270.697 108.945 271.113 109.036 271.465 109.219C271.823 109.401 272.119 109.642 272.354 109.941C272.594 110.234 272.783 110.547 272.92 110.879H273.018L273.643 109.141H274.883L272.617 119.844H271.318L271.611 117.773H271.533C271.24 118.164 270.905 118.532 270.527 118.877C270.15 119.222 269.736 119.502 269.287 119.717C268.838 119.932 268.356 120.039 267.842 120.039ZM268.369 118.691C268.87 118.691 269.365 118.509 269.854 118.145C270.348 117.773 270.791 117.275 271.182 116.65C271.579 116.019 271.882 115.309 272.09 114.521C272.194 114.137 272.262 113.786 272.295 113.467C272.334 113.141 272.354 112.839 272.354 112.559C272.354 111.888 272.174 111.348 271.816 110.938C271.465 110.521 270.983 110.312 270.371 110.312C269.935 110.312 269.525 110.423 269.141 110.645C268.757 110.859 268.408 111.162 268.096 111.553C267.79 111.937 267.526 112.386 267.305 112.9C267.083 113.408 266.911 113.962 266.787 114.561C266.67 115.16 266.611 115.775 266.611 116.406C266.611 117.155 266.764 117.725 267.07 118.115C267.376 118.499 267.809 118.691 268.369 118.691ZM278.359 119.844L281.074 107.031H277.09L277.402 105.566H287.031L286.738 107.031H282.754L280.029 119.844H278.359ZM290.117 120.039C289.316 120.039 288.626 119.88 288.047 119.561C287.467 119.235 287.021 118.773 286.709 118.174C286.403 117.568 286.25 116.846 286.25 116.006C286.25 115.14 286.374 114.29 286.621 113.457C286.875 112.617 287.236 111.859 287.705 111.182C288.174 110.498 288.737 109.954 289.395 109.551C290.059 109.147 290.801 108.945 291.621 108.945C292.604 108.945 293.35 109.167 293.857 109.609C294.365 110.046 294.619 110.648 294.619 111.416C294.619 111.956 294.492 112.454 294.238 112.91C293.991 113.366 293.607 113.763 293.086 114.102C292.572 114.434 291.917 114.694 291.123 114.883C290.335 115.065 289.401 115.156 288.32 115.156H287.949C287.936 115.273 287.923 115.404 287.91 115.547C287.904 115.69 287.9 115.824 287.9 115.947C287.9 116.807 288.109 117.48 288.525 117.969C288.942 118.451 289.567 118.691 290.4 118.691C290.915 118.691 291.4 118.62 291.855 118.477C292.318 118.327 292.799 118.132 293.301 117.891V119.287C292.819 119.508 292.334 119.691 291.846 119.834C291.357 119.971 290.781 120.039 290.117 120.039ZM288.184 113.828H288.418C289.251 113.828 290.016 113.757 290.713 113.613C291.41 113.464 291.969 113.223 292.393 112.891C292.816 112.552 293.027 112.103 293.027 111.543C293.027 111.178 292.904 110.879 292.656 110.645C292.409 110.41 292.031 110.293 291.523 110.293C291.074 110.293 290.632 110.433 290.195 110.713C289.759 110.986 289.362 111.387 289.004 111.914C288.652 112.441 288.379 113.079 288.184 113.828ZM294.492 119.844L299.15 114.336L296.826 109.141H298.467L300.186 113.184L303.447 109.141H305.332L300.859 114.404L303.34 119.844H301.68L299.805 115.586L296.377 119.844H294.492Z" fill="white"/>
</svg>
